<?xml version="1.0" encoding="utf-8"?>
<!-- Generated by IcoMoon.io -->
<!DOCTYPE svg PUBLIC "-//W3C//DTD SVG 1.1//EN" "http://www.w3.org/Graphics/SVG/1.1/DTD/svg11.dtd">
<svg version="1.1" xmlns="http://www.w3.org/2000/svg" xmlns:xlink="http://www.w3.org/1999/xlink" width="352" height="32" viewBox="0 0 352 32">
<svg id="icon-avancar" width="32" height="32" viewBox="0 0 32 32" x="0" y="0">
<path fill="#444444" d="M24.177 13.705c-0.905-0.653-1.936-1.152-2.886-1.739-2.173-1.344-4.375-2.641-6.613-3.874-0.92-0.506-1.86-0.974-2.779-1.48-0.819-0.45-1.63-0.865-2.575-0.938-1.965-0.151-2.433 2.215-2.581 3.663-0.188 1.834-0.28 3.729-0.33 5.569-0.063 2.31-0.059 4.642 0.024 6.951 0.028 0.812 0.087 1.626 0.136 2.438 0.041 0.677 0.057 1.511 0.732 1.883 0.329 0.181 0.765 0.21 1.113 0.049 0.042-0.009 0.085-0.019 0.127-0.028 0.133-0.004 0.271-0.035 0.413-0.098 0.171-0.055 0.309-0.139 0.418-0.241 3.648-2.246 7.621-3.914 11.304-6.106 1.005-0.599 2.002-1.211 3.017-1.795 0.806-0.464 1.867-0.944 1.932-2.007 0.058-0.939-0.75-1.741-1.451-2.247zM17.188 12.262c-2.791 1.247-5.206 3.127-7.747 4.805 2.335-1.794 4.949-3.225 7.213-5.117 0.178 0.104 0.356 0.207 0.534 0.312zM19.531 13.676c-1.252 0.615-2.456 1.337-3.614 2.125 1.041-0.775 2.044-1.599 2.971-2.518 0.215 0.13 0.429 0.262 0.643 0.393zM21.783 14.981c-2.415 1.361-4.484 3.267-6.801 4.782-1.066 0.697-2.149 1.367-3.222 2.054-0.604 0.311-1.205 0.626-1.8 0.952 3.413-3.072 7.819-4.96 11.157-8.151 0.221 0.12 0.444 0.241 0.665 0.364zM8.815 20.85c1.752-1.406 3.651-2.622 5.498-3.901-0.226 0.169-0.451 0.339-0.673 0.512-1.531 1.183-3.065 2.55-4.823 3.423-0.001-0.011-0.001-0.023-0.001-0.034zM8.908 23.112c-0.004-0.201-0.009-0.402-0.017-0.603 1.92-1.052 3.671-2.401 5.464-3.649 1.658-1.152 3.333-2.298 5.047-3.375-3.367 2.713-7.433 4.567-10.495 7.626zM8.841 21.397c0.255-0.122 0.506-0.253 0.752-0.393-0.25 0.18-0.497 0.362-0.745 0.544-0.002-0.051-0.004-0.101-0.007-0.151zM13.386 18.256c1.466-1.152 2.998-2.263 4.614-3.216-1.806 1.391-3.691 2.676-5.569 3.97 0.32-0.253 0.637-0.506 0.954-0.755zM8.774 16.23c2.371-1.448 4.587-3.173 7.133-4.282-2.277 1.817-4.857 3.233-7.136 5.042-0-0.253 0.001-0.506 0.003-0.759zM8.789 15.19c0.002-0.060 0.003-0.121 0.005-0.181 1.685-0.975 3.283-2.102 4.97-3.073-0.949 0.73-1.931 1.42-2.946 2.033-0.672 0.405-1.367 0.791-2.028 1.221zM8.773 18.063c2.171-1.363 4.21-2.939 6.417-4.232-1.216 0.935-2.424 1.882-3.688 2.744-0.894 0.61-1.841 1.176-2.726 1.816-0.001-0.11-0.001-0.219-0.002-0.329zM18.203 12.87c-0.908 0.366-1.783 0.795-2.633 1.27 0.698-0.538 1.4-1.070 2.12-1.576 0.171 0.102 0.341 0.204 0.513 0.307zM13.921 12.419c0.506-0.389 1.002-0.788 1.487-1.193 0.14 0.080 0.279 0.163 0.418 0.243-0.654 0.281-1.286 0.602-1.905 0.95zM14.756 10.86c-1.928 0.971-3.695 2.226-5.539 3.345 1.687-1.203 3.519-2.218 5.057-3.615 0.161 0.089 0.321 0.18 0.482 0.27zM8.832 13.903c0.004-0.086 0.009-0.172 0.013-0.257 0.616-0.313 1.223-0.642 1.823-0.984-0.618 0.406-1.237 0.812-1.836 1.242zM13.687 10.261c-0.934 0.602-1.879 1.191-2.839 1.751 0.851-0.601 1.669-1.245 2.409-1.984 0.143 0.077 0.288 0.154 0.431 0.233zM9.036 9.811c0.312-0.105 0.616-0.236 0.914-0.384-0.311 0.242-0.62 0.488-0.926 0.737 0.002-0.118 0.006-0.236 0.012-0.353zM11.559 9.13c-0.585 0.344-1.162 0.707-1.763 1.020 0.496-0.394 0.997-0.779 1.501-1.161 0.088 0.047 0.175 0.094 0.262 0.141zM10.551 8.581c-0.442 0.255-0.888 0.498-1.351 0.68 0.383-0.287 0.771-0.571 1.189-0.773 0.053 0.031 0.108 0.062 0.162 0.093zM9.019 11.025c1.061-0.417 2.004-1.065 2.994-1.626-0.92 0.766-1.965 1.372-3.001 1.99 0.004-0.12 0.005-0.241 0.007-0.364zM8.958 12.157c1.236-0.682 2.418-1.46 3.645-2.161-1.122 1.050-2.403 1.907-3.698 2.747 0.015-0.195 0.034-0.39 0.053-0.585zM18.023 13.456c-2.811 2.601-6.217 4.451-9.23 6.807-0.008-0.258-0.014-0.515-0.014-0.774 0-0.040-0.001-0.081-0.001-0.121 2.957-2.167 5.87-4.483 9.245-5.912zM19.698 16.896c0.38-0.272 0.765-0.538 1.155-0.793-0.014 0.012-0.025 0.024-0.039 0.035-0.368 0.257-0.741 0.509-1.117 0.758zM20.491 14.261c-2.181 1.305-4.284 2.749-6.375 4.189-1.405 0.968-2.777 2.005-4.223 2.914 3.39-2.453 6.957-4.665 10.159-7.369 0.104 0.064 0.207 0.126 0.31 0.19 0.042 0.026 0.085 0.051 0.128 0.076zM9.403 8.090c0.046 0.005 0.14 0.017 0.305 0.072 0.057 0.019 0.115 0.042 0.172 0.066-0.24 0.141-0.47 0.302-0.699 0.468 0.053-0.212 0.125-0.415 0.221-0.606zM20.373 17.154c0.249-0.206 0.491-0.42 0.723-0.641 0.35-0.243 0.697-0.49 1.039-0.744 0.065 0.066 0.164 0.091 0.263 0.018 0.128-0.094 0.226-0.158 0.287-0.242 0.067 0.047 0.132 0.097 0.196 0.147-0.464 0.275-0.938 0.533-1.402 0.808-0.37 0.218-0.738 0.436-1.107 0.655z"></path>
</svg>
<svg id="icon-avancar-td" width="32" height="32" viewBox="0 0 32 32" x="64" y="0">
<path fill="#444444" d="M25.027 7.277c-0.029-0.624-0.512-1.239-1.189-1.207-1.545 0.074-3.469-0.206-4.451 1.293-0.989 1.511-0.526 3.309-0.492 5.021-3.479-2.099-6.518-4.904-10.224-6.631-0.682-0.318-1.547-0.077-1.754 0.721-0.722 2.794-0.427 5.685-0.51 8.535-0.096 3.284-0.254 6.511-0.010 9.798 0.071 0.957 0.946 1.442 1.805 1.042 2.4-1.121 4.445-2.834 6.586-4.367 0.906-0.65 1.8-1.323 2.713-1.963 0.49-0.344 1.024-0.704 1.597-0.927-0.299 2.177-0.401 4.375-0.404 6.573-0.003 0.677 0.535 1.168 1.189 1.206 1.404 0.080 2.774-0.319 4.178-0.238 0.5 0.028 1.069-0.379 1.163-0.882 1.125-5.953 0.078-11.995-0.196-17.974zM10.292 21.807c1.806-1.815 3.558-3.683 5.336-5.525-0.978 1.242-2.061 2.41-2.898 3.741-0.812 0.596-1.616 1.205-2.438 1.784zM10.252 9.368c-0.447 0.316-0.923 0.604-1.417 0.854 0.008-0.268 0.021-0.535 0.039-0.802 0.192-0.181 0.386-0.359 0.58-0.539 0.268 0.158 0.536 0.321 0.798 0.488zM15.677 13.145c-2.626 2.184-4.647 4.967-7.055 7.373 0-0.107-0.003-0.213-0.003-0.32 1.785-2.738 4.951-4.502 6.601-7.372 0.151 0.107 0.303 0.213 0.456 0.318zM17.103 14.090c-2.491 2.499-4.874 5.102-7.368 7.597 1.966-2.875 5.242-4.823 6.437-8.205 0.307 0.207 0.618 0.41 0.931 0.609zM8.846 13.544c0-0.084 0-0.167 0-0.251 0.483-0.322 0.969-0.638 1.455-0.955-0.496 0.39-0.99 0.783-1.455 1.206zM8.642 18.432c1.805-1.98 3.742-3.866 5.913-5.433-1.572 2.441-4.185 4.102-5.931 6.396 0.004-0.321 0.009-0.642 0.018-0.963zM8.679 17.311c0.009-0.211 0.018-0.423 0.029-0.634 1.683-0.953 3.069-2.375 4.492-3.712-1.352 1.58-3.122 2.804-4.521 4.347zM8.739 16.114c0.009-0.136 0.018-0.272 0.026-0.409 1.372-1.552 3.151-2.74 4.697-4.134 0.104 0.074 0.208 0.149 0.312 0.224-1.644 1.45-3.156 3.189-5.035 4.319zM8.81 14.963c0.003-0.052 0.007-0.104 0.008-0.155 0.108-0.053 0.212-0.11 0.316-0.166-0.109 0.106-0.217 0.213-0.324 0.322zM8.833 12.181c0.104-0.065 0.207-0.13 0.308-0.197-0.103 0.093-0.206 0.187-0.307 0.282-0-0.028-0-0.057-0.001-0.085zM8.825 11.309c-0.001-0.183-0.001-0.367 0-0.549 0.467-0.225 0.922-0.483 1.357-0.767-0.41 0.473-0.876 0.906-1.357 1.316zM8.629 21.183c2.384-2.31 4.358-5.022 6.84-7.23-1.51 3.358-5.13 5.304-6.803 8.593-0.017-0.454-0.031-0.909-0.037-1.363zM14.594 12.384c-0.256 0.179-0.507 0.363-0.756 0.551 0.184-0.23 0.36-0.469 0.523-0.717 0.077 0.055 0.155 0.111 0.232 0.166zM8.838 14.265c0-0.025 0-0.049 0.001-0.074 1.176-1.166 2.613-2.054 3.805-3.205 0.097 0.069 0.194 0.139 0.291 0.208-1.31 1.099-2.599 2.285-4.097 3.070zM9.441 12.331c0.742-0.676 1.526-1.307 2.218-2.034 0.134 0.092 0.268 0.183 0.402 0.277-0.855 0.613-1.738 1.183-2.62 1.757zM11.099 9.917c-0.24 0.192-0.481 0.385-0.723 0.575 0.2-0.218 0.391-0.443 0.565-0.679 0.052 0.035 0.105 0.069 0.158 0.104zM8.937 8.707c0.005-0.039 0.010-0.078 0.014-0.118 0.024 0.014 0.048 0.026 0.071 0.039-0.028 0.026-0.057 0.053-0.086 0.079zM14.039 19.087c-0.067 0.046-0.133 0.093-0.2 0.14 1.218-1.627 2.708-3.081 3.674-4.882 0 0 0-0 0-0.001 0.287 0.176 0.576 0.348 0.87 0.514-1.085 0.94-1.989 2.061-2.899 3.173-0.488 0.363-0.966 0.729-1.445 1.056zM21.1 23.949c0.002-0.168 0.005-0.336 0.009-0.503 0.318-0.201 0.635-0.406 0.946-0.615-0.302 0.357-0.592 0.725-0.861 1.11-0.032 0.003-0.063 0.005-0.094 0.008zM21.127 22.867c0.001-0.030 0.001-0.061 0.003-0.090 0.775-0.841 1.579-1.66 2.235-2.586-0.011 0.374-0.027 0.749-0.050 1.122-0.691 0.57-1.432 1.072-2.187 1.554zM19.046 15.218c-0.026 0.021-0.051 0.042-0.076 0.063 0.015-0.027 0.028-0.055 0.042-0.081 0.011 0.006 0.022 0.012 0.033 0.018zM21.199 13.721c0.018-0.203 0.029-0.407 0.031-0.612 0.259-0.161 0.523-0.315 0.79-0.463-0.307 0.328-0.582 0.683-0.821 1.075zM20.948 15.189c0.453-0.479 0.96-0.908 1.506-1.286-0.543 0.741-1.001 1.543-1.491 2.322-0.158-0.128-0.354-0.213-0.589-0.239 0.194-0.264 0.387-0.529 0.574-0.798zM21.313 20.045c0.167-0.135 0.337-0.268 0.508-0.4-0.177 0.191-0.352 0.382-0.526 0.576 0.005-0.059 0.012-0.118 0.018-0.176zM23.358 17.855c-0.558 0.457-1.139 0.887-1.712 1.326 0.573-0.774 1.148-1.545 1.675-2.349 0.016 0.341 0.029 0.682 0.037 1.023zM23.278 16.003c-0.542 0.889-1.154 1.731-1.773 2.568 0-0.001 0.001-0.001 0.001-0.003 0.053-0.133 0.079-0.278 0.060-0.429-0.025-0.203-0.051-0.406-0.076-0.608 0.52-0.618 1.125-1.206 1.785-1.589 0.001 0.020 0.003 0.040 0.004 0.060zM21.341 16.76c-0.001-0.003-0.001-0.006-0.004-0.009 0.019-0.021 0.038-0.041 0.057-0.061-0.018 0.023-0.036 0.047-0.053 0.070zM23.14 14.026c-0.304 0.374-0.619 0.737-0.942 1.093 0.287-0.451 0.588-0.891 0.926-1.305 0.005 0.071 0.011 0.142 0.016 0.212zM23.054 12.964c-0.477 0.269-0.933 0.571-1.361 0.905-0.003-0.009-0.007-0.016-0.009-0.024 0.365-0.566 0.819-1.044 1.319-1.486 0.017 0.202 0.034 0.404 0.052 0.606zM23.376 18.692c0 0.097 0 0.194 0 0.29-0.603 0.583-1.226 1.147-1.856 1.7 0.599-0.679 1.234-1.329 1.856-1.991zM22.676 15.762c0.188-0.267 0.367-0.539 0.533-0.819 0.011 0.158 0.022 0.317 0.033 0.475-0.194 0.1-0.382 0.216-0.565 0.344zM22.94 11.622c-0.093 0.047-0.185 0.095-0.278 0.143 0.092-0.074 0.182-0.15 0.271-0.225 0.002 0.028 0.005 0.055 0.007 0.083zM22.817 10.135c-0.394 0.222-0.791 0.439-1.191 0.65 0.389-0.387 0.774-0.776 1.151-1.175 0.013 0.175 0.027 0.35 0.040 0.524zM21.364 9.214c0.213-0.218 0.452-0.481 0.716-0.712 0.206-0.013 0.412-0.017 0.619-0.019 0.001 0.007 0.001 0.014 0.001 0.020-0.495 0.34-1 0.665-1.517 0.968 0.003-0.026 0.008-0.052 0.012-0.078 0.056-0.059 0.111-0.121 0.168-0.179zM22.483 9.225c-0.443 0.473-0.901 0.932-1.362 1.389-0.004-0.187 0-0.372 0.009-0.557 0.461-0.26 0.911-0.541 1.353-0.832zM21.163 11.561c0.573-0.286 1.138-0.588 1.696-0.9 0.008 0.099 0.017 0.197 0.025 0.295-0.523 0.481-1.106 0.908-1.676 1.346-0.012-0.247-0.028-0.495-0.045-0.741zM18.069 15.804c-0.308 0.404-0.66 0.78-1.019 1.152-0.041 0.025-0.083 0.050-0.125 0.075 0.366-0.423 0.746-0.835 1.144-1.227zM19.532 15.441c0.175 0.050 0.356 0.062 0.53 0.038-0.132 0.168-0.257 0.342-0.375 0.52-0.365 0.035-0.718 0.111-1.060 0.22 0.293-0.27 0.594-0.53 0.905-0.779zM21.185 21.606c0.524-0.45 1.044-0.906 1.555-1.371-0.482 0.638-1.030 1.23-1.579 1.82 0.007-0.15 0.016-0.3 0.024-0.449zM23.127 23.258c-0.203 0.187-0.414 0.368-0.629 0.542-0.222 0.023-0.444 0.049-0.666 0.074 0.434-0.58 0.915-1.123 1.411-1.656-0.032 0.347-0.071 0.694-0.117 1.040z"></path>
</svg>
<svg id="icon-random" width="32" height="32" viewBox="0 0 32 32" x="128" y="0">
<path fill="#444444" d="M26.017 14.669c-0.115-1.030-0.376-2.169-1.040-2.984-0.75-1.823-2.092-3.296-3.733-4.329-0.036-0.083-0.13-0.147-0.229-0.14-3.267-1.943-7.63-2.176-10.888-0-2.425 1.62-3.722 4.349-4.107 7.169-0.403 2.952 0.526 5.888 2.388 8.179 3.16 3.885 9.097 5.053 13.265 2.131 2.102-1.474 3.409-3.875 4.045-6.319 0.313-1.199 0.438-2.474 0.299-3.707zM16.013 24.233c0.13-0.099 0.258-0.201 0.382-0.308-0.088 0.102-0.174 0.207-0.259 0.313-0.041-0.001-0.082-0.003-0.124-0.005zM15.113 24.144c0.14-0.115 0.278-0.23 0.414-0.348-0.101 0.119-0.201 0.242-0.299 0.365-0.039-0.005-0.077-0.011-0.116-0.017zM12.287 23.131c0.619-0.589 1.153-1.289 1.773-1.871 0.744-0.701 1.548-1.335 2.377-1.932-0.306 0.063-0.61 0.092-0.9 0.065-0.078 0.111-0.204 0.194-0.379 0.209-0.032 0.002-0.061 0.011-0.091 0.015-0.044 0.026-0.093 0.048-0.153 0.060-0.242 0.051-0.41 0.056-0.608-0.109-0.018-0.014-0.033-0.030-0.048-0.045-0.075-0.006-0.148-0.012-0.222-0.015-0.031-0.002-0.056-0.008-0.083-0.014-0.211 0.182-0.42 0.365-0.626 0.553-0.531 0.487-1.037 1.001-1.532 1.524-0.222 0.235-0.439 0.496-0.665 0.748-0.105-0.087-0.208-0.177-0.308-0.268 0.965-0.892 1.903-1.809 2.872-2.695-0.115-0.125-0.155-0.308-0.114-0.471-0.009-0.010-0.016-0.021-0.024-0.030-0.208 0.172-0.416 0.344-0.621 0.52 0.194-0.19 0.388-0.381 0.581-0.572-0.020-0.027-0.038-0.057-0.054-0.088-0.057-0.103-0.088-0.202-0.097-0.298-0.881 0.863-1.765 1.728-2.768 2.406 0.798-0.919 1.773-1.68 2.768-2.406-0.065-0.634 0.792-1.104 1.302-1.276 0.319-0.107 0.637-0.182 0.957-0.24 1.095-0.88 2.199-1.75 3.317-2.603-0.052-0.288-0.154-0.563-0.331-0.794-1.256 1.191-2.52 2.376-3.896 3.418-1.679 1.27-3.548 2.427-4.836 4.121-0.098-0.122-0.192-0.247-0.282-0.374 1.907-1.114 3.368-2.837 5.078-4.212 1.277-1.027 2.549-2.065 3.869-3.035-0.044-0.049-0.089-0.097-0.141-0.14-0.058-0.050-0.12-0.096-0.183-0.138-1.111 0.821-2.19 1.688-3.267 2.554-1.526 1.228-2.908 2.738-4.502 3.906 0.311-0.322 0.625-0.639 0.946-0.949 0.135-0.121 0.268-0.246 0.398-0.374 1.995-1.864 4.175-3.525 6.358-5.177-0.133-0.082-0.276-0.149-0.426-0.2-1.157 0.875-2.311 1.754-3.436 2.665 0.952-0.932 2.097-1.719 3.163-2.504 0.080-0.059 0.16-0.116 0.24-0.173-0.34-0.112-0.711-0.152-1.087-0.142-2.664 2.139-5.224 4.406-7.621 6.842-0.012 0.011-0.018 0.024-0.026 0.036-0.11-0.21-0.21-0.425-0.3-0.645 1.641-0.848 2.956-2.347 4.266-3.631-0.263 0.009-0.52-0.081-0.757-0.239-0.986 0.751-1.964 1.513-2.906 2.318-0.015 0.004-0.029 0.008-0.043 0.011 0.716-1.001 1.607-1.864 2.543-2.68-0.090-0.098-0.178-0.203-0.257-0.315-1.088 0.944-2.117 1.945-2.904 3.155-0.075 0.115-0.002 0.264 0.117 0.304-0.113 0.1-0.224 0.203-0.335 0.304-0.002-0.005-0.004-0.010-0.004-0.015-0.153-0.516-0.253-1.044-0.307-1.577 1.24-0.54 2.254-1.494 3.257-2.444-0.261-0.447-0.425-0.941-0.437-1.334-0.004-0.116 0.004-0.229 0.016-0.34-0.986 0.808-1.957 1.633-2.854 2.541 0.021-0.278 0.054-0.556 0.101-0.831 0.948-0.679 1.884-1.376 2.819-2.072 0.228-0.86 0.904-1.56 1.7-1.981 0.789-0.416 1.675-0.669 2.575-0.744 0.616-0.513 1.247-1.007 1.908-1.456 0.272 0.055 0.542 0.122 0.807 0.201-0.167 0.1-0.335 0.201-0.501 0.304-0.534 0.303-1.066 0.612-1.593 0.927 0.28 0.003 0.558 0.023 0.835 0.061 0.372-0.246 0.746-0.487 1.126-0.72 0.23-0.129 0.461-0.258 0.691-0.386 0.095 0.035 0.19 0.072 0.284 0.11-0.576 0.355-1.155 0.706-1.733 1.057 0.344 0.068 0.68 0.167 1.004 0.294 0.495-0.332 0.988-0.664 1.475-1.007 0.229 0.119 0.453 0.249 0.669 0.388-0.080 0.058-0.16 0.116-0.24 0.174-0.392 0.27-0.791 0.53-1.195 0.785 0.339 0.194 0.66 0.426 0.952 0.699 0.421-0.316 0.844-0.629 1.267-0.939 0.035-0.025 0.057-0.055 0.073-0.087 0.133 0.113 0.263 0.231 0.388 0.352-0.056-0.025-0.121-0.029-0.182 0.002-0.48 0.244-0.958 0.505-1.433 0.779 0.070 0.070 0.139 0.141 0.207 0.216 0.085 0.095 0.165 0.196 0.244 0.301 0.415-0.32 0.827-0.642 1.237-0.967 0.075-0.059 0.085-0.135 0.057-0.202 0.132 0.134 0.258 0.273 0.379 0.417-0.192 0.092-0.49 0.261-0.901 0.505-0.222 0.132-0.44 0.27-0.659 0.407 0.104 0.154 0.201 0.317 0.288 0.487 0.207-0.19 0.416-0.378 0.626-0.564 0.359-0.317 0.61-0.55 0.754-0.702 0.107 0.135 0.209 0.274 0.307 0.417-0.018 0.006-0.036 0.013-0.054 0.026-0.163 0.108-0.322 0.222-0.478 0.338-0.345 0.245-0.688 0.496-1.030 0.745 0.073 0.162 0.139 0.329 0.196 0.499 0.34-0.314 0.691-0.616 1.063-0.893 0.154-0.109 0.307-0.218 0.461-0.326 0.023-0.016 0.041-0.035 0.055-0.055 0.055 0.094 0.109 0.189 0.161 0.286-0.313 0.202-0.689 0.463-1.058 0.737-0.206 0.152-0.413 0.304-0.619 0.456 0.068 0.24 0.122 0.485 0.155 0.73 0.246-0.278 0.429-0.617 0.718-0.856 0.372-0.308 0.664-0.558 0.892-0.759 0.015 0.092 0.043 0.182 0.083 0.268-0.028 0.010-0.056 0.028-0.081 0.055-0.47 0.489-0.942 0.973-1.418 1.451-0.054 0.048-0.109 0.094-0.163 0.141 0.015 0.21 0.015 0.419 0.001 0.625 0.185-0.184 0.37-0.369 0.554-0.556 0.468-0.424 0.913-0.874 1.323-1.364 0.004-0.004 0.006-0.009 0.010-0.013 0.031 0.091 0.060 0.183 0.088 0.277 0.024 0.081 0.054 0.154 0.089 0.221-0.166 0.109-0.375 0.266-0.623 0.479-0.492 0.422-0.983 0.846-1.476 1.267-0.152 0.972-0.687 1.825-1.753 2.245-0.117 0.046-0.237 0.085-0.357 0.12-0.536 0.481-1.1 0.928-1.693 1.351-0.139 0.098-0.279 0.197-0.421 0.295-0.055 0.090-0.144 0.163-0.277 0.198-0.004 0.002-0.008 0.002-0.012 0.003-1.453 1.010-2.964 2.070-3.779 3.667-0.087 0.171 0.103 0.421 0.288 0.288 0.118-0.086 0.234-0.175 0.35-0.263-0.159 0.197-0.306 0.402-0.44 0.614-0.293-0.129-0.579-0.274-0.856-0.436zM11.513 22.621c0.107-0.089 0.215-0.175 0.321-0.265-0.069 0.117-0.131 0.238-0.19 0.36-0.044-0.031-0.087-0.063-0.131-0.095zM12.111 22.736c0.412-0.738 1.055-1.348 1.687-1.898 0.448-0.39 0.921-0.75 1.402-1.1-0.365 0.289-0.725 0.586-1.074 0.894-0.72 0.632-1.32 1.437-2.015 2.104zM10.285 21.518c0.411-0.241 0.799-0.516 1.17-0.812-0.34 0.323-0.671 0.656-0.996 0.996-0.059-0.061-0.118-0.122-0.175-0.184zM9.133 19.95c0.018 0 0.037 0 0.056-0.006 0.182-0.048 0.358-0.11 0.531-0.181-0.142 0.153-0.28 0.31-0.419 0.466-0.058-0.093-0.114-0.186-0.168-0.28zM10.079 19.095c0.87-0.858 1.759-1.697 2.666-2.515-0.29 0.322-0.579 0.644-0.879 0.954-0.53 0.549-1.115 1.144-1.787 1.561zM8.685 18.504c0.26-0.238 0.524-0.471 0.792-0.701 0.195-0.064 0.382-0.151 0.564-0.253-0.427 0.359-0.874 0.686-1.355 0.955zM8.027 15.751c0.239-0.091 0.467-0.199 0.687-0.322-0.227 0.214-0.453 0.429-0.678 0.644-0.004-0.107-0.009-0.214-0.009-0.322zM8.895 14.812c0.579-0.551 1.182-1.076 1.795-1.588-0.034 0.033-0.068 0.066-0.102 0.099-0.527 0.514-1.075 1.061-1.693 1.489zM8.909 11.824c1.253-0.428 2.296-1.369 3.431-2.028 0.674-0.392 1.336-0.803 2.004-1.203-0.84 0.668-1.671 1.348-2.524 2.001-1.175 0.9-2.406 1.735-3.476 2.755 0.141-0.524 0.332-1.034 0.565-1.525zM16.434 7.843c-0.915 0.556-1.806 1.148-2.683 1.762 0.756-0.608 1.512-1.218 2.289-1.8 0.131 0.010 0.264 0.023 0.394 0.038zM14.86 7.796c-0.58 0.333-1.151 0.682-1.722 1.030 0.359-0.334 0.716-0.672 1.101-0.968 0.205-0.028 0.413-0.050 0.621-0.062zM20.594 9.443c0.055 0.040 0.11 0.081 0.164 0.122-0.502 0.273-1.001 0.552-1.496 0.836 0.325-0.234 0.649-0.47 0.973-0.705 0.12-0.083 0.24-0.168 0.359-0.253zM23.843 14.313c0.032 0.146 0.060 0.293 0.083 0.44 0.003 0.015 0.003 0.029 0.006 0.044-0.152 0.102-0.371 0.275-0.661 0.525-0.423 0.368-0.85 0.732-1.278 1.093 0.655-0.673 1.274-1.375 1.849-2.102zM17.173 19.948c-0.060 0.042-0.12 0.085-0.18 0.128 1.824-1.668 3.598-3.399 5.568-4.888-1.598 1.787-3.447 3.375-5.388 4.76zM23.678 13.712c0.017 0.049 0.032 0.098 0.047 0.147-0.019 0.006-0.039 0.015-0.060 0.028-0.663 0.439-1.299 0.912-1.918 1.404 0.406-0.417 0.822-0.827 1.263-1.215 0.227-0.2 0.401-0.372 0.528-0.514 0.039 0.037 0.082 0.068 0.125 0.097 0.006 0.018 0.011 0.037 0.015 0.052zM14.239 23.957c-0.071-0.020-0.141-0.040-0.211-0.062 0.279-0.292 0.545-0.597 0.816-0.887-0.028-0.015-0.056-0.029-0.084-0.046-0.095-0.058-0.176-0.121-0.245-0.189-0.298 0.33-0.598 0.668-0.913 0.978-0.023-0.009-0.047-0.017-0.069-0.025 0.246-0.386 0.539-0.745 0.868-1.082-0.166-0.22-0.219-0.471-0.183-0.715-0.087 0.071-0.173 0.143-0.262 0.212 0.093-0.116 0.189-0.228 0.289-0.339 0.111-0.397 0.459-0.757 0.944-0.904 0.006-0.001 0.010-0.002 0.015-0.004 0.488-0.406 1.010-0.78 1.533-1.142-0.391 0.357-0.786 0.71-1.185 1.059 0.491-0.095 1.007-0.1 1.499-0.049 0.217 0.022 0.493 0.034 0.744 0.092 1.967-1.7 4.119-3.229 5.775-5.236 0.168-0.204 0.301-0.374 0.4-0.512 0.015 0.175 0.022 0.352 0.021 0.53-1.664 1.424-3.304 2.883-4.947 4.33-0.352 0.31-0.698 0.629-1.040 0.952 0.057 0.023 0.111 0.047 0.16 0.078 0.085 0.038 0.149 0.101 0.193 0.175 0.204-0.194 0.41-0.386 0.616-0.577 1.444-1.328 2.935-2.622 4.427-3.903-1.305 1.839-3.212 3.133-5.022 4.525 0.025 0.052 0.043 0.107 0.049 0.164 0.082 0.137 0.132 0.274 0.154 0.409 0.029-0.026 0.057-0.054 0.086-0.080 0.895-0.795 1.822-1.56 2.777-2.286-0.924 0.826-1.912 1.587-2.86 2.388 0.033 0.234-0.018 0.459-0.143 0.657 0.294-0.257 0.593-0.509 0.896-0.757-0.319 0.281-0.637 0.563-0.957 0.843-0.099 0.13-0.23 0.244-0.389 0.34-0.106 0.093-0.212 0.186-0.319 0.278 0.085-0.082 0.173-0.162 0.259-0.242-0.095 0.052-0.197 0.098-0.308 0.135-0.597 0.203-1.397 0.305-2.093 0.174-0.172 0.151-0.346 0.302-0.521 0.449 0.126-0.162 0.258-0.32 0.391-0.476-0.15-0.036-0.292-0.083-0.427-0.144-0.241 0.289-0.47 0.588-0.69 0.897-0.015-0.004-0.030-0.008-0.044-0.011zM23.090 19.57c-0.503 0.385-0.977 0.805-1.439 1.242 0.502-0.555 1.007-1.103 1.583-1.579-0.046 0.113-0.094 0.225-0.144 0.337zM23.503 18.497c-0.588 0.355-1.149 0.745-1.692 1.157 0.575-0.515 1.124-1.057 1.618-1.654 0.128-0.155 0.232-0.284 0.317-0.393-0.069 0.301-0.15 0.598-0.244 0.89zM21.352 20.541c-0.321 0.353-0.643 0.708-0.985 1.046-0.88 0.87-1.821 1.674-2.7 2.541-0.192 0.033-0.384 0.058-0.578 0.077 1.449-1.188 2.807-2.489 4.263-3.664zM18.448 23.948c0.385-0.365 0.777-0.724 1.168-1.083-0.304 0.336-0.611 0.682-0.931 1.011-0.078 0.025-0.157 0.050-0.236 0.072zM19.592 23.511c0.134-0.147 0.268-0.294 0.401-0.438 0.556-0.603 1.13-1.214 1.735-1.792-0.663 0.695-1.315 1.4-1.939 2.13-0.065 0.034-0.131 0.067-0.197 0.099zM23.858 17.045c-0.013 0.074-0.026 0.147-0.040 0.221-0.131 0.067-0.342 0.201-0.643 0.403-0.008 0.006-0.017 0.012-0.025 0.018 0.273-0.315 0.528-0.648 0.762-0.999-0.016 0.12-0.034 0.24-0.054 0.357zM13.412 8.019c-0.313 0.281-0.616 0.575-0.925 0.859-0.927 0.854-2.058 1.519-3.161 2.164 0.073-0.122 0.148-0.242 0.228-0.361 0.948-1.412 2.329-2.276 3.858-2.662z"></path>
<path fill="#444444" d="M16.483 18.311c0.392-0.098 0.635 0.259 0.593 0.567 0.003-0.002 0.005-0.003 0.008-0.005 0.66-0.453 1.299-0.934 1.928-1.43-0.549 0.143-1.112 0.185-1.677 0.224-0.279 0.22-0.564 0.433-0.853 0.644z"></path>
<path fill="#444444" d="M16.999 17.69c-0.448 0.155-0.885 0.327-1.272 0.582 0.015-0.003 0.031-0.005 0.046-0.007 0.189-0.035 0.339 0.017 0.444 0.111 0.031-0.007 0.063-0.016 0.094-0.024 0.261-0.225 0.522-0.447 0.784-0.67-0.033 0.002-0.064 0.004-0.096 0.007z"></path>
<path fill="#444444" d="M16.873 16.733c0.009-0.007 0.018-0.015 0.026-0.022 0.686-0.524 1.378-1.040 2.071-1.553 0.004-0.026 0.007-0.051 0.009-0.077 0.014-0.245 0.009-0.501-0.033-0.748-0.749 0.728-1.52 1.415-2.336 2.074-0.185 0.141-0.367 0.285-0.55 0.428 0.251-0.034 0.503-0.060 0.758-0.082 0.018-0.006 0.036-0.013 0.054-0.019z"></path>
<path fill="#444444" d="M13.386 14.616c0.043 0.075 0.060 0.162 0.059 0.248 0.82-0.753 1.715-1.436 2.653-2.070-0.391 0.054-0.77 0.151-1.101 0.268-0.48 0.168-2.038 0.803-1.611 1.554z"></path>
</svg>
<svg id="icon-voltar" width="32" height="32" viewBox="0 0 32 32" x="192" y="0">
<path fill="#444444" d="M25.489 10.238c-0.028-0.806-0.086-1.613-0.134-2.419-0.041-0.671-0.057-1.498-0.727-1.868-0.343-0.19-0.805-0.209-1.159-0.019-0.205-0.009-0.425 0.044-0.648 0.184-3.686 2.306-7.727 3.985-11.464 6.21-0.998 0.594-1.986 1.202-2.994 1.78-0.801 0.46-1.852 0.937-1.917 1.991-0.057 0.933 0.745 1.729 1.44 2.23 0.898 0.648 1.921 1.143 2.863 1.726 2.158 1.334 4.342 2.621 6.563 3.844 0.912 0.502 1.845 0.966 2.757 1.468 0.812 0.447 1.618 0.859 2.556 0.931 1.95 0.15 2.413-2.197 2.56-3.634 0.186-1.819 0.278-3.7 0.329-5.526 0.062-2.292 0.058-4.606-0.025-6.898zM22.889 22.532c-0.384 0.204-0.754 0.437-1.115 0.682 0.365-0.51 0.762-0.998 1.149-1.493-0.003 0.272-0.012 0.543-0.034 0.81zM20.467 22.9c0.783-0.481 1.522-1.034 2.219-1.635-0.515 0.665-1.056 1.312-1.527 2.009-0.229-0.126-0.46-0.251-0.692-0.374zM18.764 21.998c1.349-1.257 2.744-2.538 4.306-3.533-1.225 1.271-2.481 2.516-3.474 3.975-0.278-0.146-0.555-0.293-0.832-0.442zM14.158 19.362c1.474-1.233 3.195-2.096 4.857-3.044 0.046-0.026 0.090-0.056 0.136-0.083-1.477 1.129-2.946 2.266-4.296 3.544-0.233-0.138-0.464-0.278-0.697-0.417zM23.124 17.876c-0.047 0.028-0.095 0.056-0.142 0.085 0.048-0.053 0.096-0.106 0.144-0.16-0.001 0.025-0.002 0.050-0.003 0.075zM23.122 11.065c0.008 0.161 0.015 0.323 0.021 0.484-0.42 0.109-0.819 0.272-1.2 0.476 0.398-0.313 0.791-0.634 1.179-0.961zM23.166 12.588c0 0.1 0 0.201 0.001 0.3-0.342 0.219-0.678 0.448-1.008 0.683 0.359-0.354 0.695-0.732 1.006-1.14 0 0.052 0.001 0.105 0.001 0.157zM23.172 14.306c-1.377 0.778-2.568 1.892-3.867 2.782-0.875 0.6-1.774 1.167-2.67 1.737 2.125-1.789 4.428-3.368 6.534-5.183 0.002 0.221 0.002 0.443 0.003 0.664zM23.173 15.121c0 0.173 0 0.347-0.002 0.52-0.475 0.169-0.938 0.367-1.394 0.589 0.478-0.355 0.946-0.722 1.396-1.108zM23.163 16.503c-0.502 0.367-1.006 0.731-1.51 1.094 0.52-0.406 1.027-0.825 1.512-1.271-0 0.059-0.001 0.118-0.002 0.177zM23.086 10.318c-0.424 0.245-0.817 0.534-1.192 0.846 0.429-0.472 0.819-0.986 1.16-1.552 0.008 0.235 0.020 0.471 0.032 0.707zM19.816 13.055c-0.924 0.684-1.858 1.357-2.78 2.043-0.855 0.61-1.708 1.221-2.577 1.807 1.732-1.53 3.816-2.674 5.634-4.096-0.092 0.083-0.183 0.165-0.277 0.246zM13.348 18.689c0.396-0.366 0.803-0.721 1.217-1.067 1.27-0.959 2.71-1.677 4.046-2.556 1.384-0.91 2.599-2.304 4.169-2.907-2.31 3.058-6.232 4.397-9.033 6.933-0.005 0.004-0.009 0.010-0.014 0.015-0.199-0.119-0.398-0.238-0.594-0.358 0.068 0.016 0.143 0.002 0.21-0.060zM17.445 18.862c-0.553 0.468-1.078 0.968-1.562 1.516-0.138-0.080-0.277-0.16-0.415-0.241 0.654-0.432 1.316-0.853 1.977-1.274zM22.206 16.544c-1.761 1.491-3.743 2.726-5.336 4.402-0.171-0.097-0.342-0.194-0.512-0.292 1.767-1.55 3.699-3.111 5.848-4.11zM23.067 17.154c-1.411 1.689-3.166 3.075-4.745 4.605-0.032-0.017-0.065-0.034-0.096-0.052-0.263-0.145-0.523-0.294-0.785-0.441 1.846-1.411 3.747-2.747 5.625-4.113zM22.967 20.104c-0.010 0.095-0.017 0.193-0.023 0.293-0.883 0.826-1.843 1.57-2.879 2.191 0.866-1.247 1.928-2.336 2.986-3.427-0.024 0.314-0.052 0.629-0.085 0.943zM23.032 8.745c0 0.012 0.001 0.024 0.001 0.035 0 0.109 0.004 0.218 0.005 0.327-0.061-0.027-0.134-0.030-0.204 0.012-1.996 1.174-3.706 2.75-5.559 4.125-0.97 0.72-1.963 1.416-2.917 2.158 2.185-2.008 4.969-3.429 6.93-5.687 0.369-0.196 0.734-0.393 1.099-0.597 0.216-0.121 0.43-0.247 0.644-0.372zM16.509 13.023c0.454-0.414 0.909-0.829 1.364-1.241 0.106-0.096 0.082-0.233 0.002-0.32 0.376-0.191 0.752-0.38 1.128-0.57-0.821 0.722-1.642 1.446-2.494 2.131zM15.109 12.921c-0.322 0.283-0.635 0.573-0.953 0.845-0.726 0.623-1.523 1.149-2.308 1.69 0.468-0.497 0.94-0.988 1.407-1.485 0.615-0.356 1.233-0.707 1.854-1.051zM9.92 16.356c-0.048 0.159 0.081 0.284 0.22 0.292-0.065 0.076-0.129 0.153-0.193 0.23-0.272-0.161-0.533-0.332-0.775-0.522 0.318-0.189 0.642-0.37 0.964-0.554-0.083 0.177-0.157 0.36-0.215 0.554zM14.106 14.411c0.779-0.584 1.464-1.337 2.264-1.897-1.081 0.986-2.162 1.974-3.262 2.937-0.827 0.572-1.628 1.174-2.343 1.886-0.118-0.064-0.238-0.129-0.355-0.194 1.145-1.025 2.469-1.812 3.697-2.733zM11.27 17.616c0.538-0.436 1.068-0.88 1.591-1.332-0.338 0.397-0.651 0.82-0.929 1.278-0.14 0.229 0.184 0.48 0.37 0.286 1.546-1.617 3.411-2.888 5.213-4.198 1.576-1.145 3.025-2.455 4.64-3.543-2.473 3.331-6.834 4.7-9.453 7.933-0.157 0.192 0.032 0.502 0.269 0.379-0.045 0.089-0.021 0.183 0.036 0.249-0.446-0.272-0.891-0.543-1.335-0.818-0.13-0.080-0.264-0.158-0.401-0.234zM22.545 23.899c-0.045-0.005-0.139-0.018-0.302-0.071-0.112-0.037-0.223-0.086-0.334-0.141 0.293-0.203 0.592-0.399 0.899-0.578-0.055 0.279-0.139 0.544-0.264 0.79z"></path>
</svg>
<svg id="icon-voltar-td" width="32" height="32" viewBox="0 0 32 32" x="256" y="0">
<path fill="#444444" d="M25.541 7.25c-0.071-0.95-0.94-1.433-1.792-1.035-2.385 1.114-4.416 2.816-6.542 4.339-0.902 0.646-1.79 1.313-2.696 1.95-0.488 0.341-1.018 0.699-1.588 0.92 0.298-2.163 0.399-4.346 0.402-6.53 0.002-0.673-0.532-1.161-1.181-1.199-1.394-0.080-2.755 0.316-4.149 0.237-0.498-0.028-1.063 0.376-1.157 0.876-1.117 5.914-0.076 11.917 0.195 17.857 0.029 0.62 0.509 1.231 1.181 1.198 1.535-0.073 3.447 0.205 4.422-1.284 0.982-1.501 0.523-3.288 0.489-4.989 3.456 2.085 6.475 4.872 10.157 6.588 0.679 0.316 1.539 0.077 1.743-0.716 0.717-2.776 0.424-5.648 0.507-8.479 0.096-3.263 0.253-6.469 0.010-9.734zM21.202 22.263c0.383-0.323 0.788-0.62 1.189-0.923-0.302 0.368-0.611 0.733-0.896 1.114-0.099-0.063-0.196-0.128-0.293-0.191zM20.031 21.473c0.181-0.198 0.351-0.406 0.517-0.618 0.559-0.537 1.144-1.048 1.744-1.541-0.685 0.769-1.347 1.554-1.858 2.434-0.134-0.092-0.268-0.183-0.402-0.276zM16.855 19.209c1.129-0.953 2.198-1.974 3.279-2.982 0.979-0.913 1.861-2.052 2.979-2.818-0.577 1.143-1.788 2.109-2.626 2.988-1.021 1.071-2.088 2.094-2.99 3.267-0.213-0.153-0.428-0.304-0.642-0.456zM15.381 18.206c1.535-1.46 3.223-2.754 4.679-4.296 1.154-1.221 1.909-2.887 3.242-3.93 0.003 0.104 0.006 0.209 0.007 0.312-0.677 1.666-2.174 3.031-3.284 4.369-1.196 1.441-2.778 2.546-3.875 4.059-0.255-0.174-0.511-0.345-0.769-0.514zM13.771 17.215c0.991-0.92 2.092-1.732 3.133-2.592 1.397-1.153 2.539-2.581 3.899-3.768 0.005-0.003 0.009-0.006 0.014-0.009-1.741 2.535-4.317 4.414-6.013 6.99-0.339-0.214-0.684-0.421-1.033-0.62zM10.933 8.103c-0.003 0.162-0.005 0.322-0.008 0.484-0.039-0.108-0.169-0.181-0.293-0.164-0.65 0.088-1.238 0.455-1.778 0.897 0.005-0.046 0.010-0.093 0.016-0.14 0.282-0.321 0.582-0.63 0.848-0.949 0.405-0.045 0.81-0.095 1.216-0.129zM10.912 21.48c0 0.225-0.006 0.449-0.026 0.672-0.459 0.465-1.035 0.878-1.545 1.272-0.019-0.301-0.040-0.603-0.062-0.905 0.535-0.363 1.067-0.737 1.633-1.039zM10.805 18.973c0 0.106 0.001 0.212 0.004 0.317-0.394 0.255-0.783 0.52-1.17 0.788 0.045-0.050 0.090-0.101 0.137-0.151 0.239-0.261 0.496-0.505 0.762-0.74 0.087-0.073 0.177-0.144 0.267-0.214zM17.947 12.933c0.062-0.043 0.124-0.086 0.186-0.13-0.506 0.512-1.018 1.016-1.565 1.484-0.881 0.755-1.805 1.452-2.672 2.204 0.413-0.536 0.841-1.061 1.28-1.576 0.966-0.609 1.869-1.364 2.772-1.983zM14.050 15.529c-0.342 0.423-0.674 0.853-0.996 1.291-0.105-0.055-0.207-0.112-0.311-0.165 0.364-0.339 0.724-0.684 1.083-1.031 0.075-0.030 0.15-0.062 0.224-0.095zM12.208 16.507c-0.54-0.030-1.065 0.277-1.222 0.857-0.023 0.089-0.041 0.179-0.061 0.268-0.416 0.346-0.844 0.681-1.285 0.998 0.471-1.039 1.434-1.79 2.275-2.607 0.313-0.002 0.617-0.035 0.912-0.094-0.205 0.194-0.412 0.387-0.62 0.578zM8.864 17.404c0.026 0.002 0.052 0 0.079-0.011 0.722-0.279 1.38-0.661 2.015-1.082-0.841 0.788-1.673 1.579-1.964 2.728-0.045-0.545-0.089-1.090-0.129-1.635zM8.735 15.345c0.553-0.596 1.199-1.112 1.742-1.712-0.014 0.078-0.016 0.159-0.005 0.241 0.015 0.125 0.031 0.251 0.047 0.376-0.585 0.398-1.172 0.795-1.781 1.153-0.001-0.019-0.002-0.039-0.003-0.058zM10.878 9.871c-0.751 0.095-1.392 0.549-1.983 1.084 0.681-0.715 1.482-1.351 2.005-2.183 0.011-0.015 0.014-0.031 0.020-0.046-0.010 0.381-0.024 0.763-0.042 1.144zM10.658 10.393c-0.392 0.979-1.225 1.661-1.988 2.397 0.001-0.333 0.006-0.666 0.016-0.998 0.594-0.598 1.239-1.206 1.973-1.399zM8.673 13.387c0.701-0.755 1.573-1.391 2.127-2.254-0.027 0.349-0.061 0.696-0.1 1.043-0.738 0.406-1.368 0.967-2.022 1.496-0.002-0.095-0.004-0.19-0.004-0.285zM10.501 12.852c-0.495 0.7-1.173 1.257-1.794 1.861-0.005-0.15-0.011-0.3-0.015-0.45 0.603-0.472 1.172-0.991 1.809-1.411zM10.653 15.126c0.070 0.232 0.185 0.437 0.347 0.591-0.531 0.366-1.074 0.71-1.654 0.988 0.327-0.592 0.809-1.094 1.307-1.579zM8.787 10.004c0.402-0.367 0.833-0.71 1.302-0.922-0.407 0.496-0.885 0.932-1.338 1.386 0.010-0.155 0.023-0.309 0.036-0.464zM9.877 15.252c-0.419 0.443-0.799 0.914-1.062 1.461-0.018-0.26-0.034-0.519-0.049-0.779 0.378-0.215 0.748-0.443 1.111-0.682zM9.023 19.385c0.069 0.082 0.181 0.122 0.29 0.049 0.498-0.331 0.976-0.687 1.442-1.057-0.109 0.096-0.215 0.202-0.306 0.271-0.508 0.39-0.951 0.854-1.376 1.336-0.016-0.199-0.034-0.399-0.050-0.599zM9.158 20.988c0.558-0.385 1.111-0.774 1.677-1.146 0.009 0.164 0.020 0.327 0.031 0.491-0.465 0.55-1.060 1.038-1.639 1.492-0.022-0.278-0.043-0.558-0.068-0.837zM10.719 23.128c-0.011 0.040-0.040 0.085-0.064 0.122-0.042-0.015-0.092-0.016-0.148 0.005-0.143 0.055-0.282 0.117-0.42 0.182 0.231-0.179 0.466-0.362 0.691-0.553-0.018 0.081-0.036 0.162-0.059 0.244zM23.181 16.393c-1.169 0.98-2.192 2.125-3.284 3.191 1.087-1.177 2.247-2.29 3.303-3.494-0.005 0.101-0.012 0.201-0.019 0.302zM23.326 12.718c-1.309 0.725-2.228 1.974-3.314 2.974-1.067 0.982-2.111 1.989-3.207 2.936 1.119-1.428 2.64-2.577 3.816-3.937 0.89-1.032 1.979-2.127 2.707-3.367 0.005 0.465 0.005 0.93-0.002 1.394zM23.281 14.542c-0.324 0.184-0.633 0.388-0.933 0.606 0.346-0.356 0.68-0.725 0.951-1.129-0.005 0.175-0.011 0.349-0.018 0.523zM17.987 20.015c1.729-1.638 3.229-3.676 5.268-4.918-0.003 0.073-0.006 0.147-0.009 0.22-1.476 1.778-3.222 3.323-4.704 5.097-0.185-0.133-0.37-0.266-0.554-0.399zM22.926 17.234c-0.478 0.529-0.972 1.044-1.448 1.577-0.512 0.575-0.924 1.217-1.385 1.82-0.175 0.171-0.347 0.345-0.517 0.522-0.131-0.093-0.262-0.185-0.393-0.278 1.314-1.14 2.454-2.476 3.742-3.641zM23.129 21.179c-0.001 0.015 0 0.030-0.001 0.045-0.037 0.030-0.073 0.060-0.109 0.090 0.036-0.045 0.074-0.090 0.11-0.135zM23.125 20.126c-0.701 0.651-1.515 1.174-2.248 1.79 0.603-1.026 1.425-1.92 2.234-2.813 0.004 0.342 0.009 0.682 0.014 1.023zM23.115 21.861c-0.018 0.502-0.052 1.002-0.113 1.502-0.276-0.155-0.551-0.315-0.823-0.48 0.305-0.35 0.603-0.709 0.935-1.022zM23.11 18.052c-0.39 0.306-0.777 0.615-1.159 0.929 0.37-0.455 0.767-0.883 1.166-1.31-0.003 0.127-0.005 0.254-0.006 0.381zM23.282 9.406c-1.429 0.982-2.282 2.653-3.369 3.961-1.153 1.388-2.6 2.516-3.972 3.707 1.879-2.382 4.391-4.264 5.883-6.95 0.473-0.33 0.954-0.647 1.447-0.947 0.003 0.076 0.007 0.153 0.010 0.229z"></path>
</svg>
</svg>
