<?xml version="1.0" encoding="utf-8"?>
<!-- Generator: Adobe Illustrator 15.0.0, SVG Export Plug-In . SVG Version: 6.00 Build 0)  -->
<!DOCTYPE svg PUBLIC "-//W3C//DTD SVG 1.1//EN" "http://www.w3.org/Graphics/SVG/1.1/DTD/svg11.dtd">
<svg version="1.1" id="Layer_1" xmlns="http://www.w3.org/2000/svg" xmlns:xlink="http://www.w3.org/1999/xlink" x="0px" y="0px"
	 width="295.701px" height="295.701px" viewBox="0 0 295.701 295.701" enable-background="new 0 0 295.701 295.701"
	 xml:space="preserve">
<path fill="#004D54" d="M262.895,115.559c-12.734-9.187-27.238-16.206-40.61-24.467c-30.578-18.906-61.546-37.159-93.04-54.498
	c-12.949-7.119-26.166-13.701-39.094-20.82C78.634,9.447,67.212,3.604,53.919,2.581C26.277,0.455,19.685,33.739,17.614,54.112
	c-2.638,25.802-3.947,52.459-4.647,78.348c-0.889,32.498-0.833,65.304,0.341,97.796c0.397,11.428,1.226,22.881,1.906,34.296
	c0.574,9.521,0.801,21.252,10.299,26.491c4.628,2.553,10.765,2.949,15.659,0.689c0.587-0.134,1.193-0.265,1.786-0.398
	c1.87-0.051,3.813-0.499,5.815-1.383c2.4-0.775,4.344-1.95,5.879-3.39c51.319-31.594,107.222-55.069,159.033-85.905
	c14.145-8.423,28.166-17.036,42.441-25.25c11.346-6.522,26.267-13.277,27.176-28.24C284.121,133.957,272.753,122.67,262.895,115.559
	z M164.558,95.256c-39.272,17.547-73.248,43.995-108.991,67.605c32.852-25.237,69.629-45.373,101.484-71.99
	C159.557,92.333,162.056,93.781,164.558,95.256z M197.534,115.154c-17.61,8.651-34.557,18.806-50.847,29.893
	c14.643-10.9,28.762-22.502,41.806-35.423C191.516,111.458,194.521,113.311,197.534,115.154z M229.211,133.51
	c-33.976,19.146-63.081,45.964-95.681,67.273c-14.996,9.812-30.237,19.232-45.327,28.892c-8.492,4.37-16.947,8.809-25.318,13.393
	c48.023-43.22,110-69.787,156.969-114.682C222.968,130.081,226.099,131.775,229.211,133.51z M46.766,216.087
	c24.644-19.774,51.363-36.891,77.352-54.886c-3.183,2.38-6.34,4.772-9.471,7.203c-21.543,16.646-43.124,35.882-67.861,48.161
	C46.771,216.409,46.771,216.245,46.766,216.087z M48.072,247.908c-0.05-2.828-0.132-5.656-0.232-8.478
	c27.01-14.801,51.64-33.787,76.877-51.339c23.33-16.214,46.894-32.327,71.013-47.477C148.355,178.785,91.159,204.873,48.072,247.908
	z M47.125,223.777c3.592-1.71,7.117-3.562,10.582-5.531c-3.511,2.526-6.996,5.091-10.481,7.658
	C47.201,225.192,47.163,224.484,47.125,223.777z M111.072,179.595c20.627-16.216,42.182-31.834,64.919-45.242
	c-25.408,19.575-51.925,37.651-78.343,55.86C102.144,186.658,106.616,183.092,111.072,179.595z M46.192,151.08
	c33.363-20.364,64.541-44.646,100.359-60.247c-32.03,25.564-68.335,45.479-100.396,70.93
	C46.154,158.208,46.166,154.646,46.192,151.08z M46.393,136.454c0.026-0.85,0.038-1.702,0.064-2.551
	c23.702-13.717,46.185-29.574,69.92-43.229c-13.348,10.267-27.169,19.977-41.45,28.599C65.475,124.973,55.7,130.399,46.393,136.454z
	 M46.172,176.88c30.54-19.173,59.23-41.348,90.282-59.535c-17.11,13.149-34.108,26.478-51.894,38.609
	c-12.583,8.582-25.905,16.542-38.356,25.553C46.192,179.96,46.185,178.418,46.172,176.88z M178.845,103.814
	c-12.78,5.146-25.08,11.185-37.037,17.863c9.825-7.564,19.698-15.057,29.826-22.181C174.033,100.93,176.434,102.37,178.845,103.814z
	 M118.605,97.465c7.116-5.467,14.092-11.093,20.917-16.786c1.968,1.127,3.92,2.288,5.885,3.426
	C136.208,88.065,127.311,92.578,118.605,97.465z M130.348,75.529c-27.131,13.663-51.981,31.313-77.933,47.057
	c23.741-16.927,49.514-31.2,71.146-50.86C125.828,72.983,128.082,74.257,130.348,75.529z M46.999,118.342
	c0.05-1.206,0.126-2.415,0.183-3.621c8.663-4.404,17.206-9.035,25.655-13.85C64.135,106.587,55.435,112.295,46.999,118.342z
	 M115.303,67.105c-13.146,8.473-26.436,16.757-39.948,24.634c11.978-8.46,23.482-17.512,33.887-27.911
	C111.26,64.914,113.289,66.001,115.303,67.105z M49.872,60.782c4.388-1.474,8.669-3.324,12.862-5.401
	c-4.382,3.41-8.726,6.866-13.024,10.374C49.739,64.097,49.795,62.434,49.872,60.782z M85.375,51.195
	c-8.233,4.843-16.353,9.94-24.806,14.354c6.976-5.543,14.022-10.96,21.12-16.336C82.931,49.872,84.157,50.542,85.375,51.195z
	 M71.193,43.476c-6.213,3.585-12.489,7.002-19.004,9.566c5.387-4.044,10.848-8.035,16.725-10.873
	C69.666,42.608,70.436,43.04,71.193,43.476z M49.639,77.861c14.926-5.866,28.198-14.979,42.119-22.87
	C78.81,65.764,64.11,74.293,49.538,82.988C49.588,81.306,49.613,79.591,49.639,77.861z M48.773,93.788
	c17.383-9.59,34.014-20.538,51.275-30.407c-15.792,14.777-33.812,26.831-52.025,38.644C48.236,99.278,48.495,96.532,48.773,93.788z
	 M176.307,112.057c-39.55,36.592-87.473,62.625-129.85,95.772c-0.114-3.623-0.202-7.25-0.202-10.884c0-0.57-0.013-1.139-0.013-1.706
	C87.837,164.756,128.826,132.166,176.307,112.057z M199.871,160.462c5.347-3.828,10.765-7.566,16.251-11.157
	c-0.19,0.171-0.352,0.333-0.542,0.5C210.401,153.419,205.161,156.968,199.871,160.462z M211.034,123.385
	c-30.679,18.36-60.272,38.682-89.688,58.936c-19.768,13.619-39.077,28.202-59.413,41.002
	c47.696-34.511,97.872-65.633,142.933-103.676c1.459,0.897,2.918,1.775,4.364,2.673
	C209.813,122.688,210.428,123.034,211.034,123.385z M55.043,36.559c0.644,0.074,1.964,0.244,4.293,1.006
	c0.809,0.271,1.617,0.594,2.426,0.935c-3.372,1.986-6.617,4.247-9.831,6.585C52.682,42.103,53.691,39.247,55.043,36.559z
	 M209.378,164.087c3.497-2.905,6.908-5.91,10.179-9.022c4.925-3.416,9.811-6.89,14.622-10.462c0.922,0.935,2.305,1.279,3.705,0.25
	c1.807-1.316,3.183-2.229,4.035-3.405c0.947,0.668,1.855,1.358,2.754,2.064c-6.523,3.867-13.197,7.499-19.719,11.367
	C219.753,157.946,214.568,161.018,209.378,164.087z"/>
</svg>
