<?xml version="1.0" encoding="utf-8"?>
<!-- Generator: Adobe Illustrator 15.0.0, SVG Export Plug-In . SVG Version: 6.00 Build 0)  -->
<!DOCTYPE svg PUBLIC "-//W3C//DTD SVG 1.1//EN" "http://www.w3.org/Graphics/SVG/1.1/DTD/svg11.dtd">
<svg version="1.1" id="Layer_1" xmlns="http://www.w3.org/2000/svg" xmlns:xlink="http://www.w3.org/1999/xlink" x="0px" y="0px"
	 width="295.701px" height="295.701px" viewBox="0 0 295.701 295.701" enable-background="new 0 0 295.701 295.701"
	 xml:space="preserve">
<path d="M223.413,126.641c-8.364-6.034-17.89-10.644-26.673-16.07c-20.084-12.418-40.425-24.407-61.11-35.795
	c-8.505-4.676-17.186-8.999-25.678-13.675c-7.564-4.155-15.066-7.993-23.796-8.665C68,51.039,63.67,72.901,62.31,86.282
	c-1.733,16.947-2.592,34.456-3.052,51.46c-0.584,21.345-0.547,42.893,0.224,64.233c0.261,7.506,0.805,15.029,1.252,22.527
	c0.377,6.253,0.526,13.958,6.764,17.4c3.04,1.676,7.071,1.937,10.285,0.452c0.386-0.087,0.784-0.174,1.173-0.261
	c1.228-0.033,2.505-0.328,3.82-0.908c1.576-0.51,2.853-1.281,3.861-2.227c33.707-20.751,70.424-36.17,104.455-56.424
	c9.29-5.532,18.5-11.189,27.876-16.584c7.452-4.284,17.251-8.721,17.849-18.548C237.355,138.725,229.887,131.312,223.413,126.641z
	 M158.824,113.306c-25.794,11.525-48.11,28.896-71.586,44.404c21.577-16.576,45.733-29.802,66.655-47.284
	C155.539,111.386,157.181,112.337,158.824,113.306z M180.483,126.375c-11.566,5.682-22.697,12.352-33.396,19.634
	c9.617-7.16,18.89-14.78,27.458-23.267C176.531,123.947,178.505,125.164,180.483,126.375z M201.289,138.431
	c-22.315,12.576-41.433,30.19-62.844,44.186c-9.85,6.445-19.86,12.632-29.771,18.977c-5.578,2.87-11.131,5.785-16.629,8.796
	c31.542-28.387,72.249-45.837,103.099-75.324C197.188,136.179,199.245,137.292,201.289,138.431z M81.457,192.669
	c16.186-12.989,33.736-24.231,50.805-36.05c-2.09,1.563-4.164,3.135-6.22,4.732c-14.15,10.932-28.324,23.567-44.572,31.633
	C81.461,192.881,81.461,192.773,81.457,192.669z M82.315,213.57c-0.033-1.858-0.087-3.716-0.153-5.569
	c17.741-9.721,33.918-22.191,50.494-33.72c15.323-10.649,30.8-21.232,46.642-31.183C148.182,168.169,110.615,185.304,82.315,213.57z
	 M81.693,197.72c2.359-1.124,4.674-2.339,6.95-3.633c-2.306,1.659-4.595,3.343-6.884,5.03
	C81.743,198.649,81.718,198.185,81.693,197.72z M123.694,168.7c13.548-10.65,27.706-20.909,42.64-29.715
	c-16.688,12.857-34.105,24.73-51.457,36.69C117.83,173.34,120.767,170.997,123.694,168.7z M81.08,149.972
	c21.913-13.376,42.391-29.324,65.917-39.571c-21.038,16.791-44.883,29.871-65.941,46.587
	C81.055,154.654,81.063,152.313,81.08,149.972z M81.212,140.365c0.017-0.558,0.025-1.118,0.042-1.675
	c15.568-9.01,30.335-19.425,45.924-28.393c-8.767,6.743-17.845,13.121-27.225,18.784C93.745,132.824,87.325,136.388,81.212,140.365z
	 M81.067,166.917c20.059-12.593,38.903-27.157,59.298-39.103c-11.238,8.636-22.402,17.391-34.084,25.359
	c-8.265,5.636-17.015,10.865-25.193,16.783C81.08,168.94,81.075,167.928,81.067,166.917z M168.208,118.927
	c-8.394,3.38-16.472,7.346-24.326,11.732c6.453-4.968,12.938-9.889,19.59-14.568C165.048,117.032,166.624,117.978,168.208,118.927z
	 M128.642,114.757c4.674-3.591,9.256-7.286,13.739-11.025c1.293,0.74,2.575,1.503,3.865,2.25
	C140.204,108.583,134.36,111.547,128.642,114.757z M136.355,100.349c-17.82,8.974-34.142,20.567-51.187,30.908
	c15.593-11.118,32.521-20.493,46.729-33.406C133.386,98.677,134.866,99.513,136.355,100.349z M81.61,128.469
	c0.033-0.792,0.083-1.586,0.12-2.378c5.69-2.893,11.301-5.935,16.85-9.097C92.865,120.748,87.151,124.497,81.61,128.469z
	 M126.473,94.816c-8.634,5.565-17.363,11.006-26.238,16.18c7.867-5.557,15.423-11.502,22.257-18.332
	C123.818,93.377,125.15,94.091,126.473,94.816z M83.497,90.663c2.882-0.968,5.694-2.183,8.448-3.548
	c-2.878,2.24-5.731,4.51-8.555,6.814C83.41,92.84,83.447,91.748,83.497,90.663z M106.816,84.366
	c-5.408,3.181-10.741,6.529-16.293,9.428c4.582-3.641,9.21-7.199,13.872-10.73C105.211,83.497,106.016,83.937,106.816,84.366z
	 M97.501,79.296c-4.081,2.355-8.203,4.599-12.482,6.283c3.538-2.656,7.125-5.277,10.985-7.141
	C96.498,78.726,97.004,79.01,97.501,79.296z M83.344,101.881c9.804-3.853,18.521-9.839,27.665-15.021
	c-8.505,7.075-18.16,12.677-27.731,18.388C83.311,104.143,83.327,103.017,83.344,101.881z M82.776,112.342
	c11.417-6.299,22.34-13.49,33.678-19.972c-10.372,9.706-22.208,17.623-34.171,25.382C82.423,115.947,82.593,114.144,82.776,112.342z
	 M166.541,124.341c-25.977,24.034-57.453,41.132-85.287,62.904c-0.075-2.38-0.133-4.761-0.133-7.149c0-0.374-0.008-0.747-0.008-1.12
	C108.433,158.954,135.355,137.549,166.541,124.341z M182.018,156.134c3.513-2.515,7.071-4.97,10.675-7.328
	c-0.125,0.112-0.232,0.218-0.357,0.328C188.935,151.508,185.493,153.839,182.018,156.134z M189.35,131.781
	c-20.15,12.06-39.587,25.407-58.908,38.71c-12.984,8.945-25.666,18.524-39.023,26.931c31.327-22.667,64.283-43.108,93.88-68.096
	c0.958,0.589,1.916,1.166,2.866,1.756C188.549,131.323,188.952,131.551,189.35,131.781z M86.894,74.753
	c0.423,0.049,1.29,0.16,2.82,0.661c0.531,0.178,1.062,0.39,1.593,0.614c-2.214,1.304-4.346,2.789-6.457,4.325
	C85.343,78.394,86.006,76.518,86.894,74.753z M188.263,158.515c2.297-1.908,4.537-3.882,6.685-5.926
	c3.234-2.244,6.444-4.526,9.604-6.872c0.605,0.614,1.514,0.84,2.434,0.164c1.186-0.865,2.09-1.464,2.65-2.237
	c0.622,0.439,1.219,0.892,1.808,1.356c-4.284,2.54-8.667,4.926-12.951,7.466C195.077,154.481,191.672,156.499,188.263,158.515z"/>
<path d="M500.308-222.036c-0.063-1.347-1.105-2.676-2.568-2.606c-3.337,0.159-7.492-0.444-9.612,2.793
	c-2.136,3.263-1.137,7.147-1.062,10.845c-7.515-4.534-14.076-10.591-22.082-14.321c-1.474-0.688-3.342-0.167-3.789,1.557
	c-1.559,6.035-0.922,12.277-1.101,18.433c-0.208,7.092-0.549,14.063-0.022,21.161c0.153,2.066,2.044,3.115,3.897,2.25
	c5.184-2.422,9.601-6.121,14.224-9.433c1.957-1.404,3.887-2.856,5.86-4.239c1.058-0.742,2.212-1.52,3.448-2.001
	c-0.646,4.702-0.865,9.448-0.873,14.196c-0.006,1.462,1.154,2.523,2.567,2.604c3.032,0.174,5.991-0.688,9.023-0.515
	c1.079,0.061,2.308-0.818,2.513-1.904C503.161-196.073,500.899-209.122,500.308-222.036z M468.483-190.655
	c3.899-3.92,7.684-7.954,11.524-11.932c-2.112,2.682-4.45,5.206-6.259,8.08C471.995-193.222,470.26-191.905,468.483-190.655z
	 M468.397-217.519c-0.966,0.682-1.994,1.304-3.061,1.845c0.017-0.579,0.045-1.156,0.084-1.733c0.414-0.39,0.834-0.775,1.253-1.165
	C467.253-218.23,467.831-217.879,468.397-217.519z M480.114-209.362c-5.672,4.718-10.037,10.729-15.236,15.924
	c0-0.23-0.006-0.461-0.006-0.69c3.855-5.913,10.693-9.723,14.258-15.921C479.456-209.82,479.784-209.59,480.114-209.362z
	 M483.194-207.32c-5.379,5.396-10.526,11.019-15.913,16.407c4.245-6.209,11.321-10.416,13.901-17.722
	C481.847-208.188,482.517-207.75,483.194-207.32z M465.36-208.5c0-0.181,0-0.361,0-0.542c1.043-0.694,2.094-1.378,3.143-2.063
	C467.432-210.263,466.364-209.415,465.36-208.5z M464.921-197.943c3.898-4.276,8.082-8.349,12.771-11.734
	c-3.396,5.272-9.039,8.858-12.81,13.813C464.892-196.558,464.901-197.251,464.921-197.943z M465.001-200.364
	c0.02-0.456,0.038-0.914,0.063-1.37c3.636-2.058,6.629-5.129,9.701-8.018C471.846-206.339,468.021-203.696,465.001-200.364z
	 M465.13-202.949c0.02-0.294,0.038-0.588,0.057-0.882c2.963-3.351,6.805-5.918,10.146-8.929c0.225,0.161,0.448,0.322,0.673,0.483
	C472.454-209.145,469.188-205.39,465.13-202.949z M465.284-205.436c0.006-0.112,0.015-0.224,0.018-0.336
	c0.232-0.113,0.458-0.237,0.682-0.359C465.749-205.902,465.515-205.671,465.284-205.436z M465.333-211.443
	c0.225-0.139,0.446-0.281,0.666-0.426c-0.222,0.202-0.444,0.405-0.664,0.61C465.335-211.321,465.335-211.382,465.333-211.443z
	 M465.315-213.327c-0.003-0.396-0.003-0.792,0-1.186c1.01-0.486,1.992-1.043,2.93-1.657
	C467.36-215.148,466.353-214.213,465.315-213.327z M464.892-192.001c5.149-4.988,9.412-10.846,14.773-15.616
	c-3.262,7.252-11.08,11.456-14.693,18.56C464.935-190.038,464.905-191.02,464.892-192.001z M477.776-211.006
	c-0.553,0.386-1.095,0.785-1.632,1.19c0.398-0.498,0.776-1.013,1.13-1.548C477.44-211.246,477.608-211.126,477.776-211.006z
	 M465.345-206.944c0-0.054,0-0.106,0.003-0.159c2.54-2.519,5.644-4.437,8.218-6.922c0.209,0.149,0.418,0.3,0.628,0.45
	C471.364-211.202,468.581-208.641,465.345-206.944z M466.646-211.121c1.602-1.46,3.297-2.823,4.791-4.392
	c0.289,0.199,0.579,0.396,0.867,0.598C470.458-213.591,468.551-212.36,466.646-211.121z M470.227-216.334
	c-0.519,0.416-1.038,0.831-1.561,1.241c0.433-0.47,0.844-0.957,1.22-1.465C469.999-216.483,470.113-216.409,470.227-216.334z
	 M465.558-218.947c0.011-0.084,0.021-0.169,0.031-0.254c0.052,0.029,0.104,0.056,0.154,0.084
	C465.683-219.06,465.62-219.003,465.558-218.947z M476.577-196.528c-0.145,0.1-0.287,0.201-0.432,0.303
	c2.631-3.515,5.849-6.655,7.935-10.544c0,0,0.001,0,0.001-0.001c0.619,0.38,1.245,0.75,1.878,1.109
	c-2.343,2.031-4.296,4.452-6.262,6.853C478.644-198.026,477.611-197.235,476.577-196.528z M491.826-186.028
	c0.005-0.363,0.011-0.725,0.02-1.087c0.688-0.435,1.371-0.876,2.044-1.327c-0.653,0.771-1.279,1.566-1.859,2.396
	C491.962-186.04,491.895-186.035,491.826-186.028z M491.885-188.364c0.003-0.064,0.003-0.131,0.006-0.195
	c1.673-1.815,3.41-3.585,4.826-5.586c-0.024,0.809-0.059,1.617-0.108,2.424C495.116-190.491,493.517-189.406,491.885-188.364z
	 M487.391-204.886c-0.056,0.045-0.109,0.09-0.163,0.136c0.032-0.058,0.061-0.118,0.091-0.175
	C487.342-204.912,487.366-204.898,487.391-204.886z M492.04-208.118c0.039-0.439,0.063-0.88,0.066-1.322
	c0.561-0.348,1.13-0.681,1.707-1.001C493.151-209.731,492.556-208.965,492.04-208.118z M491.5-204.949
	c0.978-1.036,2.073-1.96,3.253-2.776c-1.172,1.601-2.161,3.332-3.221,5.015c-0.342-0.275-0.764-0.459-1.271-0.515
	C490.681-203.796,491.097-204.367,491.5-204.949z M492.288-194.46c0.361-0.291,0.729-0.578,1.097-0.863
	c-0.382,0.412-0.761,0.826-1.136,1.244C492.26-194.206,492.274-194.333,492.288-194.46z M496.704-199.19
	c-1.205,0.986-2.459,1.916-3.698,2.863c1.237-1.671,2.479-3.337,3.618-5.073C496.658-200.663,496.687-199.927,496.704-199.19z
	 M496.53-203.19c-1.17,1.92-2.492,3.738-3.83,5.546c0-0.002,0.002-0.003,0.002-0.006c0.115-0.288,0.17-0.6,0.129-0.926
	c-0.055-0.438-0.109-0.876-0.164-1.313c1.123-1.334,2.431-2.604,3.855-3.432C496.524-203.276,496.528-203.233,496.53-203.19z
	 M492.347-201.555c-0.002-0.007-0.003-0.014-0.008-0.02c0.041-0.044,0.082-0.088,0.123-0.132
	C492.423-201.657,492.385-201.606,492.347-201.555z M496.233-207.459c-0.656,0.809-1.338,1.591-2.035,2.36
	c0.619-0.974,1.271-1.924,2-2.818C496.209-207.765,496.222-207.612,496.233-207.459z M496.048-209.753
	c-1.029,0.582-2.016,1.233-2.939,1.955c-0.006-0.019-0.015-0.034-0.02-0.053c0.789-1.222,1.77-2.255,2.848-3.21
	C495.974-210.626,496.01-210.189,496.048-209.753z M496.743-197.382c0.001,0.209,0.001,0.418,0.001,0.627
	c-1.302,1.26-2.647,2.477-4.009,3.672C494.029-194.55,495.401-195.954,496.743-197.382z M495.231-203.71
	c0.405-0.576,0.793-1.164,1.15-1.77c0.023,0.342,0.048,0.684,0.07,1.026C496.032-204.237,495.627-203.988,495.231-203.71z
	 M495.801-212.652c-0.201,0.102-0.399,0.205-0.601,0.308c0.199-0.16,0.394-0.323,0.585-0.487
	C495.79-212.771,495.795-212.712,495.801-212.652z M495.536-215.863c-0.852,0.48-1.708,0.949-2.571,1.405
	c0.841-0.835,1.673-1.676,2.485-2.538C495.479-216.618,495.508-216.24,495.536-215.863z M492.397-217.853
	c0.459-0.471,0.977-1.038,1.546-1.537c0.444-0.028,0.89-0.037,1.337-0.042c0.002,0.014,0.003,0.029,0.003,0.043
	c-1.069,0.733-2.159,1.436-3.275,2.091c0.007-0.057,0.017-0.112,0.026-0.168C492.155-217.593,492.274-217.726,492.397-217.853z
	 M494.813-217.829c-0.957,1.022-1.945,2.013-2.941,3c-0.008-0.403,0.001-0.803,0.02-1.203
	C492.888-216.594,493.858-217.199,494.813-217.829z M491.964-212.783c1.238-0.618,2.457-1.271,3.663-1.945
	c0.018,0.213,0.036,0.426,0.054,0.638c-1.129,1.039-2.388,1.961-3.62,2.908C492.034-211.716,491.999-212.25,491.964-212.783z
	 M485.28-203.62c-0.666,0.872-1.426,1.685-2.201,2.487c-0.089,0.054-0.18,0.107-0.27,0.163
	C483.601-201.884,484.421-202.773,485.28-203.62z M488.44-204.403c0.379,0.108,0.77,0.133,1.145,0.083
	c-0.284,0.363-0.555,0.738-0.811,1.123c-0.789,0.076-1.551,0.241-2.289,0.476C487.117-203.304,487.769-203.866,488.44-204.403z
	 M492.012-191.089c1.132-0.973,2.254-1.957,3.357-2.961c-1.042,1.377-2.224,2.656-3.41,3.932
	C491.975-190.442,491.993-190.766,492.012-191.089z M496.206-187.521c-0.439,0.404-0.894,0.795-1.357,1.17
	c-0.479,0.05-0.959,0.105-1.438,0.16c0.938-1.252,1.977-2.426,3.047-3.576C496.389-189.017,496.306-188.268,496.206-187.521z"/>
</svg>
