<?xml version="1.0" encoding="utf-8"?>
<!-- Generator: Adobe Illustrator 15.0.0, SVG Export Plug-In . SVG Version: 6.00 Build 0)  -->
<!DOCTYPE svg PUBLIC "-//W3C//DTD SVG 1.1//EN" "http://www.w3.org/Graphics/SVG/1.1/DTD/svg11.dtd">
<svg version="1.1" id="Layer_1" xmlns="http://www.w3.org/2000/svg" xmlns:xlink="http://www.w3.org/1999/xlink" x="0px" y="0px"
	 width="295.701px" height="295.701px" viewBox="0 0 295.701 295.701" enable-background="new 0 0 295.701 295.701"
	 xml:space="preserve">
<path d="M231.262,67.245c-0.268-5.762-4.73-11.448-10.989-11.15c-14.277,0.68-32.056-1.9-41.127,11.95
	c-9.138,13.96-4.863,30.581-4.542,46.399c-32.152-19.399-60.226-45.315-94.479-61.273c-6.305-2.942-14.298-0.713-16.212,6.659
	c-6.668,25.82-3.944,52.529-4.709,78.867c-0.89,30.345-2.348,60.169-0.096,90.536c0.656,8.842,8.745,13.329,16.675,9.627
	c22.178-10.362,41.076-26.189,60.856-40.357c8.373-6.009,16.629-12.222,25.073-18.138c4.525-3.176,9.464-6.502,14.753-8.562
	c-2.766,20.118-3.702,40.425-3.735,60.739c-0.025,6.255,4.939,10.797,10.985,11.144c12.974,0.743,25.634-2.946,38.607-2.202
	c4.617,0.259,9.874-3.501,10.75-8.147C243.47,178.326,233.793,122.498,231.262,67.245z M95.101,201.507
	c16.684-16.771,32.875-34.032,49.308-51.052c-9.038,11.476-19.041,22.271-26.778,34.568
	C110.125,190.526,102.701,196.158,95.101,201.507z M94.733,86.569c-4.132,2.916-8.532,5.58-13.095,7.893
	c0.071-2.476,0.192-4.945,0.359-7.414c1.771-1.669,3.568-3.317,5.361-4.984C89.836,83.527,92.31,85.027,94.733,86.569z
	 M144.864,121.468c-24.268,20.186-42.944,45.902-65.189,68.131c0-0.986-0.025-1.972-0.025-2.954
	c16.496-25.299,45.752-41.601,61.002-68.118C142.047,119.511,143.452,120.492,144.864,121.468z M158.042,130.205
	c-23.014,23.089-45.038,47.143-68.085,70.198c18.163-26.564,48.438-44.564,59.478-75.822
	C152.276,126.494,155.142,128.368,158.042,130.205z M81.739,125.157c0-0.772,0-1.546,0-2.32c4.462-2.971,8.958-5.896,13.445-8.827
	C90.601,117.613,86.034,121.244,81.739,125.157z M79.858,170.324c16.68-18.296,34.579-35.72,54.643-50.206
	c-14.528,22.559-38.674,37.901-54.806,59.102C79.733,176.254,79.775,173.287,79.858,170.324z M80.201,159.967
	c0.083-1.951,0.163-3.911,0.267-5.862c15.556-8.806,28.362-21.944,41.507-34.304C109.486,134.404,93.125,145.713,80.201,159.967z
	 M80.752,148.907c0.083-1.258,0.163-2.516,0.242-3.775c12.677-14.338,29.114-25.32,43.408-38.202
	c0.961,0.688,1.918,1.377,2.879,2.068C112.089,122.397,98.117,138.465,80.752,148.907z M81.413,138.269
	c0.025-0.479,0.063-0.959,0.075-1.437c0.995-0.485,1.96-1.014,2.917-1.536C83.401,136.273,82.399,137.262,81.413,138.269z
	 M81.622,112.564c0.961-0.596,1.91-1.201,2.85-1.822c-0.948,0.863-1.901,1.732-2.841,2.609
	C81.63,113.089,81.63,112.825,81.622,112.564z M81.546,104.507c-0.013-1.692-0.013-3.387,0-5.075
	c4.32-2.078,8.523-4.462,12.535-7.09C90.296,96.712,85.984,100.713,81.546,104.507z M79.733,195.749
	c22.032-21.343,40.27-46.403,63.209-66.814c-13.956,31.028-47.407,49.016-62.866,79.408
	C79.917,204.147,79.792,199.948,79.733,195.749z M134.861,114.434c-2.365,1.653-4.684,3.357-6.982,5.092
	c1.705-2.129,3.322-4.333,4.834-6.625C133.424,113.408,134.142,113.922,134.861,114.434z M81.672,131.815
	c0-0.229,0-0.455,0.012-0.681c10.868-10.778,24.146-18.984,35.16-29.615c0.894,0.637,1.789,1.284,2.687,1.924
	C107.426,113.597,95.519,124.556,81.672,131.815z M87.237,113.945c6.852-6.247,14.105-12.079,20.499-18.792
	c1.237,0.851,2.478,1.694,3.71,2.558C103.549,103.374,95.389,108.643,87.237,113.945z M102.559,91.64
	c-2.219,1.777-4.442,3.556-6.677,5.311c1.851-2.01,3.61-4.093,5.219-6.27C101.585,91.002,102.074,91.318,102.559,91.64z
	 M82.583,80.461c0.046-0.361,0.088-0.723,0.134-1.089c0.222,0.126,0.443,0.238,0.66,0.361C83.117,79.976,82.85,80.221,82.583,80.461
	z M129.73,176.379c-0.618,0.426-1.229,0.86-1.847,1.295c11.256-15.037,25.023-28.475,33.948-45.112c0,0,0.004-0.002,0.004-0.007
	c2.649,1.626,5.327,3.212,8.035,4.745c-10.024,8.688-18.38,19.049-26.791,29.318C138.571,169.97,134.155,173.354,129.73,176.379z
	 M194.974,221.304c0.021-1.555,0.046-3.101,0.083-4.65c2.941-1.859,5.866-3.748,8.745-5.679c-2.795,3.301-5.474,6.702-7.956,10.254
	C195.554,221.253,195.266,221.274,194.974,221.304z M195.224,211.309c0.013-0.275,0.013-0.56,0.025-0.835
	c7.158-7.768,14.591-15.339,20.649-23.9c-0.104,3.46-0.25,6.92-0.463,10.371C209.05,202.209,202.206,206.851,195.224,211.309z
	 M175.996,140.621c-0.238,0.192-0.468,0.387-0.698,0.583c0.138-0.246,0.259-0.504,0.389-0.748
	C175.787,140.509,175.892,140.567,175.996,140.621z M195.889,126.793c0.167-1.878,0.267-3.765,0.284-5.655
	c2.398-1.489,4.834-2.912,7.304-4.282C200.644,119.891,198.095,123.169,195.889,126.793z M193.578,140.352
	c4.182-4.431,8.87-8.386,13.917-11.879c-5.014,6.849-9.247,14.255-13.78,21.458c-1.462-1.179-3.268-1.964-5.44-2.204
	C190.072,145.284,191.852,142.84,193.578,140.352z M196.95,185.229c1.546-1.245,3.117-2.474,4.692-3.693
	c-1.634,1.763-3.255,3.534-4.859,5.322C196.829,186.314,196.891,185.771,196.95,185.229z M215.844,164.989
	c-5.156,4.22-10.521,8.197-15.823,12.25c5.293-7.148,10.608-14.276,15.48-21.706C215.647,158.688,215.769,161.839,215.844,164.989z
	 M215.1,147.877c-5.005,8.217-10.663,15.992-16.387,23.73c0-0.009,0.008-0.013,0.008-0.025c0.493-1.232,0.727-2.565,0.552-3.961
	c-0.234-1.872-0.468-3.748-0.702-5.615c4.805-5.708,10.4-11.14,16.496-14.683C215.075,147.509,215.092,147.693,215.1,147.877z
	 M197.201,154.873c-0.009-0.029-0.013-0.059-0.034-0.085c0.175-0.19,0.351-0.379,0.526-0.566
	C197.526,154.437,197.363,154.654,197.201,154.873z M213.83,129.609c-2.808,3.46-5.724,6.807-8.708,10.097
	c2.649-4.166,5.436-8.231,8.557-12.059C213.726,128.304,213.78,128.956,213.83,129.609z M213.036,119.795
	c-4.404,2.488-8.624,5.277-12.577,8.362c-0.025-0.079-0.063-0.146-0.083-0.226c3.376-5.227,7.571-9.647,12.184-13.735
	C212.718,116.06,212.873,117.929,213.036,119.795z M216.011,172.727c0.004,0.895,0.004,1.789,0.004,2.683
	c-5.57,5.391-11.327,10.597-17.152,15.711C204.399,184.844,210.27,178.836,216.011,172.727z M209.543,145.649
	c1.734-2.463,3.393-4.978,4.922-7.57c0.101,1.462,0.205,2.927,0.301,4.389C212.969,143.396,211.235,144.463,209.543,145.649z
	 M211.979,107.392c-0.861,0.437-1.709,0.878-2.57,1.318c0.853-0.686,1.684-1.383,2.503-2.083
	C211.933,106.882,211.954,107.137,211.979,107.392z M210.847,93.655c-3.644,2.054-7.308,4.06-11.001,6.011
	c3.598-3.572,7.157-7.17,10.634-10.857C210.6,90.424,210.726,92.041,210.847,93.655z M197.417,85.143
	c1.964-2.017,4.179-4.441,6.614-6.577c1.901-0.119,3.807-0.158,5.72-0.177c0.008,0.061,0.013,0.125,0.013,0.186
	c-4.575,3.138-9.238,6.145-14.014,8.947c0.029-0.242,0.071-0.48,0.113-0.721C196.381,86.252,196.891,85.686,197.417,85.143z
	 M207.755,85.245c-4.095,4.372-8.323,8.613-12.585,12.835c-0.034-1.724,0.004-3.437,0.083-5.146
	C199.515,90.528,203.668,87.938,207.755,85.245z M195.563,106.832c5.298-2.643,10.513-5.437,15.673-8.321
	c0.075,0.911,0.154,1.821,0.229,2.73c-4.83,4.443-10.216,8.39-15.489,12.442C195.863,111.398,195.713,109.113,195.563,106.832z
	 M166.967,146.036c-2.85,3.729-6.101,7.21-9.418,10.643c-0.38,0.229-0.769,0.459-1.153,0.697
	C159.78,153.463,163.29,149.661,166.967,146.036z M180.487,142.688c1.621,0.462,3.292,0.57,4.897,0.353
	c-1.216,1.553-2.373,3.157-3.468,4.806c-3.376,0.323-6.635,1.029-9.794,2.037C174.826,147.39,177.613,144.985,180.487,142.688z
	 M195.767,199.651c4.843-4.161,9.644-8.373,14.365-12.668c-4.458,5.892-9.514,11.364-14.591,16.821
	C195.608,202.418,195.688,201.034,195.767,199.651z M213.713,214.919c-1.88,1.729-3.823,3.401-5.808,5.006
	c-2.052,0.213-4.103,0.451-6.15,0.685c4.011-5.356,8.457-10.378,13.036-15.301C214.494,208.518,214.139,211.723,213.713,214.919z"/>
</svg>
