<?xml version="1.0" encoding="utf-8"?>
<!-- Generator: Adobe Illustrator 15.0.0, SVG Export Plug-In . SVG Version: 6.00 Build 0)  -->
<!DOCTYPE svg PUBLIC "-//W3C//DTD SVG 1.1//EN" "http://www.w3.org/Graphics/SVG/1.1/DTD/svg11.dtd">
<svg version="1.1" id="Layer_1" xmlns="http://www.w3.org/2000/svg" xmlns:xlink="http://www.w3.org/1999/xlink" x="0px" y="0px"
	 width="295.701px" height="295.701px" viewBox="0 0 295.701 295.701" enable-background="new 0 0 295.701 295.701"
	 xml:space="preserve">
<path fill="#004D54" d="M272.535,27.362c-0.401-8.613-7.071-17.113-16.429-16.667c-21.34,1.017-47.916-2.84-61.476,17.863
	c-13.659,20.867-7.269,45.712-6.788,69.356C139.782,68.917,97.816,30.178,46.616,6.324c-9.425-4.397-21.373-1.065-24.233,9.954
	c-9.967,38.595-5.896,78.52-7.039,117.89c-1.331,45.359-3.51,89.94-0.144,135.333c0.981,13.217,13.072,19.923,24.926,14.391
	c33.151-15.49,61.4-39.148,90.967-60.326c12.516-8.982,24.857-18.269,37.479-27.112c6.765-4.748,14.146-9.719,22.053-12.799
	c-4.135,30.072-5.534,60.427-5.584,90.792c-0.036,9.35,7.384,16.14,16.421,16.659c19.393,1.109,38.317-4.404,57.708-3.293
	c6.902,0.388,14.762-5.232,16.069-12.178C290.782,193.405,276.317,109.954,272.535,27.362z M69.002,228.056
	c24.939-25.07,49.141-50.87,73.705-76.312c-13.51,17.153-28.462,33.289-40.028,51.671C91.459,211.642,80.362,220.061,69.002,228.056
	z M68.452,56.247c-6.176,4.359-12.753,8.341-19.574,11.799c0.106-3.701,0.287-7.392,0.537-11.083
	c2.647-2.495,5.333-4.958,8.013-7.45C61.131,51.7,64.83,53.942,68.452,56.247z M143.387,108.414
	c-36.275,30.174-64.192,68.614-97.444,101.841c0-1.473-0.038-2.947-0.038-4.414c24.658-37.816,68.39-62.186,91.186-101.823
	C139.176,105.489,141.276,106.956,143.387,108.414z M163.085,121.475c-34.401,34.513-67.322,70.47-101.772,104.932
	c27.15-39.709,72.405-66.614,88.906-113.339C154.467,115.927,158.75,118.729,163.085,121.475z M49.028,113.929
	c0-1.154,0-2.312,0-3.468c6.67-4.44,13.391-8.813,20.098-13.195C62.275,102.651,55.449,108.08,49.028,113.929z M46.216,181.444
	c24.934-27.349,51.688-53.395,81.68-75.048c-21.716,33.72-57.81,56.653-81.924,88.345C46.03,190.308,46.092,185.873,46.216,181.444z
	 M46.729,165.962c0.124-2.915,0.243-5.847,0.398-8.763c23.253-13.163,42.396-32.801,62.045-51.277
	C90.504,127.75,66.048,144.655,46.729,165.962z M47.553,149.43c0.124-1.88,0.244-3.761,0.362-5.643
	c18.949-21.432,43.519-37.848,64.885-57.104c1.437,1.028,2.867,2.059,4.303,3.091C94.395,109.803,73.51,133.821,47.553,149.43z
	 M48.541,133.528c0.037-0.716,0.094-1.434,0.112-2.148c1.487-0.725,2.93-1.516,4.36-2.296
	C51.512,130.544,50.015,132.022,48.541,133.528z M48.854,95.104c1.437-0.891,2.855-1.795,4.26-2.723
	c-1.417,1.29-2.842,2.589-4.247,3.9C48.865,95.889,48.865,95.495,48.854,95.104z M48.74,83.061c-0.019-2.529-0.019-5.063,0-7.586
	c6.458-3.106,12.74-6.669,18.737-10.599C61.819,71.409,55.374,77.39,48.74,83.061z M46.03,219.449
	c32.934-31.903,60.195-69.362,94.484-99.873c-20.861,46.38-70.863,73.269-93.971,118.697
	C46.305,232.003,46.118,225.726,46.03,219.449z M128.434,97.9c-3.535,2.471-7.001,5.018-10.437,7.611
	c2.549-3.182,4.966-6.477,7.226-9.903C126.286,96.367,127.36,97.134,128.434,97.9z M48.928,123.881c0-0.342,0-0.68,0.019-1.018
	c16.246-16.111,36.093-28.377,52.557-44.268c1.335,0.953,2.673,1.919,4.016,2.876C87.425,96.649,69.626,113.03,48.928,123.881z
	 M57.247,97.168c10.242-9.337,21.084-18.055,30.642-28.09c1.85,1.272,3.704,2.533,5.545,3.824
	C81.629,81.368,69.433,89.244,57.247,97.168z M80.15,63.828c-3.317,2.656-6.64,5.315-9.981,7.939
	c2.767-3.005,5.396-6.119,7.802-9.372C78.694,62.874,79.425,63.346,80.15,63.828z M50.29,47.117c0.068-0.539,0.131-1.081,0.2-1.627
	c0.332,0.188,0.663,0.355,0.987,0.54C51.088,46.393,50.689,46.759,50.29,47.117z M120.765,190.494
	c-0.924,0.639-1.837,1.286-2.761,1.937c16.826-22.478,37.404-42.564,50.746-67.433c0,0,0.006-0.003,0.006-0.01
	c3.959,2.431,7.963,4.801,12.011,7.092c-14.982,12.987-27.476,28.474-40.047,43.825C133.98,180.914,127.379,185.974,120.765,190.494
	z M218.29,257.647c0.032-2.323,0.07-4.635,0.126-6.951c4.396-2.778,8.768-5.601,13.07-8.487
	c-4.178,4.935-8.182,10.018-11.891,15.328C219.157,257.572,218.729,257.604,218.29,257.647z M218.664,242.709
	c0.021-0.412,0.021-0.838,0.038-1.25c10.7-11.611,21.811-22.929,30.865-35.725c-0.155,5.172-0.374,10.344-0.692,15.501
	C239.331,229.105,229.102,236.043,218.664,242.709z M189.923,137.044c-0.356,0.287-0.699,0.578-1.044,0.872
	c0.208-0.368,0.389-0.753,0.581-1.118C189.61,136.876,189.767,136.963,189.923,137.044z M219.659,116.374
	c0.249-2.807,0.397-5.628,0.424-8.453c3.585-2.226,7.226-4.353,10.919-6.401C226.766,106.057,222.956,110.957,219.659,116.374z
	 M216.204,136.642c6.252-6.624,13.259-12.536,20.803-17.757c-7.494,10.238-13.822,21.308-20.598,32.075
	c-2.186-1.762-4.887-2.936-8.133-3.294C210.962,144.015,213.625,140.361,216.204,136.642z M221.245,203.725
	c2.311-1.863,4.659-3.699,7.013-5.521c-2.442,2.636-4.864,5.282-7.263,7.956C221.063,205.345,221.157,204.533,221.245,203.725z
	 M249.488,173.47c-7.708,6.308-15.728,12.253-23.654,18.311c7.912-10.686,15.857-21.34,23.141-32.445
	C249.193,164.051,249.374,168.76,249.488,173.47z M248.376,147.89c-7.482,12.283-15.94,23.905-24.496,35.47
	c0-0.012,0.013-0.019,0.013-0.036c0.736-1.841,1.086-3.835,0.823-5.921c-0.349-2.798-0.697-5.603-1.048-8.394
	c7.182-8.532,15.547-16.651,24.658-21.947C248.338,147.34,248.362,147.615,248.376,147.89z M221.62,158.348
	c-0.014-0.044-0.02-0.089-0.051-0.127c0.261-0.283,0.525-0.566,0.785-0.847C222.106,157.695,221.861,158.02,221.62,158.348z
	 M246.477,120.583c-4.196,5.172-8.556,10.175-13.017,15.093c3.959-6.227,8.125-12.304,12.791-18.026
	C246.32,118.633,246.402,119.607,246.477,120.583z M245.29,105.914c-6.584,3.719-12.892,7.888-18.8,12.5
	c-0.037-0.118-0.096-0.219-0.125-0.338c5.047-7.813,11.316-14.42,18.212-20.531C244.814,100.331,245.046,103.125,245.29,105.914z
	 M249.736,185.036c0.006,1.338,0.006,2.675,0.006,4.011c-8.326,8.058-16.931,15.84-25.639,23.484
	C232.38,203.147,241.156,194.167,249.736,185.036z M240.068,144.56c2.591-3.682,5.072-7.441,7.357-11.315
	c0.15,2.186,0.307,4.375,0.451,6.561C245.19,141.192,242.599,142.787,240.068,144.56z M243.711,87.374
	c-1.288,0.653-2.555,1.313-3.843,1.97c1.276-1.025,2.517-2.067,3.741-3.114C243.641,86.611,243.673,86.993,243.711,87.374z
	 M242.018,66.84c-5.446,3.07-10.924,6.068-16.443,8.985c5.378-5.34,10.697-10.717,15.895-16.229
	C241.649,62.01,241.836,64.427,242.018,66.84z M221.942,54.116c2.936-3.015,6.248-6.638,9.886-9.832
	c2.844-0.177,5.691-0.236,8.551-0.264c0.012,0.091,0.021,0.187,0.021,0.278c-6.84,4.69-13.809,9.185-20.948,13.374
	c0.042-0.362,0.106-0.717,0.168-1.078C220.394,55.773,221.157,54.928,221.942,54.116z M237.396,54.269
	c-6.121,6.535-12.439,12.875-18.812,19.186c-0.052-2.577,0.006-5.138,0.124-7.692C225.078,62.165,231.286,58.294,237.396,54.269z
	 M219.172,86.537c7.918-3.951,15.715-8.127,23.427-12.438c0.113,1.362,0.23,2.722,0.343,4.082
	c-7.219,6.641-15.271,12.541-23.153,18.598C219.619,93.362,219.396,89.946,219.172,86.537z M176.426,145.139
	c-4.26,5.573-9.119,10.777-14.078,15.908c-0.567,0.343-1.148,0.687-1.724,1.042C165.684,156.24,170.93,150.557,176.426,145.139z
	 M196.637,140.134c2.423,0.69,4.919,0.852,7.318,0.527c-1.817,2.321-3.547,4.72-5.184,7.185c-5.046,0.482-9.919,1.538-14.64,3.044
	C188.174,147.163,192.339,143.567,196.637,140.134z M219.476,225.282c7.24-6.221,14.417-12.517,21.473-18.937
	c-6.663,8.807-14.221,16.986-21.81,25.144C219.239,229.417,219.358,227.349,219.476,225.282z M246.302,248.104
	c-2.811,2.584-5.715,5.083-8.682,7.483c-3.068,0.317-6.134,0.674-9.193,1.024c5.997-8.007,12.642-15.515,19.486-22.871
	C247.47,238.536,246.939,243.327,246.302,248.104z"/>
</svg>
