<?xml version="1.0" encoding="utf-8"?>
<!-- Generator: Adobe Illustrator 15.0.0, SVG Export Plug-In . SVG Version: 6.00 Build 0)  -->
<!DOCTYPE svg PUBLIC "-//W3C//DTD SVG 1.1//EN" "http://www.w3.org/Graphics/SVG/1.1/DTD/svg11.dtd">
<svg version="1.1" id="Layer_1" xmlns="http://www.w3.org/2000/svg" xmlns:xlink="http://www.w3.org/1999/xlink" x="0px" y="0px"
	 width="295.701px" height="295.701px" viewBox="0 0 295.701 295.701" enable-background="new 0 0 295.701 295.701"
	 xml:space="preserve">
<g>
	<path fill="#004D54" d="M287.649,129.279c-1.612-14.375-5.249-30.276-14.515-41.641c-10.474-25.44-29.197-46.002-52.103-60.416
		c-0.498-1.157-1.816-2.059-3.2-1.959C172.238-1.851,111.344-5.1,65.882,25.257C32.036,47.863,13.94,85.953,8.563,125.309
		c-5.625,41.202,7.335,82.177,33.326,114.147c44.098,54.225,126.954,70.521,185.131,29.74
		c29.339-20.572,47.568-54.088,56.453-88.188C287.838,164.277,289.586,146.48,287.649,129.279z M148.035,262.749
		c1.816-1.385,3.604-2.813,5.336-4.295c-1.229,1.427-2.423,2.89-3.608,4.361C149.19,262.806,148.612,262.771,148.035,262.749z
		 M135.468,261.506c1.949-1.601,3.881-3.209,5.785-4.855c-1.417,1.668-2.806,3.372-4.168,5.093
		C136.542,261.67,136.011,261.595,135.468,261.506z M96.03,247.372c8.642-8.228,16.098-17.991,24.746-26.118
		c10.385-9.776,21.601-18.634,33.172-26.959c-4.269,0.873-8.51,1.289-12.567,0.901c-1.09,1.544-2.845,2.706-5.292,2.923
		c-0.442,0.034-0.852,0.149-1.267,0.217c-0.613,0.366-1.301,0.664-2.131,0.842c-3.377,0.71-5.724,0.78-8.481-1.516
		c-0.25-0.199-0.466-0.421-0.665-0.632c-1.041-0.09-2.06-0.171-3.094-0.211c-0.426-0.021-0.781-0.11-1.163-0.188
		c-2.939,2.543-5.863,5.095-8.729,7.723c-7.413,6.793-14.472,13.974-21.38,21.274c-3.095,3.276-6.123,6.926-9.279,10.441
		c-1.46-1.218-2.906-2.464-4.301-3.743c13.467-12.455,26.56-25.253,40.078-37.611c-1.61-1.747-2.165-4.301-1.595-6.576
		c-0.126-0.139-0.22-0.286-0.338-0.421c-2.899,2.403-5.801,4.807-8.663,7.252c2.706-2.646,5.408-5.313,8.109-7.976
		c-0.278-0.384-0.525-0.792-0.758-1.225c-0.792-1.439-1.224-2.822-1.356-4.162c-12.29,12.046-24.628,24.113-38.635,33.581
		c11.132-12.821,24.738-23.451,38.635-33.581c-0.914-8.853,11.049-15.4,18.169-17.804c4.451-1.494,8.895-2.547,13.363-3.354
		c15.279-12.283,30.692-24.425,46.291-36.325c-0.726-4.022-2.153-7.861-4.616-11.082c-17.534,16.616-35.165,33.156-54.37,47.708
		c-23.434,17.725-49.518,33.866-67.488,57.512c-1.367-1.699-2.675-3.448-3.941-5.221c26.611-15.543,47.009-39.599,70.875-58.781
		c17.82-14.332,35.568-28.822,53.992-42.354c-0.609-0.687-1.245-1.348-1.964-1.957c-0.814-0.702-1.673-1.336-2.558-1.927
		c-15.508,11.457-30.564,23.553-45.589,35.649c-21.297,17.135-40.583,38.217-62.831,54.515c4.334-4.497,8.723-8.926,13.207-13.243
		c1.888-1.688,3.742-3.432,5.56-5.226c27.839-26.021,58.27-49.192,88.729-72.245c-1.86-1.151-3.86-2.077-5.945-2.795
		c-16.143,12.213-32.253,24.478-47.959,37.192c13.28-13.008,29.269-23.993,44.139-34.945c1.112-0.819,2.226-1.613,3.344-2.414
		c-4.751-1.567-9.926-2.126-15.164-1.988c-37.172,29.85-72.901,61.484-106.359,95.487c-0.167,0.153-0.255,0.336-0.36,0.507
		c-1.528-2.934-2.928-5.934-4.191-9c22.907-11.831,41.248-32.757,59.543-50.677c-3.675,0.128-7.25-1.132-10.561-3.33
		c-13.762,10.474-27.413,21.118-40.55,32.355c-0.205,0.051-0.409,0.118-0.603,0.161c9.998-13.974,22.42-26.021,35.495-37.404
		c-1.262-1.366-2.481-2.839-3.587-4.401c-15.178,13.17-29.55,27.146-40.533,44.037c-1.052,1.609-0.027,3.682,1.638,4.246
		c-1.583,1.399-3.122,2.829-4.677,4.24c-0.029-0.066-0.05-0.133-0.062-0.211c-2.142-7.195-3.531-14.573-4.285-22.013
		c17.305-7.53,31.461-20.854,45.46-34.114c-3.643-6.233-5.93-13.14-6.1-18.612c-0.05-1.614,0.056-3.195,0.22-4.75
		c-13.761,11.281-27.313,22.793-39.825,35.464c0.298-3.883,0.752-7.758,1.407-11.598c13.229-9.477,26.29-19.206,39.348-28.919
		c3.178-11.996,12.611-21.767,23.727-27.642c11.01-5.807,23.382-9.34,35.933-10.389c8.598-7.155,17.4-14.05,26.621-20.323
		c3.8,0.765,7.563,1.706,11.263,2.813c-2.338,1.401-4.674,2.807-6.999,4.247c-7.452,4.234-14.874,8.546-22.23,12.934
		c3.902,0.036,7.793,0.315,11.653,0.85c5.187-3.437,10.414-6.793,15.716-10.045c3.216-1.805,6.433-3.599,9.644-5.392
		c1.328,0.494,2.646,1,3.958,1.536c-8.039,4.96-16.114,9.849-24.187,14.757c4.793,0.955,9.489,2.328,14.006,4.107
		c6.903-4.635,13.796-9.272,20.586-14.052c3.195,1.667,6.316,3.473,9.34,5.416c-1.117,0.804-2.23,1.614-3.354,2.423
		c-5.463,3.771-11.038,7.398-16.672,10.956c4.737,2.71,9.211,5.947,13.28,9.76c5.873-4.409,11.775-8.776,17.687-13.105
		c0.486-0.349,0.803-0.764,1.018-1.21c1.861,1.581,3.665,3.219,5.42,4.916c-0.779-0.346-1.694-0.405-2.547,0.027
		c-6.703,3.4-13.374,7.043-19.999,10.875c0.973,0.974,1.938,1.971,2.885,3.015c1.178,1.323,2.307,2.735,3.403,4.205
		c5.785-4.463,11.543-8.955,17.261-13.492c1.04-0.819,1.185-1.888,0.796-2.816c1.837,1.875,3.599,3.813,5.285,5.822
		c-2.672,1.285-6.84,3.645-12.571,7.051c-3.101,1.844-6.145,3.762-9.201,5.686c1.458,2.151,2.803,4.424,4.021,6.793
		c2.89-2.652,5.803-5.281,8.734-7.875c5.009-4.428,8.52-7.683,10.52-9.803c1.494,1.885,2.92,3.829,4.283,5.82
		c-0.254,0.081-0.508,0.186-0.758,0.357c-2.28,1.505-4.49,3.098-6.67,4.713c-4.823,3.419-9.596,6.917-14.377,10.398
		c1.013,2.263,1.943,4.593,2.729,6.967c4.74-4.384,9.648-8.59,14.836-12.469c2.147-1.516,4.278-3.042,6.432-4.544
		c0.327-0.23,0.575-0.492,0.775-0.773c0.774,1.312,1.517,2.642,2.247,3.995c-4.373,2.815-9.621,6.464-14.769,10.287
		c-2.882,2.125-5.76,4.238-8.637,6.359c0.952,3.349,1.699,6.768,2.171,10.195c3.434-3.875,5.985-8.615,10.015-11.953
		c5.191-4.302,9.274-7.782,12.455-10.6c0.217,1.289,0.604,2.536,1.158,3.735c-0.394,0.141-0.776,0.385-1.136,0.764
		c-6.559,6.828-13.147,13.582-19.796,20.246c-0.746,0.666-1.522,1.309-2.269,1.965c0.215,2.931,0.215,5.852,0.017,8.719
		c2.579-2.575,5.169-5.155,7.727-7.753c6.534-5.916,12.744-12.193,18.463-19.033c0.05-0.056,0.076-0.122,0.133-0.183
		c0.432,1.273,0.841,2.56,1.224,3.862c0.338,1.124,0.747,2.153,1.239,3.084c-2.313,1.515-5.236,3.714-8.696,6.688
		c-6.868,5.891-13.722,11.805-20.599,17.686c-2.126,13.566-9.589,25.471-24.47,31.329c-1.637,0.648-3.308,1.189-4.983,1.677
		c-7.478,6.709-15.345,12.948-23.625,18.854c-1.944,1.373-3.899,2.746-5.881,4.119c-0.768,1.252-2.015,2.28-3.865,2.769
		c-0.059,0.022-0.109,0.032-0.165,0.044c-20.284,14.095-41.37,28.885-52.736,51.179c-1.212,2.387,1.439,5.869,4.013,4.015
		c1.645-1.197,3.261-2.448,4.889-3.671c-2.226,2.753-4.273,5.615-6.135,8.577C103.88,251.656,99.883,249.632,96.03,247.372z
		 M85.232,240.253c1.489-1.241,3.005-2.447,4.478-3.704c-0.964,1.639-1.832,3.314-2.652,5.026
		C86.449,241.138,85.845,240.695,85.232,240.253z M93.573,241.863c5.746-10.297,14.726-18.805,23.54-26.489
		c6.255-5.447,12.854-10.475,19.569-15.348c-5.099,4.035-10.115,8.183-14.992,12.479C111.642,221.325,103.272,232.56,93.573,241.863
		z M68.097,224.862c5.734-3.36,11.149-7.196,16.331-11.332c-4.739,4.512-9.367,9.15-13.895,13.901
		C69.713,226.583,68.893,225.727,68.097,224.862z M52.02,202.973c0.254,0,0.516,0,0.787-0.076c2.536-0.664,4.999-1.528,7.407-2.523
		c-1.988,2.137-3.909,4.328-5.846,6.509C53.559,205.588,52.778,204.292,52.02,202.973z M65.212,191.046
		c12.142-11.981,24.552-23.68,37.202-35.104c-4.046,4.495-8.077,8.991-12.262,13.318C82.756,176.924,74.584,185.227,65.212,191.046z
		 M45.765,182.79c3.632-3.315,7.319-6.576,11.05-9.787c2.718-0.896,5.335-2.115,7.865-3.537
		C58.718,174.48,52.485,179.037,45.765,182.79z M36.583,144.374c3.331-1.264,6.515-2.779,9.593-4.498
		c-3.167,2.984-6.315,5.987-9.466,8.986C36.653,147.369,36.587,145.873,36.583,144.374z M48.688,131.277
		c8.082-7.686,16.491-15.014,25.045-22.165c-0.476,0.462-0.953,0.921-1.418,1.382C64.959,117.669,57.312,125.297,48.688,131.277z
		 M48.894,89.563c17.488-5.978,32.047-19.101,47.89-28.305c9.4-5.466,18.644-11.202,27.962-16.792
		c-11.719,9.328-23.323,18.811-35.225,27.922C73.124,84.944,55.946,96.601,41.01,110.841
		C42.981,103.528,45.644,96.409,48.894,89.563z M153.904,34.003c-12.768,7.759-25.201,16.024-37.441,24.591
		c10.557-8.483,21.104-16.997,31.948-25.126C150.243,33.602,152.087,33.788,153.904,34.003z M131.936,33.353
		c-8.093,4.647-16.06,9.522-24.037,14.379c5.01-4.661,9.999-9.373,15.367-13.508C126.129,33.828,129.037,33.532,131.936,33.353z
		 M211.963,56.34c0.766,0.557,1.539,1.126,2.291,1.703c-7.009,3.808-13.968,7.699-20.88,11.661
		c4.529-3.269,9.051-6.553,13.585-9.835C208.638,58.705,210.303,57.527,211.963,56.34z M257.313,124.3
		c0.442,2.038,0.83,4.088,1.164,6.137c0.036,0.206,0.042,0.408,0.085,0.609c-2.124,1.419-5.18,3.831-9.221,7.33
		c-5.905,5.136-11.864,10.213-17.836,15.256C240.645,144.244,249.279,134.442,257.313,124.3z M164.217,202.946
		c-0.837,0.593-1.678,1.19-2.514,1.788c25.46-23.283,50.218-47.43,77.713-68.223C217.11,161.455,191.309,183.615,164.217,202.946z
		 M255.004,115.918c0.243,0.679,0.442,1.372,0.659,2.057c-0.266,0.089-0.543,0.204-0.841,0.396
		c-9.247,6.133-18.123,12.727-26.767,19.601c5.668-5.824,11.475-11.538,17.621-16.952c3.172-2.792,5.602-5.195,7.362-7.173
		c0.541,0.512,1.141,0.953,1.751,1.349C254.866,115.449,254.943,115.71,255.004,115.918z M123.267,258.896
		c-0.984-0.275-1.97-0.564-2.945-0.862c3.887-4.077,7.608-8.34,11.394-12.387c-0.395-0.211-0.787-0.408-1.175-0.634
		c-1.328-0.809-2.458-1.696-3.421-2.638c-4.156,4.608-8.341,9.318-12.744,13.652c-0.315-0.121-0.654-0.239-0.968-0.354
		c3.427-5.38,7.517-10.395,12.117-15.096c-2.313-3.072-3.056-6.576-2.548-9.98c-1.217,0.984-2.419,1.991-3.653,2.956
		c1.296-1.616,2.636-3.188,4.036-4.729c1.556-5.546,6.405-10.563,13.17-12.61c0.077-0.015,0.133-0.032,0.212-0.055
		c6.808-5.668,14.094-10.885,21.39-15.939c-5.452,4.989-10.966,9.916-16.535,14.775c6.854-1.327,14.061-1.395,20.922-0.685
		c3.021,0.311,6.88,0.474,10.38,1.283c27.445-23.721,57.489-45.065,80.596-73.072c2.35-2.846,4.202-5.22,5.581-7.141
		c0.211,2.44,0.312,4.913,0.288,7.4c-23.218,19.88-46.114,40.229-69.037,60.436c-4.914,4.329-9.737,8.78-14.509,13.28
		c0.798,0.315,1.556,0.66,2.226,1.091c1.19,0.533,2.083,1.413,2.696,2.448c2.853-2.701,5.72-5.392,8.602-8.05
		c20.147-18.529,40.955-36.598,61.786-54.465c-18.212,25.662-44.829,43.725-70.082,63.156c0.35,0.725,0.597,1.494,0.687,2.292
		c1.15,1.91,1.838,3.826,2.147,5.702c0.406-0.365,0.798-0.754,1.196-1.113c12.489-11.1,25.426-21.772,38.758-31.903
		c-12.899,11.532-26.678,22.154-39.92,33.325c0.465,3.269-0.254,6.407-2,9.168c4.104-3.593,8.277-7.104,12.507-10.569
		c-4.451,3.927-8.892,7.851-13.354,11.77c-1.383,1.81-3.215,3.41-5.435,4.751c-1.482,1.297-2.957,2.604-4.451,3.881
		c1.185-1.139,2.408-2.259,3.614-3.383c-1.321,0.725-2.75,1.361-4.301,1.889c-8.325,2.834-19.498,4.258-29.206,2.426
		c-2.398,2.113-4.828,4.206-7.275,6.266c1.761-2.266,3.599-4.463,5.458-6.644c-2.093-0.498-4.081-1.163-5.963-2.006
		c-3.366,4.03-6.565,8.205-9.626,12.522C123.677,258.995,123.468,258.947,123.267,258.896z M246.807,197.677
		c-7.025,5.376-13.642,11.237-20.084,17.331c7.003-7.74,14.048-15.389,22.088-22.031
		C248.168,194.561,247.504,196.121,246.807,197.677z M252.563,182.702c-8.204,4.96-16.032,10.395-23.616,16.143
		c8.027-7.188,15.69-14.747,22.587-23.085c1.785-2.161,3.245-3.963,4.431-5.48C255.004,174.475,253.874,178.622,252.563,182.702z
		 M222.537,211.224c-4.479,4.928-8.968,9.876-13.746,14.602c-12.28,12.147-25.416,23.362-37.688,35.458
		c-2.674,0.459-5.364,0.814-8.066,1.069C183.255,245.766,202.208,227.609,222.537,211.224z M182.016,258.78
		c5.368-5.099,10.838-10.109,16.298-15.118c-4.242,4.693-8.522,9.522-13,14.11C184.222,258.128,183.122,258.465,182.016,258.78z
		 M197.979,252.67c1.87-2.055,3.743-4.102,5.592-6.106c7.761-8.42,15.776-16.939,24.213-25.01
		c-9.25,9.699-18.356,19.535-27.062,29.729C199.823,251.757,198.892,252.222,197.979,252.67z M257.511,162.439
		c-0.177,1.03-0.365,2.049-0.559,3.078c-1.832,0.941-4.767,2.808-8.974,5.63c-0.114,0.086-0.231,0.174-0.354,0.251
		c3.813-4.396,7.362-9.044,10.636-13.943C258.032,159.136,257.784,160.809,257.511,162.439z M111.731,36.47
		c-4.368,3.919-8.597,8.024-12.904,11.985c-12.944,11.918-28.726,21.205-44.116,30.2c1.023-1.699,2.071-3.385,3.178-5.037
		C71.125,53.912,90.39,41.861,111.731,36.47z"/>
	<path fill="#004D54" d="M154.588,180.101c5.473-1.375,8.864,3.608,8.282,7.914c0.039-0.021,0.066-0.043,0.11-0.071
		c9.206-6.327,18.136-13.035,26.911-19.955c-7.664,1.999-15.518,2.578-23.4,3.122C162.594,174.177,158.615,177.159,154.588,180.101z
		"/>
	<path fill="#004D54" d="M161.798,171.442c-6.257,2.17-12.357,4.563-17.749,8.127c0.211-0.04,0.426-0.068,0.637-0.101
		c2.64-0.482,4.737,0.236,6.195,1.549c0.434-0.104,0.876-0.226,1.318-0.332c3.637-3.145,7.286-6.244,10.938-9.343
		C162.683,171.375,162.25,171.401,161.798,171.442z"/>
	<path fill="#004D54" d="M160.032,158.081c0.122-0.102,0.249-0.204,0.37-0.308c9.572-7.314,19.232-14.514,28.908-21.669
		c0.056-0.357,0.099-0.708,0.127-1.077c0.2-3.415,0.127-6.991-0.454-10.444c-10.447,10.161-21.208,19.741-32.602,28.945
		c-2.58,1.974-5.127,3.982-7.677,5.968c3.503-0.471,7.024-0.832,10.578-1.152C159.527,158.256,159.781,158.169,160.032,158.081z"/>
	<path fill="#004D54" d="M111.366,128.528c0.598,1.046,0.841,2.256,0.83,3.466c11.447-10.515,23.936-20.044,37.024-28.886
		c-5.458,0.751-10.746,2.108-15.367,3.737C127.153,109.188,105.414,118.054,111.366,128.528z"/>
</g>
<path d="M422.511-208.19c-1.971-1.421-4.213-2.506-6.281-3.784c-4.729-2.924-9.52-5.748-14.391-8.429
	c-2.002-1.101-4.047-2.119-6.047-3.22c-1.781-0.979-3.549-1.882-5.604-2.041c-4.275-0.329-5.295,4.819-5.615,7.97
	c-0.408,3.991-0.609,8.114-0.719,12.118c-0.139,5.026-0.129,10.101,0.053,15.126c0.063,1.768,0.189,3.539,0.295,5.305
	c0.09,1.473,0.123,3.287,1.594,4.098c0.715,0.395,1.664,0.456,2.422,0.106c0.09-0.021,0.184-0.041,0.275-0.062
	c0.289-0.008,0.59-0.077,0.898-0.214c0.371-0.12,0.672-0.302,0.91-0.524c7.938-4.887,16.584-8.518,24.598-13.287
	c2.188-1.303,4.355-2.635,6.564-3.905c1.754-1.009,4.063-2.054,4.201-4.368C425.794-205.345,424.034-207.09,422.511-208.19z
	 M407.302-211.331c-6.074,2.714-11.33,6.805-16.857,10.457c5.08-3.903,10.77-7.018,15.695-11.135
	C406.526-211.783,406.913-211.559,407.302-211.331z M412.401-208.253c-2.725,1.338-5.346,2.909-7.865,4.624
	c2.266-1.686,4.449-3.48,6.467-5.479C411.472-208.825,411.937-208.538,412.401-208.253z M417.302-205.414
	c-5.256,2.961-9.758,7.109-14.799,10.405c-2.32,1.518-4.678,2.975-7.012,4.469c-1.313,0.676-2.621,1.362-3.916,2.071
	c7.428-6.686,17.014-10.794,24.277-17.738C416.335-205.944,416.819-205.682,417.302-205.414z M389.081-192.642
	c3.813-3.059,7.945-5.706,11.965-8.489c-0.492,0.368-0.98,0.738-1.465,1.114c-3.332,2.574-6.67,5.55-10.496,7.449
	C389.083-192.592,389.083-192.617,389.081-192.642z M389.284-187.72c-0.008-0.438-0.021-0.875-0.037-1.313
	c4.18-2.289,7.988-5.226,11.893-7.94c3.607-2.508,7.252-5,10.982-7.343C404.796-198.411,395.948-194.376,389.284-187.72z
	 M389.138-191.452c0.557-0.265,1.102-0.551,1.637-0.855c-0.543,0.391-1.082,0.787-1.621,1.185
	C389.149-191.233,389.144-191.343,389.138-191.452z M399.028-198.286c3.189-2.508,6.523-4.924,10.041-6.998
	c-3.93,3.028-8.031,5.824-12.117,8.64C397.647-197.193,398.339-197.745,399.028-198.286z M388.993-202.696
	c5.16-3.149,9.982-6.905,15.521-9.318c-4.953,3.954-10.568,7.034-15.527,10.971C388.987-201.594,388.989-202.145,388.993-202.696z
	 M389.024-204.958c0.004-0.131,0.006-0.263,0.01-0.395c3.666-2.122,7.145-4.574,10.814-6.686c-2.064,1.588-4.203,3.09-6.412,4.423
	C391.976-206.734,390.464-205.895,389.024-204.958z M388.989-198.706c4.725-2.965,9.162-6.395,13.965-9.208
	c-2.646,2.034-5.275,4.095-8.025,5.972c-1.947,1.327-4.008,2.559-5.934,3.952C388.993-198.229,388.991-198.468,388.989-198.706z
	 M409.511-210.007c-1.977,0.796-3.879,1.73-5.729,2.763c1.52-1.17,3.047-2.329,4.613-3.431
	C408.767-210.453,409.138-210.23,409.511-210.007z M400.192-210.989c1.102-0.846,2.18-1.716,3.236-2.596
	c0.305,0.174,0.605,0.354,0.91,0.53C402.915-212.443,401.54-211.745,400.192-210.989z M402.011-214.382
	c-4.197,2.113-8.041,4.843-12.055,7.278c3.672-2.618,7.658-4.826,11.004-7.867C401.312-214.775,401.659-214.579,402.011-214.382z
	 M389.118-207.76c0.008-0.188,0.02-0.374,0.027-0.56c1.34-0.681,2.662-1.397,3.969-2.142
	C391.769-209.578,390.423-208.695,389.118-207.76z M399.683-215.685c-2.033,1.311-4.088,2.592-6.178,3.81
	c1.852-1.309,3.631-2.708,5.24-4.317C399.058-216.023,399.37-215.855,399.683-215.685z M389.563-216.663
	c0.678-0.228,1.34-0.514,1.988-0.835c-0.678,0.527-1.35,1.062-2.016,1.604C389.542-216.15,389.552-216.407,389.563-216.663z
	 M395.054-218.146c-1.273,0.749-2.529,1.538-3.836,2.22c1.078-0.857,2.168-1.695,3.266-2.527
	C394.677-218.35,394.864-218.247,395.054-218.146z M392.86-219.339c-0.961,0.555-1.932,1.083-2.939,1.479
	c0.834-0.625,1.678-1.243,2.588-1.682C392.624-219.474,392.743-219.407,392.86-219.339z M389.526-214.021
	c2.309-0.907,4.361-2.317,6.516-3.537c-2.004,1.666-4.277,2.985-6.531,4.33C389.519-213.488,389.522-213.753,389.526-214.021z
	 M389.394-211.558c2.688-1.483,5.26-3.177,7.93-4.703c-2.441,2.286-5.229,4.15-8.047,5.977
	C389.31-210.708,389.351-211.133,389.394-211.558z M409.118-208.732c-6.117,5.66-13.529,9.686-20.084,14.813
	c-0.018-0.561-0.031-1.121-0.031-1.684c0-0.088-0.002-0.176-0.002-0.264C395.435-200.581,401.774-205.622,409.118-208.732z
	 M412.763-201.245c0.828-0.592,1.666-1.17,2.514-1.726c-0.029,0.026-0.055,0.051-0.084,0.077
	C414.392-202.334,413.581-201.786,412.763-201.245z M414.489-206.98c-4.746,2.84-9.322,5.983-13.873,9.116
	c-3.057,2.106-6.043,4.362-9.188,6.342c7.377-5.338,15.137-10.151,22.105-16.036c0.227,0.139,0.451,0.274,0.676,0.414
	C414.302-207.088,414.396-207.034,414.489-206.98z M390.362-220.409c0.1,0.012,0.303,0.038,0.664,0.156
	c0.125,0.042,0.25,0.092,0.375,0.145c-0.521,0.307-1.023,0.657-1.521,1.019C389.997-219.552,390.153-219.994,390.362-220.409z
	 M414.233-200.685c0.541-0.449,1.068-0.914,1.574-1.396c0.762-0.528,1.518-1.066,2.262-1.618c0.143,0.146,0.355,0.198,0.572,0.039
	c0.279-0.204,0.492-0.345,0.625-0.527c0.145,0.104,0.287,0.21,0.426,0.319c-1.01,0.598-2.041,1.16-3.051,1.758
	C415.839-201.634,415.036-201.159,414.233-200.685z"/>
<path d="M500.308-222.036c-0.063-1.347-1.105-2.676-2.568-2.606c-3.336,0.159-7.492-0.444-9.611,2.793
	c-2.137,3.263-1.137,7.147-1.063,10.845c-7.514-4.534-14.076-10.591-22.082-14.321c-1.473-0.688-3.342-0.167-3.789,1.557
	c-1.559,6.035-0.922,12.277-1.1,18.433c-0.209,7.092-0.549,14.063-0.023,21.161c0.154,2.066,2.045,3.115,3.898,2.25
	c5.184-2.422,9.6-6.121,14.223-9.433c1.957-1.404,3.887-2.856,5.861-4.239c1.057-0.742,2.211-1.521,3.447-2.001
	c-0.646,4.702-0.865,9.448-0.873,14.196c-0.006,1.462,1.154,2.523,2.566,2.604c3.033,0.174,5.992-0.688,9.023-0.515
	c1.08,0.061,2.309-0.818,2.514-1.904C503.161-196.073,500.899-209.122,500.308-222.036z M468.483-190.655
	c3.898-3.92,7.684-7.954,11.523-11.932c-2.111,2.682-4.449,5.206-6.26,8.08C471.995-193.222,470.261-191.905,468.483-190.655z
	 M468.397-217.519c-0.967,0.682-1.994,1.304-3.061,1.845c0.016-0.579,0.045-1.156,0.084-1.733c0.414-0.39,0.834-0.775,1.252-1.165
	C467.253-218.23,467.831-217.879,468.397-217.519z M480.114-209.362c-5.672,4.718-10.037,10.729-15.236,15.924
	c0-0.23-0.006-0.461-0.006-0.69c3.855-5.913,10.693-9.723,14.258-15.921C479.456-209.82,479.784-209.59,480.114-209.362z
	 M483.194-207.32c-5.379,5.396-10.525,11.02-15.914,16.407c4.246-6.209,11.322-10.416,13.902-17.722
	C481.847-208.188,482.517-207.75,483.194-207.32z M465.36-208.5c0-0.181,0-0.361,0-0.542c1.043-0.694,2.094-1.378,3.143-2.063
	C467.433-210.263,466.364-209.415,465.36-208.5z M464.921-197.943c3.898-4.276,8.082-8.349,12.771-11.734
	c-3.396,5.271-9.039,8.858-12.811,13.813C464.892-196.558,464.901-197.251,464.921-197.943z M465.001-200.364
	c0.02-0.456,0.037-0.914,0.063-1.37c3.637-2.058,6.629-5.129,9.701-8.018C471.847-206.339,468.021-203.696,465.001-200.364z
	 M465.13-202.949c0.02-0.294,0.039-0.588,0.057-0.882c2.963-3.351,6.805-5.918,10.146-8.929c0.225,0.161,0.447,0.322,0.674,0.483
	C472.454-209.145,469.188-205.39,465.13-202.949z M465.284-205.436c0.006-0.112,0.016-0.224,0.018-0.336
	c0.232-0.113,0.459-0.237,0.682-0.359C465.749-205.902,465.515-205.671,465.284-205.436z M465.333-211.443
	c0.225-0.139,0.445-0.281,0.666-0.426c-0.223,0.202-0.443,0.405-0.664,0.61C465.335-211.321,465.335-211.382,465.333-211.443z
	 M465.315-213.327c-0.004-0.396-0.004-0.792,0-1.186c1.01-0.486,1.992-1.043,2.93-1.657
	C467.36-215.148,466.353-214.213,465.315-213.327z M464.892-192.001c5.148-4.988,9.412-10.846,14.773-15.616
	c-3.262,7.252-11.08,11.456-14.693,18.56C464.935-190.038,464.905-191.02,464.892-192.001z M477.776-211.006
	c-0.553,0.386-1.096,0.785-1.633,1.19c0.398-0.498,0.777-1.013,1.131-1.548C477.44-211.246,477.608-211.126,477.776-211.006z
	 M465.345-206.944c0-0.054,0-0.106,0.004-0.159c2.539-2.519,5.643-4.437,8.217-6.922c0.209,0.149,0.418,0.3,0.629,0.45
	C471.364-211.202,468.581-208.641,465.345-206.944z M466.646-211.121c1.602-1.46,3.297-2.823,4.791-4.392
	c0.289,0.199,0.58,0.396,0.867,0.598C470.458-213.591,468.552-212.36,466.646-211.121z M470.228-216.334
	c-0.52,0.416-1.039,0.831-1.563,1.241c0.434-0.47,0.846-0.957,1.221-1.465C469.999-216.483,470.112-216.409,470.228-216.334z
	 M465.558-218.947c0.012-0.084,0.021-0.169,0.031-0.254c0.053,0.029,0.104,0.056,0.154,0.084
	C465.683-219.06,465.62-219.003,465.558-218.947z M476.577-196.528c-0.145,0.1-0.287,0.201-0.432,0.303
	c2.631-3.515,5.848-6.655,7.934-10.544c0,0,0.002,0,0.002-0.001c0.619,0.38,1.244,0.75,1.879,1.109
	c-2.344,2.031-4.297,4.452-6.264,6.853C478.644-198.026,477.61-197.235,476.577-196.528z M491.825-186.028
	c0.006-0.363,0.012-0.725,0.021-1.087c0.688-0.435,1.371-0.876,2.043-1.327c-0.652,0.771-1.279,1.566-1.859,2.396
	C491.962-186.04,491.896-186.035,491.825-186.028z M491.886-188.364c0.002-0.063,0.002-0.131,0.006-0.195
	c1.672-1.815,3.41-3.585,4.826-5.586c-0.025,0.809-0.061,1.617-0.109,2.424C495.116-190.491,493.517-189.406,491.886-188.364z
	 M487.392-204.886c-0.057,0.045-0.109,0.09-0.164,0.136c0.033-0.058,0.061-0.118,0.092-0.175
	C487.343-204.912,487.366-204.898,487.392-204.886z M492.04-208.118c0.039-0.439,0.063-0.88,0.066-1.322
	c0.561-0.348,1.129-0.681,1.707-1.001C493.151-209.731,492.556-208.965,492.04-208.118z M491.501-204.949
	c0.977-1.036,2.072-1.96,3.252-2.776c-1.172,1.601-2.16,3.332-3.221,5.015c-0.342-0.275-0.764-0.459-1.271-0.515
	C490.681-203.796,491.097-204.367,491.501-204.949z M492.288-194.46c0.361-0.291,0.729-0.578,1.098-0.863
	c-0.383,0.412-0.762,0.826-1.137,1.244C492.261-194.206,492.274-194.333,492.288-194.46z M496.704-199.19
	c-1.205,0.986-2.459,1.916-3.697,2.863c1.236-1.671,2.479-3.337,3.617-5.073C496.657-200.663,496.687-199.927,496.704-199.19z
	 M496.53-203.19c-1.17,1.92-2.492,3.738-3.83,5.546c0-0.002,0.002-0.003,0.002-0.006c0.115-0.288,0.17-0.6,0.129-0.926
	c-0.055-0.438-0.109-0.876-0.164-1.313c1.123-1.334,2.432-2.604,3.855-3.432C496.524-203.276,496.528-203.233,496.53-203.19z
	 M492.347-201.555c-0.002-0.007-0.002-0.014-0.008-0.021c0.041-0.044,0.082-0.088,0.123-0.132
	C492.423-201.657,492.386-201.606,492.347-201.555z M496.233-207.459c-0.656,0.809-1.338,1.591-2.035,2.36
	c0.619-0.974,1.271-1.924,2-2.818C496.21-207.765,496.222-207.612,496.233-207.459z M496.048-209.753
	c-1.029,0.582-2.016,1.233-2.939,1.955c-0.006-0.019-0.014-0.034-0.02-0.053c0.789-1.222,1.77-2.255,2.848-3.21
	C495.974-210.626,496.011-210.189,496.048-209.753z M496.743-197.382c0,0.209,0,0.418,0,0.627c-1.301,1.26-2.646,2.477-4.008,3.672
	C494.028-194.55,495.401-195.954,496.743-197.382z M495.231-203.71c0.404-0.576,0.793-1.164,1.15-1.77
	c0.021,0.342,0.047,0.684,0.068,1.026C496.032-204.237,495.628-203.988,495.231-203.71z M495.802-212.652
	c-0.201,0.102-0.4,0.205-0.602,0.308c0.199-0.16,0.395-0.323,0.584-0.487C495.79-212.771,495.796-212.712,495.802-212.652z
	 M495.536-215.863c-0.852,0.48-1.709,0.949-2.57,1.405c0.84-0.835,1.672-1.676,2.484-2.538
	C495.479-216.618,495.509-216.24,495.536-215.863z M492.397-217.853c0.459-0.471,0.977-1.038,1.545-1.537
	c0.445-0.028,0.891-0.037,1.338-0.042c0.002,0.014,0.002,0.029,0.002,0.043c-1.068,0.733-2.158,1.436-3.273,2.091
	c0.006-0.057,0.016-0.112,0.025-0.168C492.155-217.593,492.274-217.726,492.397-217.853z M494.813-217.829
	c-0.957,1.022-1.945,2.013-2.941,3c-0.008-0.403,0-0.803,0.02-1.203C492.888-216.594,493.858-217.199,494.813-217.829z
	 M491.964-212.783c1.238-0.618,2.457-1.271,3.664-1.945c0.018,0.213,0.035,0.426,0.053,0.638c-1.129,1.039-2.387,1.961-3.619,2.908
	C492.034-211.716,491.999-212.25,491.964-212.783z M485.28-203.62c-0.666,0.872-1.426,1.685-2.201,2.487
	c-0.09,0.054-0.18,0.107-0.27,0.163C483.601-201.884,484.421-202.773,485.28-203.62z M488.44-204.403
	c0.379,0.108,0.77,0.133,1.145,0.083c-0.283,0.363-0.555,0.738-0.811,1.123c-0.789,0.076-1.551,0.241-2.289,0.477
	C487.116-203.304,487.769-203.866,488.44-204.403z M492.013-191.089c1.131-0.973,2.254-1.957,3.355-2.961
	c-1.041,1.377-2.223,2.656-3.408,3.932C491.976-190.442,491.993-190.766,492.013-191.089z M496.206-187.521
	c-0.439,0.404-0.895,0.795-1.357,1.17c-0.479,0.05-0.959,0.105-1.438,0.16c0.938-1.252,1.977-2.426,3.047-3.576
	C496.39-189.017,496.306-188.268,496.206-187.521z"/>
</svg>
