<?xml version="1.0" encoding="utf-8"?>
<!-- Generator: Adobe Illustrator 15.0.0, SVG Export Plug-In . SVG Version: 6.00 Build 0)  -->
<!DOCTYPE svg PUBLIC "-//W3C//DTD SVG 1.1//EN" "http://www.w3.org/Graphics/SVG/1.1/DTD/svg11.dtd">
<svg version="1.1" id="Layer_1" xmlns="http://www.w3.org/2000/svg" xmlns:xlink="http://www.w3.org/1999/xlink" x="0px" y="0px"
	 width="295.701px" height="295.701px" viewBox="0 0 295.701 295.701" enable-background="new 0 0 295.701 295.701"
	 xml:space="preserve">
<g>
	<path d="M240.414,135.554c-1.067-9.518-3.475-20.046-9.61-27.571c-6.935-16.845-19.332-30.459-34.499-40.003
		c-0.33-0.766-1.202-1.363-2.119-1.297c-30.188-17.953-70.508-20.104-100.609-0.004c-22.41,14.968-34.392,40.188-37.952,66.247
		c-3.724,27.28,4.857,54.411,22.066,75.579c29.198,35.903,84.059,46.693,122.579,19.691c19.427-13.621,31.497-35.812,37.38-58.39
		C240.539,158.728,241.697,146.944,240.414,135.554z M147.972,223.928c1.203-0.917,2.386-1.862,3.534-2.844
		c-0.813,0.945-1.605,1.913-2.39,2.888C148.738,223.965,148.354,223.943,147.972,223.928z M139.652,223.104
		c1.29-1.059,2.569-2.125,3.83-3.214c-0.938,1.104-1.858,2.232-2.76,3.372C140.363,223.213,140.011,223.163,139.652,223.104z
		 M113.539,213.746c5.722-5.447,10.659-11.912,16.385-17.293c6.876-6.473,14.302-12.338,21.963-17.851
		c-2.826,0.579-5.634,0.854-8.32,0.597c-0.722,1.023-1.884,1.792-3.504,1.936c-0.293,0.022-0.564,0.099-0.839,0.143
		c-0.406,0.242-0.861,0.44-1.411,0.558c-2.236,0.469-3.79,0.517-5.615-1.004c-0.166-0.132-0.309-0.278-0.44-0.418
		c-0.689-0.059-1.364-0.113-2.049-0.139c-0.282-0.015-0.517-0.074-0.77-0.125c-1.946,1.683-3.882,3.373-5.78,5.113
		c-4.908,4.498-9.582,9.251-14.156,14.086c-2.049,2.17-4.054,4.585-6.144,6.913c-0.967-0.806-1.924-1.631-2.848-2.478
		c8.917-8.247,17.586-16.721,26.537-24.903c-1.066-1.158-1.433-2.848-1.056-4.354c-0.084-0.092-0.146-0.19-0.224-0.279
		c-1.92,1.591-3.841,3.182-5.736,4.802c1.792-1.752,3.581-3.519,5.37-5.282c-0.184-0.253-0.348-0.524-0.502-0.81
		c-0.524-0.953-0.81-1.869-0.898-2.756c-8.137,7.976-16.307,15.966-25.581,22.234c7.371-8.489,16.38-15.527,25.581-22.234
		c-0.605-5.861,7.316-10.197,12.03-11.788c2.947-0.989,5.89-1.686,8.848-2.221c10.117-8.133,20.322-16.173,30.65-24.052
		c-0.48-2.663-1.426-5.205-3.057-7.338c-11.608,11.002-23.283,21.954-35.999,31.588c-15.516,11.737-32.787,22.425-44.685,38.081
		c-0.905-1.125-1.771-2.284-2.61-3.457c17.62-10.292,31.126-26.219,46.928-38.92c11.799-9.49,23.55-19.084,35.749-28.044
		c-0.403-0.455-0.824-0.893-1.301-1.296c-0.539-0.465-1.107-0.885-1.693-1.276c-10.267,7.586-20.237,15.595-30.185,23.604
		c-14.101,11.346-26.871,25.304-41.602,36.095c2.87-2.977,5.776-5.909,8.745-8.768c1.25-1.118,2.478-2.272,3.681-3.46
		c18.433-17.229,38.582-32.571,58.749-47.835c-1.231-0.762-2.555-1.375-3.937-1.851c-10.688,8.087-21.355,16.207-31.754,24.626
		c8.793-8.613,19.379-15.886,29.225-23.138c0.736-0.542,1.474-1.068,2.214-1.598c-3.145-1.038-6.572-1.408-10.04-1.316
		c-24.613,19.764-48.27,40.71-70.423,63.223c-0.11,0.102-0.169,0.223-0.238,0.337c-1.012-1.943-1.939-3.929-2.775-5.96
		c15.167-7.833,27.311-21.689,39.425-33.554c-2.434,0.085-4.801-0.75-6.993-2.205c-9.112,6.935-18.151,13.983-26.849,21.424
		c-0.136,0.033-0.271,0.077-0.399,0.106c6.62-9.252,14.845-17.229,23.502-24.766c-0.836-0.905-1.643-1.88-2.375-2.914
		c-10.05,8.72-19.566,17.974-26.838,29.157c-0.696,1.066-0.018,2.438,1.085,2.812c-1.048,0.927-2.067,1.873-3.097,2.808
		c-0.019-0.044-0.033-0.088-0.041-0.14c-1.418-4.765-2.338-9.65-2.837-14.575c11.458-4.987,20.831-13.808,30.1-22.588
		c-2.412-4.127-3.926-8.7-4.039-12.324c-0.033-1.068,0.037-2.115,0.146-3.145c-9.112,7.47-18.085,15.092-26.369,23.482
		c0.197-2.571,0.498-5.137,0.931-7.679c8.76-6.275,17.407-12.717,26.053-19.148c2.104-7.943,8.35-14.412,15.71-18.302
		c7.29-3.845,15.482-6.185,23.792-6.879c5.693-4.738,11.521-9.303,17.627-13.456c2.515,0.506,5.007,1.129,7.456,1.862
		c-1.547,0.928-3.094,1.859-4.633,2.812c-4.934,2.804-9.849,5.659-14.72,8.564c2.584,0.024,5.161,0.209,7.716,0.563
		c3.434-2.276,6.895-4.498,10.406-6.651c2.129-1.195,4.259-2.383,6.385-3.57c0.88,0.327,1.752,0.662,2.621,1.017
		c-5.323,3.284-10.67,6.521-16.015,9.771c3.175,0.632,6.283,1.541,9.274,2.719c4.571-3.069,9.134-6.139,13.631-9.304
		c2.115,1.104,4.182,2.3,6.184,3.586c-0.74,0.532-1.477,1.068-2.221,1.604c-3.618,2.497-7.309,4.899-11.04,7.254
		c3.137,1.794,6.099,3.938,8.793,6.462c3.889-2.919,7.797-5.811,11.711-8.677c0.322-0.231,0.531-0.506,0.674-0.801
		c1.232,1.046,2.427,2.131,3.589,3.254c-0.517-0.229-1.122-0.268-1.686,0.018c-4.439,2.251-8.856,4.663-13.243,7.201
		c0.645,0.645,1.283,1.305,1.91,1.996c0.781,0.876,1.528,1.811,2.254,2.784c3.831-2.955,7.643-5.929,11.429-8.933
		c0.689-0.542,0.785-1.25,0.527-1.864c1.217,1.241,2.383,2.524,3.5,3.854c-1.77,0.851-4.53,2.414-8.324,4.669
		c-2.053,1.221-4.069,2.491-6.092,3.765c0.964,1.424,1.855,2.929,2.661,4.498c1.914-1.756,3.842-3.497,5.784-5.214
		c3.317-2.932,5.641-5.087,6.964-6.491c0.99,1.248,1.935,2.535,2.837,3.854c-0.168,0.053-0.337,0.123-0.502,0.236
		c-1.51,0.997-2.973,2.051-4.417,3.121c-3.192,2.264-6.353,4.58-9.519,6.885c0.671,1.498,1.287,3.041,1.807,4.613
		c3.138-2.903,6.389-5.688,9.823-8.256c1.422-1.004,2.833-2.014,4.259-3.009c0.216-0.152,0.381-0.326,0.513-0.512
		c0.513,0.868,1.004,1.749,1.488,2.645c-2.896,1.864-6.371,4.28-9.779,6.811c-1.907,1.407-3.813,2.806-5.718,4.211
		c0.63,2.217,1.125,4.481,1.437,6.75c2.273-2.566,3.963-5.704,6.631-7.914c3.438-2.848,6.14-5.153,8.247-7.018
		c0.143,0.853,0.399,1.679,0.767,2.473c-0.261,0.093-0.514,0.255-0.752,0.506c-4.343,4.521-8.705,8.993-13.107,13.405
		c-0.495,0.441-1.008,0.867-1.503,1.301c0.143,1.941,0.143,3.875,0.011,5.773c1.708-1.705,3.423-3.413,5.117-5.134
		c4.325-3.917,8.438-8.073,12.224-12.602c0.033-0.037,0.051-0.081,0.088-0.121c0.286,0.843,0.557,1.695,0.81,2.557
		c0.224,0.744,0.495,1.426,0.821,2.042c-1.532,1.003-3.467,2.459-5.758,4.428c-4.548,3.9-9.086,7.816-13.639,11.71
		c-1.408,8.982-6.349,16.865-16.202,20.743c-1.084,0.429-2.191,0.788-3.299,1.11c-4.952,4.442-10.161,8.573-15.644,12.484
		c-1.287,0.909-2.581,1.818-3.893,2.727c-0.509,0.829-1.334,1.51-2.559,1.833c-0.04,0.015-0.073,0.022-0.11,0.029
		c-13.43,9.333-27.392,19.126-34.917,33.887c-0.803,1.58,0.953,3.886,2.657,2.658c1.089-0.792,2.159-1.62,3.237-2.43
		c-1.474,1.822-2.83,3.717-4.062,5.678C118.737,216.583,116.09,215.242,113.539,213.746z M106.389,209.032
		c0.986-0.821,1.99-1.62,2.965-2.452c-0.638,1.085-1.213,2.195-1.756,3.328C107.195,209.618,106.795,209.325,106.389,209.032z
		 M111.912,210.099c3.805-6.818,9.75-12.452,15.586-17.54c4.142-3.606,8.511-6.935,12.957-10.161
		c-3.376,2.672-6.697,5.418-9.926,8.262C123.876,196.5,118.334,203.938,111.912,210.099z M95.044,198.842
		c3.797-2.225,7.382-4.765,10.813-7.503c-3.138,2.987-6.202,6.059-9.2,9.204C96.114,199.982,95.571,199.414,95.044,198.842z
		 M84.399,184.349c0.168,0,0.341,0,0.521-0.051c1.679-0.44,3.31-1.012,4.904-1.671c-1.316,1.415-2.588,2.866-3.871,4.31
		C85.418,186.08,84.901,185.222,84.399,184.349z M93.134,176.451c8.039-7.932,16.256-15.678,24.632-23.243
		c-2.679,2.977-5.348,5.953-8.119,8.819C104.75,167.1,99.339,172.598,93.134,176.451z M80.257,170.985
		c2.405-2.195,4.846-4.354,7.316-6.48c1.8-0.594,3.533-1.4,5.208-2.342C88.834,165.483,84.707,168.5,80.257,170.985z
		 M74.177,145.549c2.206-0.837,4.314-1.84,6.352-2.978c-2.097,1.976-4.182,3.964-6.268,5.95
		C74.224,147.532,74.18,146.541,74.177,145.549z M82.193,136.877c5.351-5.089,10.919-9.941,16.583-14.676
		c-0.315,0.306-0.631,0.61-0.939,0.915C92.966,127.867,87.903,132.918,82.193,136.877z M82.329,109.258
		c11.579-3.958,21.219-12.647,31.709-18.742c6.224-3.619,12.345-7.417,18.514-11.118c-7.759,6.176-15.442,12.455-23.323,18.488
		c-10.857,8.313-22.231,16.031-32.12,25.46C78.414,118.504,80.177,113.79,82.329,109.258z M151.858,72.47
		c-8.453,5.137-16.685,10.61-24.79,16.282c6.99-5.617,13.973-11.254,21.153-16.637C149.435,72.204,150.656,72.327,151.858,72.47z
		 M137.313,72.039c-5.359,3.077-10.634,6.305-15.915,9.521c3.317-3.086,6.62-6.206,10.175-8.944
		C133.468,72.354,135.393,72.158,137.313,72.039z M190.301,87.26c0.506,0.369,1.019,0.746,1.517,1.127
		c-4.641,2.521-9.248,5.098-13.826,7.721c2.999-2.164,5.993-4.339,8.995-6.512C188.098,88.825,189.201,88.046,190.301,87.26z
		 M220.328,132.258c0.293,1.349,0.55,2.707,0.77,4.063c0.025,0.136,0.029,0.27,0.058,0.403c-1.407,0.94-3.431,2.537-6.106,4.853
		c-3.911,3.401-7.855,6.763-11.81,10.102C209.291,145.463,215.009,138.973,220.328,132.258z M158.687,184.331
		c-0.554,0.392-1.111,0.788-1.664,1.184c16.857-15.417,33.249-31.405,51.455-45.172
		C193.709,156.858,176.625,171.531,158.687,184.331z M218.799,126.708c0.161,0.449,0.293,0.908,0.436,1.362
		c-0.176,0.059-0.359,0.135-0.557,0.262c-6.122,4.061-12,8.427-17.722,12.978c3.753-3.856,7.598-7.639,11.667-11.224
		c2.1-1.848,3.709-3.44,4.875-4.749c0.359,0.339,0.755,0.631,1.159,0.893C218.708,126.397,218.759,126.57,218.799,126.708z
		 M131.573,221.377c-0.652-0.183-1.305-0.374-1.95-0.572c2.574-2.698,5.037-5.521,7.544-8.2c-0.261-0.14-0.521-0.271-0.778-0.421
		c-0.879-0.535-1.627-1.122-2.265-1.745c-2.752,3.05-5.523,6.169-8.438,9.039c-0.209-0.081-0.433-0.158-0.641-0.235
		c2.269-3.563,4.977-6.883,8.023-9.995c-1.532-2.034-2.023-4.354-1.687-6.609c-0.806,0.652-1.602,1.319-2.419,1.957
		c0.858-1.07,1.745-2.111,2.672-3.13c1.03-3.672,4.241-6.994,8.72-8.35c0.051-0.01,0.088-0.021,0.14-0.036
		c4.508-3.753,9.332-7.207,14.163-10.553c-3.61,3.303-7.261,6.565-10.948,9.783c4.538-0.879,9.31-0.924,13.852-0.454
		c2.001,0.205,4.556,0.314,6.873,0.85c18.173-15.706,38.065-29.839,53.365-48.383c1.555-1.884,2.782-3.456,3.695-4.728
		c0.14,1.616,0.206,3.253,0.191,4.9c-15.373,13.163-30.533,26.637-45.711,40.016c-3.255,2.866-6.448,5.813-9.607,8.793
		c0.528,0.209,1.03,0.437,1.474,0.723c0.788,0.352,1.378,0.935,1.785,1.62c1.888-1.789,3.787-3.57,5.696-5.33
		c13.339-12.268,27.117-24.232,40.91-36.062c-12.059,16.991-29.683,28.951-46.404,41.817c0.231,0.48,0.396,0.989,0.455,1.518
		c0.762,1.265,1.217,2.533,1.422,3.775c0.268-0.242,0.528-0.499,0.792-0.737c8.269-7.35,16.835-14.416,25.662-21.124
		c-8.541,7.635-17.664,14.669-26.432,22.066c0.308,2.163-0.168,4.241-1.323,6.07c2.716-2.379,5.479-4.703,8.28-6.998
		c-2.947,2.599-5.887,5.198-8.841,7.793c-0.916,1.198-2.129,2.257-3.599,3.145c-0.982,0.858-1.958,1.723-2.947,2.57
		c0.784-0.755,1.595-1.496,2.394-2.24c-0.876,0.48-1.822,0.901-2.848,1.25c-5.513,1.877-12.91,2.819-19.338,1.606
		c-1.588,1.4-3.197,2.786-4.817,4.149c1.166-1.5,2.383-2.955,3.614-4.399c-1.386-0.33-2.702-0.77-3.948-1.327
		c-2.229,2.668-4.347,5.432-6.374,8.291C131.844,221.443,131.706,221.41,131.573,221.377z M213.371,180.842
		c-4.651,3.559-9.032,7.44-13.298,11.476c4.637-5.125,9.302-10.19,14.625-14.588C214.272,178.778,213.833,179.812,213.371,180.842z
		 M217.183,170.927c-5.433,3.284-10.616,6.883-15.637,10.688c5.315-4.758,10.388-9.765,14.955-15.285
		c1.181-1.43,2.148-2.624,2.933-3.629C218.799,165.48,218.051,168.225,217.183,170.927z M197.302,189.811
		c-2.966,3.263-5.938,6.539-9.102,9.669c-8.13,8.042-16.828,15.468-24.954,23.477c-1.771,0.304-3.552,0.539-5.341,0.708
		C171.292,212.683,183.842,200.661,197.302,189.811z M170.471,221.3c3.556-3.376,7.177-6.693,10.791-10.01
		c-2.808,3.108-5.642,6.305-8.606,9.343C171.933,220.868,171.204,221.091,170.471,221.3z M181.042,217.254
		c1.239-1.36,2.478-2.716,3.702-4.043c5.139-5.575,10.446-11.216,16.032-16.56c-6.125,6.422-12.154,12.935-17.917,19.684
		C182.262,216.649,181.646,216.957,181.042,217.254z M220.459,157.511c-0.117,0.682-0.242,1.356-0.37,2.038
		c-1.213,0.623-3.156,1.858-5.941,3.728c-0.077,0.056-0.154,0.114-0.235,0.166c2.526-2.911,4.875-5.989,7.042-9.233
		C220.804,155.323,220.639,156.43,220.459,157.511z M123.935,74.103c-2.892,2.595-5.692,5.313-8.544,7.936
		c-8.57,7.891-19.02,14.04-29.21,19.996c0.678-1.125,1.371-2.241,2.104-3.335C97.049,85.652,109.804,77.673,123.935,74.103z"/>
	<path d="M152.312,169.204c3.622-0.91,5.869,2.39,5.483,5.241c0.026-0.015,0.044-0.029,0.073-0.047
		c6.096-4.19,12.008-8.632,17.818-13.214c-5.073,1.324-10.274,1.708-15.494,2.068C157.612,165.282,154.977,167.257,152.312,169.204z
		"/>
	<path d="M157.085,163.471c-4.143,1.437-8.182,3.021-11.752,5.381c0.14-0.026,0.282-0.044,0.422-0.066
		c1.748-0.319,3.137,0.157,4.102,1.026c0.286-0.069,0.579-0.15,0.872-0.22c2.408-2.082,4.824-4.135,7.243-6.187
		C157.671,163.427,157.385,163.445,157.085,163.471z"/>
	<path d="M155.916,154.625c0.081-0.068,0.165-0.136,0.245-0.204c6.338-4.843,12.734-9.61,19.141-14.348
		c0.037-0.236,0.065-0.469,0.084-0.713c0.132-2.261,0.084-4.629-0.301-6.915c-6.917,6.728-14.042,13.071-21.586,19.165
		c-1.708,1.307-3.394,2.637-5.083,3.951c2.32-0.311,4.651-0.55,7.004-0.762C155.582,154.74,155.75,154.682,155.916,154.625z"/>
	<path d="M123.693,135.057c0.396,0.693,0.557,1.494,0.549,2.295c7.58-6.962,15.849-13.272,24.515-19.126
		c-3.614,0.497-7.115,1.396-10.175,2.474C134.146,122.252,119.752,128.122,123.693,135.057z"/>
</g>
<path d="M422.511-208.19c-1.97-1.421-4.213-2.506-6.281-3.784c-4.729-2.924-9.52-5.748-14.391-8.429
	c-2.003-1.101-4.047-2.119-6.047-3.22c-1.781-0.979-3.548-1.882-5.604-2.041c-4.275-0.329-5.295,4.819-5.615,7.97
	c-0.408,3.991-0.61,8.114-0.719,12.118c-0.138,5.026-0.129,10.101,0.053,15.126c0.062,1.768,0.189,3.539,0.295,5.305
	c0.089,1.473,0.124,3.287,1.593,4.098c0.716,0.395,1.665,0.456,2.422,0.106c0.091-0.021,0.185-0.041,0.276-0.062
	c0.289-0.008,0.59-0.077,0.899-0.214c0.371-0.12,0.672-0.302,0.909-0.524c7.938-4.887,16.584-8.518,24.598-13.287
	c2.188-1.303,4.356-2.635,6.564-3.905c1.755-1.009,4.063-2.054,4.203-4.368C425.794-205.345,424.035-207.09,422.511-208.19z
	 M407.301-211.331c-6.074,2.714-11.329,6.805-16.857,10.457c5.081-3.903,10.77-7.018,15.696-11.135
	C406.527-211.783,406.914-211.559,407.301-211.331z M412.401-208.253c-2.724,1.338-5.345,2.909-7.864,4.624
	c2.265-1.686,4.448-3.48,6.466-5.479C411.471-208.825,411.936-208.538,412.401-208.253z M417.301-205.414
	c-5.255,2.961-9.757,7.109-14.799,10.405c-2.319,1.518-4.677,2.975-7.011,4.469c-1.313,0.676-2.621,1.362-3.916,2.071
	c7.428-6.685,17.014-10.794,24.278-17.738C416.335-205.944,416.819-205.682,417.301-205.414z M389.082-192.642
	c3.812-3.059,7.944-5.706,11.964-8.489c-0.492,0.368-0.98,0.738-1.465,1.114c-3.332,2.574-6.67,5.55-10.496,7.449
	C389.083-192.592,389.083-192.617,389.082-192.642z M389.284-187.72c-0.008-0.438-0.021-0.875-0.036-1.312
	c4.178-2.289,7.987-5.226,11.891-7.94c3.608-2.508,7.253-5,10.983-7.343C404.795-198.411,395.948-194.376,389.284-187.72z
	 M389.138-191.452c0.556-0.265,1.101-0.551,1.637-0.855c-0.543,0.391-1.082,0.787-1.621,1.185
	C389.149-191.233,389.144-191.343,389.138-191.452z M399.028-198.286c3.19-2.508,6.524-4.924,10.041-6.998
	c-3.93,3.028-8.031,5.824-12.117,8.64C397.647-197.193,398.339-197.745,399.028-198.286z M388.993-202.696
	c5.16-3.15,9.982-6.905,15.522-9.318c-4.954,3.954-10.569,7.034-15.528,10.971C388.987-201.594,388.989-202.145,388.993-202.696z
	 M389.024-204.958c0.004-0.131,0.006-0.263,0.01-0.395c3.666-2.122,7.144-4.574,10.814-6.686c-2.064,1.588-4.202,3.09-6.411,4.423
	C391.976-206.734,390.464-205.895,389.024-204.958z M388.99-198.706c4.724-2.965,9.161-6.395,13.964-9.208
	c-2.646,2.034-5.275,4.095-8.026,5.972c-1.946,1.327-4.007,2.559-5.933,3.952C388.993-198.229,388.992-198.468,388.99-198.706z
	 M409.511-210.007c-1.977,0.796-3.879,1.73-5.729,2.763c1.52-1.17,3.047-2.329,4.613-3.431
	C408.767-210.453,409.138-210.23,409.511-210.007z M400.193-210.989c1.101-0.846,2.18-1.716,3.235-2.596
	c0.305,0.174,0.606,0.354,0.91,0.53C402.916-212.443,401.54-211.745,400.193-210.989z M402.01-214.382
	c-4.196,2.113-8.04,4.843-12.054,7.278c3.672-2.618,7.658-4.826,11.004-7.867C401.311-214.775,401.659-214.579,402.01-214.382z
	 M389.118-207.76c0.008-0.187,0.02-0.374,0.028-0.56c1.34-0.681,2.661-1.397,3.968-2.142
	C391.769-209.578,390.423-208.695,389.118-207.76z M399.683-215.685c-2.033,1.311-4.089,2.592-6.179,3.81
	c1.853-1.309,3.632-2.708,5.241-4.317C399.058-216.023,399.371-215.855,399.683-215.685z M389.563-216.663
	c0.679-0.228,1.341-0.514,1.989-0.835c-0.678,0.527-1.35,1.062-2.015,1.604C389.542-216.15,389.551-216.407,389.563-216.663z
	 M395.054-218.146c-1.273,0.749-2.529,1.538-3.837,2.22c1.079-0.857,2.169-1.695,3.267-2.527
	C394.676-218.35,394.865-218.247,395.054-218.146z M392.86-219.339c-0.961,0.555-1.932,1.083-2.939,1.479
	c0.833-0.625,1.678-1.243,2.587-1.682C392.624-219.474,392.743-219.407,392.86-219.339z M389.526-214.021
	c2.309-0.907,4.361-2.317,6.515-3.537c-2.003,1.666-4.276,2.985-6.53,4.33C389.519-213.488,389.522-213.753,389.526-214.021z
	 M389.393-211.558c2.688-1.483,5.261-3.177,7.931-4.703c-2.442,2.286-5.229,4.15-8.047,5.977
	C389.31-210.708,389.35-211.133,389.393-211.558z M409.118-208.732c-6.117,5.66-13.529,9.686-20.084,14.813
	c-0.018-0.561-0.031-1.121-0.031-1.684c0-0.088-0.002-0.176-0.002-0.264C395.435-200.581,401.774-205.622,409.118-208.732z
	 M412.763-201.245c0.827-0.592,1.665-1.17,2.514-1.726c-0.029,0.026-0.055,0.051-0.084,0.077
	C414.392-202.334,413.581-201.786,412.763-201.245z M414.489-206.98c-4.745,2.84-9.322,5.983-13.872,9.116
	c-3.058,2.106-6.044,4.362-9.189,6.342c7.377-5.338,15.138-10.151,22.107-16.036c0.226,0.139,0.451,0.274,0.675,0.414
	C414.301-207.088,414.396-207.034,414.489-206.98z M390.362-220.409c0.1,0.012,0.304,0.038,0.664,0.156
	c0.125,0.042,0.25,0.092,0.375,0.145c-0.521,0.307-1.023,0.657-1.521,1.019C389.997-219.552,390.153-219.994,390.362-220.409z
	 M414.233-200.685c0.541-0.449,1.068-0.914,1.574-1.396c0.762-0.528,1.518-1.066,2.262-1.618c0.143,0.145,0.356,0.198,0.573,0.039
	c0.279-0.204,0.492-0.345,0.624-0.527c0.146,0.104,0.287,0.21,0.426,0.319c-1.009,0.598-2.041,1.16-3.05,1.758
	C415.838-201.634,415.036-201.159,414.233-200.685z"/>
<path d="M500.308-222.036c-0.063-1.347-1.105-2.676-2.568-2.606c-3.337,0.159-7.492-0.444-9.612,2.793
	c-2.136,3.263-1.137,7.147-1.062,10.845c-7.515-4.534-14.076-10.591-22.082-14.321c-1.474-0.688-3.342-0.167-3.789,1.557
	c-1.559,6.035-0.922,12.277-1.101,18.433c-0.208,7.092-0.549,14.063-0.022,21.161c0.153,2.066,2.044,3.115,3.897,2.25
	c5.184-2.422,9.601-6.121,14.224-9.433c1.957-1.404,3.887-2.856,5.86-4.239c1.058-0.742,2.212-1.52,3.448-2.001
	c-0.646,4.702-0.865,9.448-0.873,14.196c-0.006,1.462,1.154,2.523,2.567,2.604c3.032,0.174,5.991-0.688,9.023-0.515
	c1.079,0.061,2.308-0.818,2.513-1.904C503.161-196.073,500.899-209.122,500.308-222.036z M468.483-190.655
	c3.899-3.92,7.684-7.954,11.524-11.932c-2.112,2.682-4.45,5.206-6.259,8.08C471.995-193.222,470.26-191.905,468.483-190.655z
	 M468.397-217.519c-0.966,0.682-1.994,1.304-3.061,1.845c0.017-0.579,0.045-1.156,0.084-1.733c0.414-0.39,0.834-0.775,1.253-1.165
	C467.253-218.23,467.831-217.879,468.397-217.519z M480.114-209.362c-5.672,4.718-10.037,10.729-15.236,15.924
	c0-0.23-0.006-0.461-0.006-0.69c3.855-5.913,10.693-9.723,14.258-15.921C479.456-209.82,479.784-209.59,480.114-209.362z
	 M483.194-207.32c-5.379,5.396-10.526,11.019-15.913,16.407c4.245-6.209,11.321-10.416,13.901-17.722
	C481.847-208.188,482.517-207.75,483.194-207.32z M465.36-208.5c0-0.181,0-0.361,0-0.542c1.043-0.694,2.094-1.378,3.143-2.063
	C467.432-210.263,466.364-209.415,465.36-208.5z M464.921-197.943c3.898-4.276,8.082-8.349,12.771-11.734
	c-3.396,5.272-9.039,8.858-12.81,13.813C464.892-196.558,464.901-197.251,464.921-197.943z M465.001-200.364
	c0.02-0.456,0.038-0.914,0.063-1.37c3.636-2.058,6.629-5.129,9.701-8.018C471.846-206.339,468.021-203.696,465.001-200.364z
	 M465.13-202.949c0.02-0.294,0.038-0.588,0.057-0.882c2.963-3.351,6.805-5.918,10.146-8.929c0.225,0.161,0.448,0.322,0.673,0.483
	C472.454-209.145,469.188-205.39,465.13-202.949z M465.284-205.436c0.006-0.112,0.015-0.224,0.018-0.336
	c0.232-0.113,0.458-0.237,0.682-0.359C465.749-205.902,465.515-205.671,465.284-205.436z M465.333-211.443
	c0.225-0.139,0.446-0.281,0.666-0.426c-0.222,0.202-0.444,0.405-0.664,0.61C465.335-211.321,465.335-211.382,465.333-211.443z
	 M465.315-213.327c-0.003-0.396-0.003-0.792,0-1.186c1.01-0.486,1.992-1.043,2.93-1.657
	C467.36-215.148,466.353-214.213,465.315-213.327z M464.892-192.001c5.149-4.988,9.412-10.846,14.773-15.616
	c-3.262,7.252-11.08,11.456-14.693,18.56C464.935-190.038,464.905-191.02,464.892-192.001z M477.776-211.006
	c-0.553,0.386-1.095,0.785-1.632,1.19c0.398-0.498,0.776-1.013,1.13-1.548C477.44-211.246,477.608-211.126,477.776-211.006z
	 M465.345-206.944c0-0.054,0-0.106,0.003-0.159c2.54-2.519,5.644-4.437,8.218-6.922c0.209,0.149,0.418,0.3,0.628,0.45
	C471.364-211.202,468.581-208.641,465.345-206.944z M466.646-211.121c1.602-1.46,3.297-2.823,4.791-4.392
	c0.289,0.199,0.579,0.396,0.867,0.598C470.458-213.591,468.551-212.36,466.646-211.121z M470.227-216.334
	c-0.519,0.416-1.038,0.831-1.561,1.241c0.433-0.47,0.844-0.957,1.22-1.465C469.999-216.483,470.113-216.409,470.227-216.334z
	 M465.558-218.947c0.011-0.084,0.021-0.169,0.031-0.254c0.052,0.029,0.104,0.056,0.154,0.084
	C465.683-219.06,465.62-219.003,465.558-218.947z M476.577-196.528c-0.145,0.1-0.287,0.201-0.432,0.303
	c2.631-3.515,5.849-6.655,7.935-10.544c0,0,0.001,0,0.001-0.001c0.619,0.38,1.245,0.75,1.878,1.109
	c-2.343,2.031-4.296,4.452-6.262,6.853C478.644-198.026,477.611-197.235,476.577-196.528z M491.826-186.028
	c0.005-0.363,0.011-0.725,0.02-1.087c0.688-0.435,1.371-0.876,2.044-1.327c-0.653,0.771-1.279,1.566-1.859,2.396
	C491.962-186.04,491.895-186.035,491.826-186.028z M491.885-188.364c0.003-0.064,0.003-0.131,0.006-0.195
	c1.673-1.815,3.41-3.585,4.826-5.586c-0.024,0.809-0.059,1.617-0.108,2.424C495.116-190.491,493.517-189.406,491.885-188.364z
	 M487.391-204.886c-0.056,0.045-0.109,0.09-0.163,0.136c0.032-0.058,0.061-0.118,0.091-0.175
	C487.342-204.912,487.366-204.898,487.391-204.886z M492.04-208.118c0.039-0.439,0.063-0.88,0.066-1.322
	c0.561-0.348,1.13-0.681,1.707-1.001C493.151-209.731,492.556-208.965,492.04-208.118z M491.5-204.949
	c0.978-1.036,2.073-1.96,3.253-2.776c-1.172,1.601-2.161,3.332-3.221,5.015c-0.342-0.275-0.764-0.459-1.271-0.515
	C490.681-203.796,491.097-204.367,491.5-204.949z M492.288-194.46c0.361-0.291,0.729-0.578,1.097-0.863
	c-0.382,0.412-0.761,0.826-1.136,1.244C492.26-194.206,492.274-194.333,492.288-194.46z M496.704-199.19
	c-1.205,0.986-2.459,1.916-3.698,2.863c1.237-1.671,2.479-3.337,3.618-5.073C496.658-200.663,496.687-199.927,496.704-199.19z
	 M496.53-203.19c-1.17,1.92-2.492,3.738-3.83,5.546c0-0.002,0.002-0.003,0.002-0.006c0.115-0.288,0.17-0.6,0.129-0.926
	c-0.055-0.438-0.109-0.876-0.164-1.313c1.123-1.334,2.431-2.604,3.855-3.432C496.524-203.276,496.528-203.233,496.53-203.19z
	 M492.347-201.555c-0.002-0.007-0.003-0.014-0.008-0.02c0.041-0.044,0.082-0.088,0.123-0.132
	C492.423-201.657,492.385-201.606,492.347-201.555z M496.233-207.459c-0.656,0.809-1.338,1.591-2.035,2.36
	c0.619-0.974,1.271-1.924,2-2.818C496.209-207.765,496.222-207.612,496.233-207.459z M496.048-209.753
	c-1.029,0.582-2.016,1.233-2.939,1.955c-0.006-0.019-0.015-0.034-0.02-0.053c0.789-1.222,1.77-2.255,2.848-3.21
	C495.974-210.626,496.01-210.189,496.048-209.753z M496.743-197.382c0.001,0.209,0.001,0.418,0.001,0.627
	c-1.302,1.26-2.647,2.477-4.009,3.672C494.029-194.55,495.401-195.954,496.743-197.382z M495.231-203.71
	c0.405-0.576,0.793-1.164,1.15-1.77c0.023,0.342,0.048,0.684,0.07,1.026C496.032-204.237,495.627-203.988,495.231-203.71z
	 M495.801-212.652c-0.201,0.102-0.399,0.205-0.601,0.308c0.199-0.16,0.394-0.323,0.585-0.487
	C495.79-212.771,495.795-212.712,495.801-212.652z M495.536-215.863c-0.852,0.48-1.708,0.949-2.571,1.405
	c0.841-0.835,1.673-1.676,2.485-2.538C495.479-216.618,495.508-216.24,495.536-215.863z M492.397-217.853
	c0.459-0.471,0.977-1.038,1.546-1.537c0.444-0.028,0.89-0.037,1.337-0.042c0.002,0.014,0.003,0.029,0.003,0.043
	c-1.069,0.733-2.159,1.436-3.275,2.091c0.007-0.057,0.017-0.112,0.026-0.168C492.155-217.593,492.274-217.726,492.397-217.853z
	 M494.813-217.829c-0.957,1.022-1.945,2.013-2.941,3c-0.008-0.403,0.001-0.803,0.02-1.203
	C492.888-216.594,493.858-217.199,494.813-217.829z M491.964-212.783c1.238-0.618,2.457-1.271,3.663-1.945
	c0.018,0.213,0.036,0.426,0.054,0.638c-1.129,1.039-2.388,1.961-3.62,2.908C492.034-211.716,491.999-212.25,491.964-212.783z
	 M485.28-203.62c-0.666,0.872-1.426,1.685-2.201,2.487c-0.089,0.054-0.18,0.107-0.27,0.163
	C483.601-201.884,484.421-202.773,485.28-203.62z M488.44-204.403c0.379,0.108,0.77,0.133,1.145,0.083
	c-0.284,0.363-0.555,0.738-0.811,1.123c-0.789,0.076-1.551,0.241-2.289,0.476C487.117-203.304,487.769-203.866,488.44-204.403z
	 M492.012-191.089c1.132-0.973,2.254-1.957,3.357-2.961c-1.042,1.377-2.224,2.656-3.41,3.932
	C491.975-190.442,491.993-190.766,492.012-191.089z M496.206-187.521c-0.439,0.404-0.894,0.795-1.357,1.17
	c-0.479,0.05-0.959,0.105-1.438,0.16c0.938-1.252,1.977-2.426,3.047-3.576C496.389-189.017,496.306-188.268,496.206-187.521z"/>
</svg>
