<?xml version="1.0" encoding="utf-8"?>
<!-- Generator: Adobe Illustrator 15.0.0, SVG Export Plug-In . SVG Version: 6.00 Build 0)  -->
<!DOCTYPE svg PUBLIC "-//W3C//DTD SVG 1.1//EN" "http://www.w3.org/Graphics/SVG/1.1/DTD/svg11.dtd">
<svg version="1.1" id="Layer_1" xmlns="http://www.w3.org/2000/svg" xmlns:xlink="http://www.w3.org/1999/xlink" x="0px" y="0px"
	 width="295.701px" height="295.701px" viewBox="0 0 295.701 295.701" enable-background="new 0 0 295.701 295.701"
	 xml:space="preserve">
<g>
	<path d="M349.503-206.472c-0.284-2.536-0.926-5.341-2.561-7.346c-1.848-4.488-5.15-8.115-9.191-10.658
		c-0.088-0.204-0.32-0.363-0.564-0.346c-8.043-4.783-18.785-5.356-26.805-0.001c-5.971,3.988-9.163,10.707-10.111,17.65
		c-0.992,7.268,1.294,14.497,5.879,20.136c7.779,9.565,22.396,12.44,32.658,5.246c5.176-3.629,8.392-9.541,9.959-15.557
		C349.536-200.298,349.845-203.438,349.503-206.472z M324.874-182.927c0.32-0.244,0.636-0.496,0.941-0.758
		c-0.217,0.252-0.428,0.51-0.637,0.77C325.078-182.917,324.976-182.923,324.874-182.927z M322.657-183.146
		c0.344-0.282,0.685-0.566,1.021-0.856c-0.25,0.294-0.495,0.595-0.735,0.898C322.847-183.117,322.753-183.131,322.657-183.146z
		 M315.7-185.64c1.524-1.451,2.84-3.174,4.365-4.607c1.832-1.725,3.811-3.287,5.852-4.756c-0.753,0.154-1.501,0.228-2.217,0.159
		c-0.192,0.272-0.502,0.478-0.934,0.516c-0.078,0.006-0.15,0.026-0.224,0.038c-0.108,0.064-0.229,0.117-0.376,0.148
		c-0.596,0.125-1.01,0.138-1.496-0.268c-0.044-0.035-0.082-0.074-0.117-0.111c-0.184-0.016-0.363-0.03-0.546-0.037
		c-0.075-0.004-0.138-0.02-0.205-0.033c-0.519,0.448-1.034,0.898-1.54,1.362c-1.308,1.198-2.553,2.465-3.771,3.753
		c-0.546,0.578-1.08,1.222-1.637,1.842c-0.258-0.215-0.513-0.435-0.759-0.66c2.376-2.197,4.686-4.455,7.07-6.635
		c-0.284-0.309-0.382-0.759-0.281-1.16c-0.022-0.024-0.039-0.051-0.06-0.074c-0.512,0.424-1.023,0.848-1.528,1.279
		c0.478-0.467,0.954-0.938,1.431-1.407c-0.049-0.067-0.093-0.14-0.134-0.216c-0.14-0.254-0.216-0.498-0.239-0.734
		c-2.168,2.125-4.345,4.254-6.815,5.924c1.964-2.262,4.364-4.137,6.815-5.924c-0.161-1.562,1.949-2.717,3.205-3.141
		c0.785-0.264,1.569-0.449,2.357-0.592c2.695-2.167,5.414-4.309,8.166-6.408c-0.128-0.709-0.38-1.387-0.814-1.955
		c-3.093,2.931-6.203,5.849-9.591,8.416c-4.134,3.127-8.735,5.975-11.905,10.146c-0.241-0.3-0.472-0.608-0.695-0.921
		c4.694-2.742,8.293-6.985,12.503-10.37c3.144-2.528,6.274-5.084,9.524-7.472c-0.107-0.121-0.22-0.238-0.347-0.345
		c-0.144-0.124-0.295-0.236-0.451-0.34c-2.735,2.021-5.392,4.155-8.042,6.289c-3.757,3.023-7.159,6.742-11.084,9.617
		c0.765-0.793,1.539-1.574,2.33-2.336c0.333-0.298,0.66-0.605,0.98-0.922c4.911-4.59,10.279-8.678,15.652-12.745
		c-0.328-0.203-0.681-0.366-1.049-0.493c-2.848,2.155-5.689,4.318-8.46,6.561c2.343-2.295,5.163-4.232,7.786-6.165
		c0.196-0.145,0.393-0.285,0.59-0.426c-0.838-0.276-1.751-0.375-2.675-0.351c-6.558,5.266-12.86,10.846-18.763,16.844
		c-0.029,0.027-0.045,0.06-0.063,0.09c-0.27-0.518-0.517-1.047-0.739-1.588c4.041-2.087,7.276-5.779,10.504-8.94
		c-0.648,0.023-1.279-0.2-1.863-0.587c-2.428,1.848-4.836,3.726-7.153,5.708c-0.036,0.009-0.072,0.021-0.106,0.028
		c1.764-2.465,3.955-4.59,6.262-6.598c-0.223-0.241-0.438-0.501-0.633-0.776c-2.678,2.323-5.213,4.789-7.15,7.768
		c-0.186,0.284-0.005,0.649,0.289,0.749c-0.279,0.247-0.551,0.499-0.825,0.748c-0.005-0.012-0.009-0.023-0.011-0.037
		c-0.378-1.27-0.623-2.571-0.756-3.883c3.053-1.329,5.55-3.679,8.02-6.018c-0.643-1.1-1.046-2.318-1.076-3.283
		c-0.009-0.285,0.01-0.563,0.039-0.838c-2.428,1.99-4.818,4.021-7.025,6.256c0.053-0.685,0.133-1.369,0.248-2.046
		c2.334-1.672,4.638-3.388,6.941-5.102c0.561-2.116,2.225-3.84,4.186-4.876c1.942-1.024,4.125-1.648,6.339-1.833
		c1.517-1.262,3.069-2.479,4.696-3.585c0.67,0.135,1.334,0.301,1.986,0.496c-0.412,0.247-0.824,0.495-1.234,0.749
		c-1.314,0.747-2.624,1.508-3.922,2.282c0.688,0.006,1.375,0.056,2.056,0.15c0.915-0.606,1.837-1.198,2.772-1.772
		c0.567-0.318,1.135-0.635,1.701-0.951c0.234,0.087,0.467,0.176,0.698,0.271c-1.418,0.875-2.843,1.737-4.267,2.603
		c0.846,0.168,1.674,0.411,2.471,0.725c1.218-0.818,2.434-1.636,3.632-2.479c0.563,0.294,1.114,0.613,1.647,0.956
		c-0.197,0.142-0.394,0.285-0.592,0.427c-0.964,0.665-1.947,1.305-2.941,1.933c0.836,0.478,1.625,1.049,2.343,1.722
		c1.036-0.778,2.077-1.548,3.12-2.312c0.086-0.062,0.142-0.135,0.18-0.213c0.328,0.279,0.646,0.568,0.956,0.867
		c-0.138-0.061-0.299-0.071-0.449,0.005c-1.183,0.6-2.359,1.242-3.528,1.918c0.172,0.172,0.342,0.348,0.509,0.532
		c0.208,0.233,0.407,0.482,0.601,0.742c1.021-0.787,2.036-1.58,3.045-2.38c0.184-0.145,0.209-0.333,0.141-0.497
		c0.324,0.331,0.635,0.672,0.933,1.027c-0.472,0.227-1.207,0.643-2.218,1.244c-0.547,0.325-1.084,0.664-1.623,1.003
		c0.257,0.379,0.494,0.78,0.709,1.198c0.51-0.468,1.023-0.932,1.541-1.389c0.884-0.781,1.503-1.355,1.855-1.729
		c0.264,0.333,0.516,0.675,0.756,1.027c-0.045,0.014-0.09,0.033-0.134,0.063c-0.402,0.266-0.792,0.546-1.177,0.832
		c-0.851,0.603-1.692,1.22-2.536,1.834c0.179,0.399,0.343,0.81,0.481,1.229c0.836-0.773,1.702-1.516,2.617-2.2
		c0.379-0.268,0.755-0.537,1.135-0.802c0.058-0.041,0.102-0.087,0.137-0.136c0.137,0.231,0.268,0.466,0.396,0.705
		c-0.771,0.497-1.697,1.14-2.605,1.814c-0.508,0.375-1.016,0.748-1.523,1.122c0.168,0.591,0.3,1.194,0.383,1.798
		c0.605-0.684,1.056-1.52,1.767-2.108c0.916-0.759,1.636-1.373,2.197-1.87c0.038,0.227,0.106,0.447,0.204,0.659
		c-0.069,0.025-0.137,0.068-0.2,0.135c-1.157,1.205-2.319,2.396-3.492,3.571c-0.132,0.118-0.269,0.231-0.4,0.347
		c0.038,0.517,0.038,1.032,0.003,1.538c0.455-0.454,0.912-0.909,1.363-1.368c1.152-1.043,2.248-2.151,3.257-3.357
		c0.009-0.01,0.014-0.021,0.023-0.032c0.076,0.225,0.148,0.452,0.216,0.681c0.06,0.198,0.132,0.38,0.219,0.544
		c-0.408,0.267-0.924,0.655-1.534,1.18c-1.212,1.039-2.421,2.083-3.634,3.12c-0.375,2.393-1.691,4.493-4.316,5.526
		c-0.289,0.114-0.584,0.21-0.879,0.296c-1.319,1.184-2.707,2.284-4.168,3.326c-0.343,0.242-0.688,0.484-1.037,0.727
		c-0.136,0.221-0.355,0.402-0.682,0.488c-0.011,0.004-0.02,0.006-0.029,0.008c-3.578,2.486-7.298,5.096-9.303,9.028
		c-0.214,0.421,0.254,1.035,0.708,0.708c0.29-0.211,0.575-0.432,0.862-0.647c-0.393,0.485-0.754,0.99-1.082,1.513
		C317.085-184.884,316.38-185.241,315.7-185.64z M313.795-186.896c0.263-0.219,0.53-0.432,0.79-0.653
		c-0.17,0.289-0.323,0.585-0.468,0.887C314.01-186.739,313.903-186.817,313.795-186.896z M315.267-186.611
		c1.014-1.816,2.598-3.317,4.152-4.673c1.104-0.961,2.268-1.848,3.452-2.707c-0.899,0.712-1.784,1.443-2.645,2.201
		C318.454-190.234,316.978-188.253,315.267-186.611z M310.772-189.61c1.012-0.593,1.967-1.27,2.881-1.999
		c-0.836,0.796-1.652,1.614-2.451,2.452C311.058-189.307,310.913-189.458,310.772-189.61z M307.937-193.472
		c0.045,0,0.091,0,0.139-0.014c0.447-0.117,0.882-0.27,1.307-0.445c-0.351,0.377-0.689,0.764-1.031,1.148
		C308.208-193.011,308.07-193.239,307.937-193.472z M310.264-195.576c2.142-2.113,4.331-4.177,6.563-6.192
		c-0.714,0.793-1.425,1.586-2.163,2.35C313.358-198.067,311.917-196.603,310.264-195.576z M306.833-197.032
		c0.641-0.585,1.291-1.16,1.949-1.727c0.479-0.158,0.941-0.373,1.388-0.624C309.118-198.498,308.019-197.694,306.833-197.032z
		 M305.213-203.809c0.588-0.223,1.149-0.49,1.692-0.793c-0.559,0.526-1.114,1.056-1.67,1.585
		C305.226-203.281,305.214-203.545,305.213-203.809z M307.349-206.12c1.426-1.356,2.909-2.648,4.418-3.91
		c-0.084,0.082-0.168,0.163-0.25,0.244C310.219-208.52,308.87-207.174,307.349-206.12z M307.385-213.478
		c3.085-1.055,5.653-3.37,8.448-4.993c1.658-0.964,3.289-1.976,4.933-2.962c-2.067,1.646-4.114,3.318-6.214,4.926
		c-2.893,2.215-5.923,4.271-8.558,6.783C306.342-211.015,306.812-212.271,307.385-213.478z M325.909-223.279
		c-2.252,1.369-4.445,2.827-6.604,4.338c1.862-1.497,3.723-2.999,5.636-4.433C325.264-223.35,325.589-223.317,325.909-223.279z
		 M322.034-223.394c-1.428,0.82-2.833,1.68-4.24,2.537c0.884-0.822,1.764-1.653,2.711-2.383
		C321.01-223.31,321.522-223.362,322.034-223.394z M336.151-219.339c0.135,0.098,0.271,0.199,0.404,0.3
		c-1.236,0.672-2.464,1.358-3.684,2.057c0.799-0.577,1.597-1.156,2.396-1.735C335.564-218.922,335.858-219.129,336.151-219.339z
		 M344.151-207.35c0.078,0.359,0.146,0.721,0.205,1.083c0.007,0.036,0.008,0.072,0.016,0.107c-0.375,0.25-0.914,0.676-1.627,1.293
		c-1.042,0.906-2.093,1.802-3.146,2.691C341.211-203.832,342.734-205.561,344.151-207.35z M327.729-193.477
		c-0.147,0.104-0.296,0.21-0.443,0.315c4.491-4.107,8.858-8.367,13.709-12.035C337.06-200.796,332.508-196.887,327.729-193.477z
		 M343.744-208.829c0.043,0.12,0.078,0.242,0.116,0.363c-0.047,0.016-0.096,0.036-0.148,0.07c-1.631,1.082-3.197,2.245-4.722,3.458
		c1-1.027,2.024-2.035,3.108-2.99c0.56-0.492,0.988-0.917,1.299-1.265c0.096,0.09,0.201,0.168,0.309,0.238
		C343.72-208.912,343.733-208.866,343.744-208.829z M320.505-183.606c-0.174-0.049-0.348-0.1-0.52-0.152
		c0.686-0.719,1.342-1.471,2.01-2.185c-0.069-0.037-0.139-0.072-0.207-0.112c-0.234-0.143-0.434-0.299-0.604-0.465
		c-0.733,0.813-1.472,1.644-2.248,2.408c-0.056-0.021-0.115-0.042-0.171-0.063c0.604-0.949,1.326-1.834,2.138-2.663
		c-0.408-0.542-0.539-1.16-0.449-1.761c-0.215,0.174-0.427,0.352-0.645,0.521c0.229-0.285,0.465-0.563,0.712-0.834
		c0.274-0.979,1.13-1.863,2.323-2.225c0.014-0.003,0.023-0.006,0.037-0.01c1.201-1,2.486-1.92,3.773-2.812
		c-0.962,0.88-1.935,1.749-2.917,2.606c1.209-0.234,2.48-0.246,3.69-0.121c0.533,0.055,1.214,0.084,1.831,0.227
		c4.842-4.185,10.142-7.95,14.218-12.891c0.414-0.502,0.741-0.921,0.984-1.26c0.037,0.431,0.055,0.867,0.051,1.306
		c-4.096,3.507-8.135,7.097-12.179,10.661c-0.867,0.764-1.718,1.549-2.56,2.343c0.141,0.056,0.274,0.116,0.393,0.192
		c0.21,0.094,0.367,0.249,0.476,0.432c0.503-0.477,1.009-0.951,1.518-1.42c3.554-3.269,7.225-6.456,10.899-9.608
		c-3.213,4.527-7.908,7.713-12.363,11.141c0.062,0.128,0.105,0.264,0.121,0.404c0.203,0.337,0.324,0.675,0.379,1.006
		c0.071-0.064,0.141-0.133,0.211-0.196c2.203-1.958,4.485-3.841,6.837-5.628c-2.275,2.034-4.706,3.908-7.042,5.879
		c0.082,0.576-0.045,1.13-0.353,1.617c0.724-0.634,1.46-1.253,2.206-1.864c-0.785,0.692-1.568,1.385-2.355,2.076
		c-0.244,0.319-0.567,0.602-0.959,0.838c-0.262,0.229-0.521,0.459-0.785,0.685c0.209-0.201,0.425-0.398,0.638-0.597
		c-0.233,0.128-0.485,0.24-0.759,0.333c-1.469,0.5-3.439,0.751-5.152,0.428c-0.423,0.373-0.852,0.742-1.283,1.105
		c0.311-0.399,0.635-0.787,0.963-1.172c-0.369-0.088-0.72-0.205-1.052-0.354c-0.594,0.711-1.158,1.447-1.698,2.209
		C320.577-183.589,320.54-183.598,320.505-183.606z M342.298-194.406c-1.239,0.948-2.406,1.982-3.543,3.058
		c1.235-1.365,2.479-2.715,3.896-3.887C342.538-194.956,342.421-194.681,342.298-194.406z M343.313-197.048
		c-1.447,0.875-2.828,1.834-4.166,2.848c1.416-1.268,2.768-2.602,3.984-4.072c0.314-0.381,0.572-0.699,0.781-0.967
		C343.744-198.499,343.545-197.768,343.313-197.048z M338.017-192.017c-0.79,0.869-1.582,1.742-2.425,2.576
		c-2.166,2.143-4.483,4.121-6.648,6.255c-0.472,0.081-0.946,0.144-1.423,0.188C331.087-185.923,334.431-189.126,338.017-192.017z
		 M330.868-183.627c0.947-0.899,1.912-1.783,2.875-2.667c-0.748,0.828-1.503,1.68-2.293,2.489
		C331.258-183.742,331.063-183.683,330.868-183.627z M333.685-184.705c0.33-0.362,0.66-0.724,0.986-1.077
		c1.369-1.485,2.783-2.988,4.271-4.412c-1.632,1.711-3.238,3.446-4.773,5.244C334.01-184.866,333.846-184.784,333.685-184.705z
		 M344.187-200.622c-0.031,0.182-0.064,0.361-0.099,0.543c-0.323,0.166-0.841,0.495-1.583,0.993
		c-0.021,0.015-0.041,0.03-0.063,0.044c0.673-0.775,1.299-1.596,1.876-2.46C344.278-201.205,344.234-200.91,344.187-200.622z
		 M318.47-222.844c-0.771,0.691-1.517,1.416-2.276,2.114c-2.283,2.103-5.067,3.741-7.782,5.328c0.181-0.3,0.365-0.597,0.561-0.889
		C311.307-219.767,314.705-221.893,318.47-222.844z"/>
	<path d="M326.03-197.507c0.965-0.242,1.563,0.637,1.461,1.396c0.007-0.004,0.012-0.008,0.02-0.013
		c1.624-1.116,3.199-2.3,4.747-3.521c-1.352,0.353-2.737,0.455-4.128,0.551C327.442-198.552,326.74-198.025,326.03-197.507z"/>
	<path d="M327.302-199.034c-1.104,0.383-2.18,0.805-3.131,1.434c0.037-0.007,0.075-0.012,0.112-0.018
		c0.466-0.085,0.836,0.042,1.093,0.273c0.076-0.019,0.154-0.04,0.232-0.059c0.642-0.555,1.285-1.102,1.93-1.648
		C327.458-199.046,327.382-199.041,327.302-199.034z"/>
	<path d="M326.99-201.391c0.021-0.018,0.044-0.036,0.065-0.054c1.688-1.291,3.393-2.561,5.1-3.823
		c0.01-0.063,0.018-0.125,0.022-0.19c0.035-0.603,0.022-1.233-0.08-1.842c-1.843,1.792-3.741,3.482-5.751,5.106
		c-0.455,0.348-0.904,0.703-1.354,1.053c0.618-0.083,1.239-0.146,1.866-0.203C326.901-201.36,326.946-201.376,326.99-201.391z"/>
	<path d="M318.405-206.604c0.105,0.185,0.148,0.398,0.146,0.611c2.02-1.855,4.223-3.536,6.531-5.096
		c-0.963,0.132-1.896,0.372-2.711,0.659C321.19-210.016,317.355-208.452,318.405-206.604z"/>
</g>
<path d="M236.011,66.997c-0.652-8.783-8.688-13.244-16.563-9.563c-22.035,10.292-40.81,26.019-60.453,40.098
	c-8.335,5.965-16.538,12.136-24.915,18.018c-4.508,3.152-9.407,6.459-14.67,8.504c2.756-19.987,3.687-40.158,3.719-60.341
	c0.017-6.219-4.915-10.73-10.917-11.075c-12.885-0.739-25.458,2.924-38.344,2.189c-4.6-0.262-9.826,3.477-10.693,8.095
	c-10.324,54.649-0.702,110.117,1.798,165.012c0.266,5.729,4.707,11.374,10.917,11.075c14.188-0.673,31.848,1.893,40.864-11.868
	c9.074-13.869,4.835-30.383,4.516-46.099c31.939,19.27,59.834,45.02,93.861,60.876c6.277,2.919,14.218,0.71,16.103-6.62
	c6.625-25.65,3.919-52.188,4.687-78.349C236.804,126.794,238.256,97.168,236.011,66.997z M195.923,205.724
	c3.537-2.98,7.281-5.729,10.988-8.526c-2.794,3.4-5.642,6.774-8.281,10.295C197.713,206.911,196.82,206.313,195.923,205.724z
	 M185.101,198.422c1.677-1.83,3.243-3.748,4.774-5.708c5.168-4.965,10.573-9.68,16.114-14.238
	c-6.326,7.103-12.445,14.363-17.169,22.495C187.584,200.124,186.347,199.281,185.101,198.422z M155.749,177.505
	c10.436-8.805,20.312-18.245,30.304-27.556c9.045-8.436,17.198-18.962,27.526-26.038c-5.331,10.563-16.526,19.492-24.268,27.615
	c-9.436,9.9-19.298,19.353-27.634,30.188C159.705,180.303,157.725,178.903,155.749,177.505z M142.133,168.239
	c14.18-13.495,29.781-25.449,43.238-39.701c10.661-11.285,17.643-26.676,29.955-36.316c0.024,0.961,0.054,1.927,0.066,2.887
	c-6.252,15.391-20.092,28.004-30.349,40.37c-11.055,13.318-25.667,23.528-35.808,37.51
	C146.882,171.382,144.516,169.8,142.133,168.239z M127.255,159.078c9.153-8.502,19.328-16.003,28.95-23.948
	c12.91-10.656,23.462-23.847,36.032-34.822c0.045-0.028,0.083-0.058,0.128-0.085c-16.086,23.427-39.888,40.791-55.563,64.588
	C133.665,162.834,130.481,160.925,127.255,159.078z M101.029,74.878c-0.025,1.493-0.042,2.98-0.075,4.475
	c-0.357-0.998-1.561-1.668-2.707-1.511c-6.002,0.813-11.444,4.201-16.434,8.292c0.045-0.429,0.095-0.861,0.145-1.291
	c2.606-2.97,5.379-5.822,7.833-8.773C93.536,75.656,97.28,75.189,101.029,74.878z M100.837,198.488
	c0.004,2.076-0.058,4.146-0.236,6.206c-4.243,4.301-9.564,8.111-14.28,11.756c-0.174-2.785-0.366-5.571-0.573-8.36
	C90.696,204.735,95.607,201.282,100.837,198.488z M99.845,175.32c0,0.98,0.013,1.956,0.038,2.932
	c-3.645,2.354-7.235,4.807-10.809,7.28c0.419-0.46,0.83-0.934,1.266-1.395c2.204-2.415,4.587-4.665,7.04-6.841
	C98.181,176.625,99.011,175.969,99.845,175.32z M165.844,119.507c0.573-0.395,1.142-0.797,1.714-1.197
	c-4.678,4.729-9.411,9.386-14.458,13.713c-8.144,6.975-16.679,13.413-24.694,20.37c3.814-4.952,7.767-9.802,11.826-14.559
	C149.157,132.205,157.5,125.229,165.844,119.507z M129.829,143.494c-3.159,3.908-6.227,7.885-9.203,11.931
	c-0.967-0.505-1.91-1.036-2.873-1.527c3.367-3.135,6.691-6.318,10.009-9.523C128.451,144.095,129.144,143.8,129.829,143.494z
	 M112.814,152.533c-4.986-0.28-9.842,2.556-11.288,7.918c-0.216,0.826-0.377,1.652-0.56,2.479c-3.848,3.201-7.796,6.289-11.876,9.22
	c4.351-9.605,13.255-16.538,21.022-24.093c2.893-0.017,5.703-0.32,8.431-0.868C116.649,148.984,114.735,150.765,112.814,152.533z
	 M81.908,160.825c0.237,0.017,0.481,0,0.727-0.1c6.675-2.582,12.756-6.108,18.617-9.998c-7.771,7.283-15.458,14.589-18.148,25.208
	C82.689,170.9,82.282,165.865,81.908,160.825z M80.713,141.799c5.114-5.507,11.076-10.278,16.098-15.816
	c-0.125,0.719-0.149,1.466-0.049,2.226c0.141,1.158,0.286,2.316,0.431,3.473c-5.404,3.682-10.826,7.343-16.455,10.651
	C80.726,142.153,80.721,141.977,80.713,141.799z M100.518,91.219c-6.937,0.877-12.864,5.075-18.323,10.019
	c6.297-6.606,13.69-12.484,18.527-20.168c0.1-0.143,0.133-0.284,0.187-0.425C100.821,84.169,100.688,87.695,100.518,91.219z
	 M98.484,96.034c-3.624,9.048-11.32,15.349-18.373,22.15c0.012-3.076,0.058-6.151,0.145-9.224
	C85.748,103.436,91.705,97.817,98.484,96.034z M80.141,123.704c6.479-6.979,14.532-12.854,19.651-20.83
	c-0.253,3.221-0.564,6.434-0.926,9.639c-6.816,3.752-12.64,8.938-18.684,13.825C80.165,125.459,80.148,124.582,80.141,123.704z
	 M97.036,118.758c-4.571,6.467-10.839,11.612-16.58,17.195c-0.05-1.384-0.104-2.769-0.141-4.154
	C85.885,127.434,91.149,122.643,97.036,118.758z M98.443,139.773c0.643,2.147,1.714,4.034,3.208,5.465
	c-4.907,3.379-9.921,6.557-15.285,9.126C89.389,148.893,93.839,144.258,98.443,139.773z M81.194,92.444
	c3.711-3.388,7.696-6.558,12.03-8.521c-3.761,4.58-8.182,8.611-12.362,12.806C80.958,95.3,81.07,93.87,81.194,92.444z
	 M91.273,140.937c-3.869,4.096-7.385,8.444-9.817,13.496c-0.17-2.401-0.315-4.795-0.453-7.196
	C84.495,145.252,87.919,143.139,91.273,140.937z M83.378,179.132c0.635,0.76,1.677,1.125,2.678,0.456
	c4.604-3.063,9.021-6.351,13.329-9.768c-1.005,0.885-1.984,1.864-2.827,2.504c-4.699,3.604-8.789,7.895-12.715,12.345
	C83.694,182.826,83.527,180.979,83.378,179.132z M84.623,193.947c5.156-3.554,10.262-7.152,15.493-10.59
	c0.083,1.512,0.182,3.022,0.282,4.533c-4.301,5.085-9.797,9.589-15.144,13.79C85.055,199.107,84.852,196.525,84.623,193.947z
	 M99.049,213.719c-0.104,0.369-0.37,0.789-0.594,1.129c-0.39-0.141-0.846-0.148-1.37,0.05c-1.324,0.507-2.607,1.079-3.881,1.678
	c2.138-1.652,4.304-3.346,6.388-5.11C99.422,212.216,99.26,212.967,99.049,213.719z M214.205,151.483
	c-10.801,9.052-20.253,19.641-30.349,29.491c10.042-10.876,20.76-21.162,30.523-32.283
	C214.33,149.624,214.271,150.553,214.205,151.483z M215.55,117.519c-12.097,6.702-20.585,18.242-30.623,27.482
	c-9.859,9.077-19.506,18.381-29.635,27.132c10.336-13.192,24.4-23.811,35.259-36.383c8.228-9.539,18.29-19.653,25.015-31.116
	C215.608,108.928,215.608,113.225,215.55,117.519z M215.13,134.381c-2.993,1.705-5.853,3.582-8.622,5.6
	c3.201-3.286,6.285-6.698,8.784-10.435C215.247,131.159,215.189,132.77,215.13,134.381z M166.21,184.951
	c15.981-15.135,29.838-33.971,48.68-45.444c-0.029,0.677-0.054,1.354-0.087,2.03c-13.641,16.433-29.772,30.703-43.471,47.101
	C169.622,187.409,167.916,186.181,166.21,184.951z M211.851,159.256c-4.42,4.886-8.979,9.647-13.379,14.571
	c-4.732,5.309-8.535,11.249-12.794,16.82c-1.615,1.577-3.204,3.188-4.774,4.823c-1.211-0.855-2.424-1.711-3.636-2.573
	C189.406,182.361,199.942,170.02,211.851,159.256z M213.724,195.711c-0.008,0.137,0,0.274-0.008,0.415
	c-0.341,0.274-0.673,0.553-1.005,0.835C213.042,196.546,213.391,196.126,213.724,195.711z M213.69,185.981
	c-6.48,6.019-13.998,10.851-20.769,16.538c5.575-9.478,13.172-17.742,20.644-25.995C213.599,179.68,213.649,182.83,213.69,185.981z
	 M213.599,202.009c-0.162,4.637-0.477,9.261-1.042,13.877c-2.552-1.437-5.093-2.91-7.601-4.434
	C207.775,208.214,210.527,204.902,213.599,202.009z M213.553,166.812c-3.604,2.827-7.177,5.679-10.714,8.584
	c3.42-4.201,7.09-8.161,10.772-12.104C213.583,164.466,213.566,165.641,213.553,166.812z M215.143,86.915
	c-13.201,9.078-21.088,24.514-31.129,36.6c-10.656,12.829-24.022,23.251-36.705,34.252c17.364-22.014,40.577-39.401,54.367-64.223
	c4.375-3.047,8.817-5.982,13.375-8.748C215.077,85.503,215.119,86.211,215.143,86.915z"/>
<path d="M265.776-215.943c-0.063-1.767-0.189-3.538-0.295-5.304c-0.09-1.472-0.126-3.286-1.594-4.097
	c-0.753-0.416-1.766-0.459-2.541-0.042c-0.449-0.02-0.932,0.096-1.421,0.403c-8.084,5.058-16.946,8.74-25.141,13.619
	c-2.188,1.302-4.356,2.636-6.565,3.905c-1.756,1.009-4.063,2.055-4.205,4.367c-0.125,2.045,1.635,3.791,3.158,4.89
	c1.97,1.421,4.213,2.507,6.279,3.784c4.731,2.925,9.522,5.748,14.394,8.43c2,1.102,4.046,2.119,6.046,3.22
	c1.781,0.979,3.549,1.884,5.604,2.041c4.275,0.329,5.293-4.818,5.614-7.97c0.407-3.99,0.61-8.113,0.721-12.118
	C265.967-205.843,265.958-210.918,265.776-215.943z M260.073-188.981c-0.843,0.448-1.652,0.959-2.445,1.496
	c0.801-1.119,1.671-2.189,2.52-3.273C260.142-190.163,260.122-189.567,260.073-188.981z M254.763-188.175
	c1.717-1.055,3.338-2.268,4.866-3.586c-1.129,1.459-2.315,2.877-3.349,4.405C255.777-187.632,255.272-187.905,254.763-188.175z
	 M251.028-190.153c2.958-2.756,6.018-5.565,9.443-7.748c-2.688,2.787-5.44,5.518-7.619,8.718
	C252.243-189.505,251.635-189.827,251.028-190.153z M240.926-195.935c3.233-2.705,7.007-4.598,10.651-6.676
	c0.101-0.058,0.197-0.122,0.299-0.181c-3.24,2.476-6.461,4.97-9.422,7.772C241.944-195.321,241.436-195.63,240.926-195.935z
	 M260.589-199.192c-0.104,0.062-0.209,0.123-0.311,0.187c0.106-0.117,0.211-0.233,0.316-0.351
	C260.592-199.302,260.59-199.247,260.589-199.192z M260.584-214.129c0.019,0.354,0.032,0.708,0.046,1.062
	c-0.922,0.239-1.797,0.596-2.631,1.045C258.872-212.71,259.733-213.412,260.584-214.129z M260.681-210.791
	c0,0.22,0,0.44,0.002,0.659c-0.75,0.479-1.486,0.982-2.211,1.498c0.786-0.776,1.524-1.606,2.206-2.501
	C260.678-211.021,260.681-210.905,260.681-210.791z M260.694-207.022c-3.019,1.706-5.631,4.149-8.48,6.102
	c-1.92,1.316-3.89,2.559-5.855,3.809c4.66-3.923,9.711-7.386,14.33-11.366C260.692-207.994,260.692-207.508,260.694-207.022z
	 M260.696-205.235c0,0.38,0,0.76-0.004,1.14c-1.041,0.371-2.058,0.804-3.057,1.291C258.684-203.583,259.71-204.386,260.696-205.235z
	 M260.676-202.203c-1.101,0.804-2.205,1.603-3.311,2.399c1.14-0.891,2.253-1.809,3.315-2.787
	C260.681-202.462,260.678-202.332,260.676-202.203z M260.506-215.769c-0.931,0.538-1.792,1.17-2.614,1.855
	c0.941-1.036,1.796-2.163,2.545-3.404C260.454-216.802,260.479-216.285,260.506-215.769z M253.335-209.765
	c-2.025,1.5-4.074,2.977-6.097,4.479c-1.876,1.338-3.745,2.678-5.651,3.964c3.799-3.354,8.369-5.863,12.355-8.983
	C253.741-210.123,253.54-209.942,253.335-209.765z M239.151-197.409c0.869-0.803,1.762-1.58,2.668-2.34
	c2.785-2.104,5.942-3.677,8.873-5.605c3.034-1.997,5.7-5.054,9.143-6.376c-5.066,6.707-13.666,9.643-19.811,15.204
	c-0.012,0.01-0.02,0.022-0.03,0.033c-0.436-0.261-0.872-0.521-1.304-0.785C238.839-197.243,239.005-197.273,239.151-197.409z
	 M248.135-197.03c-1.214,1.025-2.364,2.122-3.425,3.324c-0.302-0.176-0.607-0.352-0.911-0.529
	C245.233-195.183,246.685-196.106,248.135-197.03z M258.576-202.113c-3.862,3.27-8.209,5.978-11.702,9.653
	c-0.374-0.213-0.75-0.426-1.123-0.64C249.626-196.499,253.863-199.923,258.576-202.113z M260.464-200.776
	c-3.094,3.705-6.942,6.744-10.405,10.1c-0.07-0.038-0.142-0.074-0.21-0.113c-0.577-0.317-1.146-0.645-1.722-0.967
	C252.176-194.851,256.345-197.78,260.464-200.776z M260.245-194.308c-0.021,0.209-0.037,0.424-0.05,0.643
	c-1.938,1.811-4.042,3.443-6.313,4.805c1.9-2.734,4.229-5.123,6.549-7.516C260.378-195.687,260.317-194.997,260.245-194.308z
	 M260.389-219.218c0,0.026,0.002,0.052,0.002,0.077c0.001,0.239,0.009,0.478,0.012,0.717c-0.133-0.059-0.294-0.065-0.446,0.025
	c-4.377,2.576-8.128,6.032-12.19,9.047c-2.128,1.579-4.306,3.105-6.397,4.732c4.791-4.405,10.896-7.521,15.197-12.473
	c0.809-0.429,1.61-0.862,2.41-1.308C259.449-218.667,259.919-218.942,260.389-219.218z M246.083-209.835
	c0.996-0.908,1.993-1.817,2.992-2.722c0.232-0.211,0.181-0.511,0.004-0.701c0.824-0.418,1.648-0.834,2.473-1.251
	C249.751-212.926,247.95-211.337,246.083-209.835z M243.012-210.058c-0.705,0.62-1.393,1.256-2.089,1.854
	c-1.593,1.367-3.34,2.52-5.062,3.707c1.026-1.089,2.062-2.167,3.085-3.257C240.296-208.534,241.649-209.304,243.012-210.058z
	 M231.632-202.526c-0.105,0.349,0.178,0.623,0.482,0.641c-0.144,0.167-0.283,0.336-0.424,0.505c-0.596-0.353-1.17-0.729-1.699-1.146
	c0.697-0.415,1.408-0.812,2.113-1.215C231.923-203.352,231.76-202.95,231.632-202.526z M240.812-206.792
	c1.709-1.28,3.211-2.933,4.965-4.16c-2.371,2.163-4.741,4.328-7.154,6.441c-1.813,1.255-3.57,2.575-5.139,4.136
	c-0.26-0.141-0.521-0.282-0.779-0.425C235.215-203.047,238.119-204.774,240.812-206.792z M234.594-199.763
	c1.181-0.957,2.343-1.931,3.49-2.92c-0.74,0.872-1.427,1.799-2.038,2.803c-0.308,0.502,0.404,1.053,0.811,0.627
	c3.391-3.545,7.479-6.333,11.432-9.206c3.455-2.511,6.635-5.383,10.176-7.77c-5.423,7.305-14.988,10.307-20.73,17.397
	c-0.344,0.422,0.07,1.101,0.59,0.83c-0.1,0.194-0.047,0.401,0.078,0.547c-0.978-0.596-1.955-1.191-2.929-1.795
	C235.187-199.425,234.893-199.595,234.594-199.763z M259.319-185.983c-0.1-0.011-0.304-0.039-0.662-0.156
	c-0.246-0.082-0.49-0.189-0.731-0.309c0.643-0.445,1.298-0.875,1.972-1.268C259.776-187.104,259.592-186.522,259.319-185.983z"/>
<path d="M422.511-208.19c-1.97-1.421-4.213-2.506-6.281-3.784c-4.729-2.924-9.52-5.748-14.391-8.429
	c-2.003-1.101-4.047-2.119-6.047-3.22c-1.781-0.979-3.548-1.882-5.604-2.041c-4.275-0.329-5.295,4.819-5.615,7.97
	c-0.408,3.991-0.61,8.114-0.719,12.118c-0.138,5.026-0.129,10.101,0.053,15.126c0.062,1.768,0.189,3.539,0.295,5.305
	c0.089,1.473,0.124,3.287,1.593,4.098c0.716,0.395,1.665,0.456,2.422,0.106c0.091-0.021,0.185-0.041,0.276-0.062
	c0.289-0.008,0.59-0.077,0.899-0.214c0.371-0.12,0.672-0.302,0.909-0.524c7.938-4.887,16.584-8.518,24.598-13.287
	c2.188-1.303,4.356-2.635,6.564-3.905c1.755-1.009,4.063-2.054,4.203-4.368C425.794-205.345,424.035-207.09,422.511-208.19z
	 M407.301-211.331c-6.074,2.714-11.329,6.805-16.857,10.457c5.081-3.903,10.77-7.018,15.696-11.135
	C406.527-211.783,406.914-211.559,407.301-211.331z M412.401-208.253c-2.724,1.338-5.345,2.909-7.864,4.624
	c2.265-1.686,4.448-3.48,6.466-5.479C411.471-208.825,411.936-208.538,412.401-208.253z M417.301-205.414
	c-5.255,2.961-9.757,7.109-14.799,10.405c-2.319,1.518-4.677,2.975-7.011,4.469c-1.313,0.676-2.621,1.362-3.916,2.071
	c7.428-6.685,17.014-10.794,24.278-17.738C416.335-205.944,416.819-205.682,417.301-205.414z M389.082-192.642
	c3.812-3.059,7.944-5.706,11.964-8.489c-0.492,0.368-0.98,0.738-1.465,1.114c-3.332,2.574-6.67,5.55-10.496,7.449
	C389.083-192.592,389.083-192.617,389.082-192.642z M389.284-187.72c-0.008-0.438-0.021-0.875-0.036-1.312
	c4.178-2.289,7.987-5.226,11.891-7.94c3.608-2.508,7.253-5,10.983-7.343C404.795-198.411,395.948-194.376,389.284-187.72z
	 M389.138-191.452c0.556-0.265,1.101-0.551,1.637-0.855c-0.543,0.391-1.082,0.787-1.621,1.185
	C389.149-191.233,389.144-191.343,389.138-191.452z M399.028-198.286c3.19-2.508,6.524-4.924,10.041-6.998
	c-3.93,3.028-8.031,5.824-12.117,8.64C397.647-197.193,398.339-197.745,399.028-198.286z M388.993-202.696
	c5.16-3.15,9.982-6.905,15.522-9.318c-4.954,3.954-10.569,7.034-15.528,10.971C388.987-201.594,388.989-202.145,388.993-202.696z
	 M389.024-204.958c0.004-0.131,0.006-0.263,0.01-0.395c3.666-2.122,7.144-4.574,10.814-6.686c-2.064,1.588-4.202,3.09-6.411,4.423
	C391.976-206.734,390.464-205.895,389.024-204.958z M388.99-198.706c4.724-2.965,9.161-6.395,13.964-9.208
	c-2.646,2.034-5.275,4.095-8.026,5.972c-1.946,1.327-4.007,2.559-5.933,3.952C388.993-198.229,388.992-198.468,388.99-198.706z
	 M409.511-210.007c-1.977,0.796-3.879,1.73-5.729,2.763c1.52-1.17,3.047-2.329,4.613-3.431
	C408.767-210.453,409.138-210.23,409.511-210.007z M400.193-210.989c1.101-0.846,2.18-1.716,3.235-2.596
	c0.305,0.174,0.606,0.354,0.91,0.53C402.916-212.443,401.54-211.745,400.193-210.989z M402.01-214.382
	c-4.196,2.113-8.04,4.843-12.054,7.278c3.672-2.618,7.658-4.826,11.004-7.867C401.311-214.775,401.659-214.579,402.01-214.382z
	 M389.118-207.76c0.008-0.187,0.02-0.374,0.028-0.56c1.34-0.681,2.661-1.397,3.968-2.142
	C391.769-209.578,390.423-208.695,389.118-207.76z M399.683-215.685c-2.033,1.311-4.089,2.592-6.179,3.81
	c1.853-1.309,3.632-2.708,5.241-4.317C399.058-216.023,399.371-215.855,399.683-215.685z M389.563-216.663
	c0.679-0.228,1.341-0.514,1.989-0.835c-0.678,0.527-1.35,1.062-2.015,1.604C389.542-216.15,389.551-216.407,389.563-216.663z
	 M395.054-218.146c-1.273,0.749-2.529,1.538-3.837,2.22c1.079-0.857,2.169-1.695,3.267-2.527
	C394.676-218.35,394.865-218.247,395.054-218.146z M392.86-219.339c-0.961,0.555-1.932,1.083-2.939,1.479
	c0.833-0.625,1.678-1.243,2.587-1.682C392.624-219.474,392.743-219.407,392.86-219.339z M389.526-214.021
	c2.309-0.907,4.361-2.317,6.515-3.537c-2.003,1.666-4.276,2.985-6.53,4.33C389.519-213.488,389.522-213.753,389.526-214.021z
	 M389.393-211.558c2.688-1.483,5.261-3.177,7.931-4.703c-2.442,2.286-5.229,4.15-8.047,5.977
	C389.31-210.708,389.35-211.133,389.393-211.558z M409.118-208.732c-6.117,5.66-13.529,9.686-20.084,14.813
	c-0.018-0.561-0.031-1.121-0.031-1.684c0-0.088-0.002-0.176-0.002-0.264C395.435-200.581,401.774-205.622,409.118-208.732z
	 M412.763-201.245c0.827-0.592,1.665-1.17,2.514-1.726c-0.029,0.026-0.055,0.051-0.084,0.077
	C414.392-202.334,413.581-201.786,412.763-201.245z M414.489-206.98c-4.745,2.84-9.322,5.983-13.872,9.116
	c-3.058,2.106-6.044,4.362-9.189,6.342c7.377-5.338,15.138-10.151,22.107-16.036c0.226,0.139,0.451,0.274,0.675,0.414
	C414.301-207.088,414.396-207.034,414.489-206.98z M390.362-220.409c0.1,0.012,0.304,0.038,0.664,0.156
	c0.125,0.042,0.25,0.092,0.375,0.145c-0.521,0.307-1.023,0.657-1.521,1.019C389.997-219.552,390.153-219.994,390.362-220.409z
	 M414.233-200.685c0.541-0.449,1.068-0.914,1.574-1.396c0.762-0.528,1.518-1.066,2.262-1.618c0.143,0.145,0.356,0.198,0.573,0.039
	c0.279-0.204,0.492-0.345,0.624-0.527c0.146,0.104,0.287,0.21,0.426,0.319c-1.009,0.598-2.041,1.16-3.05,1.758
	C415.838-201.634,415.036-201.159,414.233-200.685z"/>
<path d="M500.308-222.036c-0.063-1.347-1.105-2.676-2.568-2.606c-3.337,0.159-7.492-0.444-9.612,2.793
	c-2.136,3.263-1.137,7.147-1.062,10.845c-7.515-4.534-14.076-10.591-22.082-14.321c-1.474-0.688-3.342-0.167-3.789,1.557
	c-1.559,6.035-0.922,12.277-1.101,18.433c-0.208,7.092-0.549,14.063-0.022,21.161c0.153,2.066,2.044,3.115,3.897,2.25
	c5.184-2.422,9.601-6.121,14.224-9.433c1.957-1.404,3.887-2.856,5.86-4.239c1.058-0.742,2.212-1.52,3.448-2.001
	c-0.646,4.702-0.865,9.448-0.873,14.196c-0.006,1.462,1.154,2.523,2.567,2.604c3.032,0.174,5.991-0.688,9.023-0.515
	c1.079,0.061,2.308-0.818,2.513-1.904C503.161-196.073,500.899-209.122,500.308-222.036z M468.483-190.655
	c3.899-3.92,7.684-7.954,11.524-11.932c-2.112,2.682-4.45,5.206-6.259,8.08C471.995-193.222,470.26-191.905,468.483-190.655z
	 M468.397-217.519c-0.966,0.682-1.994,1.304-3.061,1.845c0.017-0.579,0.045-1.156,0.084-1.733c0.414-0.39,0.834-0.775,1.253-1.165
	C467.253-218.23,467.831-217.879,468.397-217.519z M480.114-209.362c-5.672,4.718-10.037,10.729-15.236,15.924
	c0-0.23-0.006-0.461-0.006-0.69c3.855-5.913,10.693-9.723,14.258-15.921C479.456-209.82,479.784-209.59,480.114-209.362z
	 M483.194-207.32c-5.379,5.396-10.526,11.019-15.913,16.407c4.245-6.209,11.321-10.416,13.901-17.722
	C481.847-208.188,482.517-207.75,483.194-207.32z M465.36-208.5c0-0.181,0-0.361,0-0.542c1.043-0.694,2.094-1.378,3.143-2.063
	C467.432-210.263,466.364-209.415,465.36-208.5z M464.921-197.943c3.898-4.276,8.082-8.349,12.771-11.734
	c-3.396,5.272-9.039,8.858-12.81,13.813C464.892-196.558,464.901-197.251,464.921-197.943z M465.001-200.364
	c0.02-0.456,0.038-0.914,0.063-1.37c3.636-2.058,6.629-5.129,9.701-8.018C471.846-206.339,468.021-203.696,465.001-200.364z
	 M465.13-202.949c0.02-0.294,0.038-0.588,0.057-0.882c2.963-3.351,6.805-5.918,10.146-8.929c0.225,0.161,0.448,0.322,0.673,0.483
	C472.454-209.145,469.188-205.39,465.13-202.949z M465.284-205.436c0.006-0.112,0.015-0.224,0.018-0.336
	c0.232-0.113,0.458-0.237,0.682-0.359C465.749-205.902,465.515-205.671,465.284-205.436z M465.333-211.443
	c0.225-0.139,0.446-0.281,0.666-0.426c-0.222,0.202-0.444,0.405-0.664,0.61C465.335-211.321,465.335-211.382,465.333-211.443z
	 M465.315-213.327c-0.003-0.396-0.003-0.792,0-1.186c1.01-0.486,1.992-1.043,2.93-1.657
	C467.36-215.148,466.353-214.213,465.315-213.327z M464.892-192.001c5.149-4.988,9.412-10.846,14.773-15.616
	c-3.262,7.252-11.08,11.456-14.693,18.56C464.935-190.038,464.905-191.02,464.892-192.001z M477.776-211.006
	c-0.553,0.386-1.095,0.785-1.632,1.19c0.398-0.498,0.776-1.013,1.13-1.548C477.44-211.246,477.608-211.126,477.776-211.006z
	 M465.345-206.944c0-0.054,0-0.106,0.003-0.159c2.54-2.519,5.644-4.437,8.218-6.922c0.209,0.149,0.418,0.3,0.628,0.45
	C471.364-211.202,468.581-208.641,465.345-206.944z M466.646-211.121c1.602-1.46,3.297-2.823,4.791-4.392
	c0.289,0.199,0.579,0.396,0.867,0.598C470.458-213.591,468.551-212.36,466.646-211.121z M470.227-216.334
	c-0.519,0.416-1.038,0.831-1.561,1.241c0.433-0.47,0.844-0.957,1.22-1.465C469.999-216.483,470.113-216.409,470.227-216.334z
	 M465.558-218.947c0.011-0.084,0.021-0.169,0.031-0.254c0.052,0.029,0.104,0.056,0.154,0.084
	C465.683-219.06,465.62-219.003,465.558-218.947z M476.577-196.528c-0.145,0.1-0.287,0.201-0.432,0.303
	c2.631-3.515,5.849-6.655,7.935-10.544c0,0,0.001,0,0.001-0.001c0.619,0.38,1.245,0.75,1.878,1.109
	c-2.343,2.031-4.296,4.452-6.262,6.853C478.644-198.026,477.611-197.235,476.577-196.528z M491.826-186.028
	c0.005-0.363,0.011-0.725,0.02-1.087c0.688-0.435,1.371-0.876,2.044-1.327c-0.653,0.771-1.279,1.566-1.859,2.396
	C491.962-186.04,491.895-186.035,491.826-186.028z M491.885-188.364c0.003-0.064,0.003-0.131,0.006-0.195
	c1.673-1.815,3.41-3.585,4.826-5.586c-0.024,0.809-0.059,1.617-0.108,2.424C495.116-190.491,493.517-189.406,491.885-188.364z
	 M487.391-204.886c-0.056,0.045-0.109,0.09-0.163,0.136c0.032-0.058,0.061-0.118,0.091-0.175
	C487.342-204.912,487.366-204.898,487.391-204.886z M492.04-208.118c0.039-0.439,0.063-0.88,0.066-1.322
	c0.561-0.348,1.13-0.681,1.707-1.001C493.151-209.731,492.556-208.965,492.04-208.118z M491.5-204.949
	c0.978-1.036,2.073-1.96,3.253-2.776c-1.172,1.601-2.161,3.332-3.221,5.015c-0.342-0.275-0.764-0.459-1.271-0.515
	C490.681-203.796,491.097-204.367,491.5-204.949z M492.288-194.46c0.361-0.291,0.729-0.578,1.097-0.863
	c-0.382,0.412-0.761,0.826-1.136,1.244C492.26-194.206,492.274-194.333,492.288-194.46z M496.704-199.19
	c-1.205,0.986-2.459,1.916-3.698,2.863c1.237-1.671,2.479-3.337,3.618-5.073C496.658-200.663,496.687-199.927,496.704-199.19z
	 M496.53-203.19c-1.17,1.92-2.492,3.738-3.83,5.546c0-0.002,0.002-0.003,0.002-0.006c0.115-0.288,0.17-0.6,0.129-0.926
	c-0.055-0.438-0.109-0.876-0.164-1.313c1.123-1.334,2.431-2.604,3.855-3.432C496.524-203.276,496.528-203.233,496.53-203.19z
	 M492.347-201.555c-0.002-0.007-0.003-0.014-0.008-0.02c0.041-0.044,0.082-0.088,0.123-0.132
	C492.423-201.657,492.385-201.606,492.347-201.555z M496.233-207.459c-0.656,0.809-1.338,1.591-2.035,2.36
	c0.619-0.974,1.271-1.924,2-2.818C496.209-207.765,496.222-207.612,496.233-207.459z M496.048-209.753
	c-1.029,0.582-2.016,1.233-2.939,1.955c-0.006-0.019-0.015-0.034-0.02-0.053c0.789-1.222,1.77-2.255,2.848-3.21
	C495.974-210.626,496.01-210.189,496.048-209.753z M496.743-197.382c0.001,0.209,0.001,0.418,0.001,0.627
	c-1.302,1.26-2.647,2.477-4.009,3.672C494.029-194.55,495.401-195.954,496.743-197.382z M495.231-203.71
	c0.405-0.576,0.793-1.164,1.15-1.77c0.023,0.342,0.048,0.684,0.07,1.026C496.032-204.237,495.627-203.988,495.231-203.71z
	 M495.801-212.652c-0.201,0.102-0.399,0.205-0.601,0.308c0.199-0.16,0.394-0.323,0.585-0.487
	C495.79-212.771,495.795-212.712,495.801-212.652z M495.536-215.863c-0.852,0.48-1.708,0.949-2.571,1.405
	c0.841-0.835,1.673-1.676,2.485-2.538C495.479-216.618,495.508-216.24,495.536-215.863z M492.397-217.853
	c0.459-0.471,0.977-1.038,1.546-1.537c0.444-0.028,0.89-0.037,1.337-0.042c0.002,0.014,0.003,0.029,0.003,0.043
	c-1.069,0.733-2.159,1.436-3.275,2.091c0.007-0.057,0.017-0.112,0.026-0.168C492.155-217.593,492.274-217.726,492.397-217.853z
	 M494.813-217.829c-0.957,1.022-1.945,2.013-2.941,3c-0.008-0.403,0.001-0.803,0.02-1.203
	C492.888-216.594,493.858-217.199,494.813-217.829z M491.964-212.783c1.238-0.618,2.457-1.271,3.663-1.945
	c0.018,0.213,0.036,0.426,0.054,0.638c-1.129,1.039-2.388,1.961-3.62,2.908C492.034-211.716,491.999-212.25,491.964-212.783z
	 M485.28-203.62c-0.666,0.872-1.426,1.685-2.201,2.487c-0.089,0.054-0.18,0.107-0.27,0.163
	C483.601-201.884,484.421-202.773,485.28-203.62z M488.44-204.403c0.379,0.108,0.77,0.133,1.145,0.083
	c-0.284,0.363-0.555,0.738-0.811,1.123c-0.789,0.076-1.551,0.241-2.289,0.476C487.117-203.304,487.769-203.866,488.44-204.403z
	 M492.012-191.089c1.132-0.973,2.254-1.957,3.357-2.961c-1.042,1.377-2.224,2.656-3.41,3.932
	C491.975-190.442,491.993-190.766,492.012-191.089z M496.206-187.521c-0.439,0.404-0.894,0.795-1.357,1.17
	c-0.479,0.05-0.959,0.105-1.438,0.16c0.938-1.252,1.977-2.426,3.047-3.576C496.389-189.017,496.306-188.268,496.206-187.521z"/>
</svg>
