<?xml version="1.0" encoding="utf-8"?>
<!-- Generator: Adobe Illustrator 15.0.0, SVG Export Plug-In . SVG Version: 6.00 Build 0)  -->
<!DOCTYPE svg PUBLIC "-//W3C//DTD SVG 1.1//EN" "http://www.w3.org/Graphics/SVG/1.1/DTD/svg11.dtd">
<svg version="1.1" id="Layer_1" xmlns="http://www.w3.org/2000/svg" xmlns:xlink="http://www.w3.org/1999/xlink" x="0px" y="0px"
	 width="295.701px" height="295.701px" viewBox="0 0 295.701 295.701" enable-background="new 0 0 295.701 295.701"
	 xml:space="preserve">
<g>
	<path d="M349.503-206.472c-0.283-2.536-0.926-5.341-2.561-7.346c-1.848-4.488-5.15-8.115-9.191-10.658
		c-0.088-0.204-0.32-0.363-0.564-0.346c-8.043-4.783-18.785-5.355-26.805-0.001c-5.971,3.988-9.162,10.707-10.111,17.65
		c-0.992,7.268,1.295,14.497,5.879,20.136c7.779,9.565,22.396,12.44,32.658,5.246c5.176-3.629,8.393-9.541,9.959-15.557
		C349.536-200.298,349.845-203.438,349.503-206.472z M324.874-182.927c0.32-0.244,0.637-0.496,0.941-0.758
		c-0.217,0.252-0.428,0.51-0.637,0.77C325.077-182.917,324.976-182.923,324.874-182.927z M322.657-183.146
		c0.344-0.282,0.686-0.566,1.021-0.856c-0.25,0.294-0.496,0.595-0.736,0.898C322.847-183.117,322.753-183.131,322.657-183.146z
		 M315.7-185.64c1.523-1.451,2.84-3.174,4.365-4.607c1.832-1.725,3.811-3.287,5.852-4.756c-0.754,0.154-1.502,0.228-2.217,0.159
		c-0.191,0.271-0.502,0.478-0.934,0.516c-0.078,0.006-0.15,0.026-0.225,0.038c-0.107,0.064-0.229,0.117-0.377,0.148
		c-0.596,0.125-1.01,0.138-1.494-0.268c-0.045-0.035-0.082-0.074-0.117-0.111c-0.186-0.016-0.363-0.03-0.547-0.037
		c-0.074-0.004-0.139-0.02-0.205-0.033c-0.52,0.448-1.033,0.898-1.539,1.362c-1.309,1.198-2.553,2.465-3.771,3.753
		c-0.547,0.578-1.08,1.222-1.637,1.842c-0.258-0.215-0.514-0.435-0.76-0.66c2.377-2.197,4.686-4.455,7.07-6.635
		c-0.283-0.31-0.383-0.759-0.281-1.16c-0.021-0.024-0.039-0.051-0.061-0.074c-0.512,0.424-1.021,0.848-1.527,1.279
		c0.479-0.467,0.955-0.938,1.432-1.407c-0.049-0.067-0.094-0.14-0.135-0.216c-0.141-0.254-0.215-0.498-0.238-0.734
		c-2.168,2.125-4.346,4.254-6.816,5.924c1.965-2.262,4.365-4.137,6.816-5.924c-0.162-1.562,1.949-2.717,3.205-3.141
		c0.785-0.264,1.568-0.449,2.355-0.592c2.695-2.167,5.414-4.309,8.166-6.408c-0.127-0.709-0.379-1.387-0.813-1.955
		c-3.094,2.931-6.203,5.849-9.592,8.416c-4.133,3.127-8.734,5.975-11.904,10.146c-0.242-0.3-0.473-0.608-0.695-0.921
		c4.693-2.742,8.293-6.985,12.502-10.37c3.145-2.528,6.275-5.084,9.525-7.472c-0.107-0.121-0.221-0.238-0.348-0.345
		c-0.145-0.124-0.295-0.236-0.451-0.34c-2.734,2.021-5.393,4.155-8.041,6.289c-3.758,3.023-7.16,6.742-11.084,9.617
		c0.764-0.793,1.539-1.574,2.33-2.336c0.332-0.298,0.66-0.605,0.979-0.922c4.912-4.59,10.279-8.678,15.652-12.745
		c-0.328-0.203-0.68-0.366-1.049-0.493c-2.848,2.155-5.689,4.318-8.459,6.561c2.342-2.295,5.162-4.232,7.785-6.165
		c0.195-0.145,0.393-0.285,0.59-0.426c-0.838-0.276-1.75-0.375-2.674-0.351c-6.559,5.266-12.861,10.846-18.764,16.844
		c-0.029,0.027-0.045,0.06-0.063,0.09c-0.271-0.518-0.518-1.047-0.74-1.588c4.041-2.087,7.277-5.779,10.504-8.94
		c-0.646,0.023-1.279-0.2-1.863-0.587c-2.428,1.848-4.836,3.726-7.152,5.708c-0.035,0.009-0.072,0.021-0.105,0.028
		c1.764-2.465,3.955-4.59,6.262-6.598c-0.223-0.241-0.438-0.501-0.633-0.775c-2.678,2.323-5.213,4.789-7.15,7.768
		c-0.186,0.284-0.004,0.649,0.289,0.749c-0.279,0.247-0.551,0.499-0.824,0.748c-0.006-0.012-0.01-0.023-0.012-0.037
		c-0.379-1.27-0.623-2.571-0.756-3.883c3.053-1.329,5.551-3.679,8.02-6.018c-0.643-1.1-1.045-2.318-1.076-3.283
		c-0.008-0.285,0.01-0.563,0.039-0.838c-2.428,1.99-4.818,4.021-7.025,6.256c0.055-0.685,0.135-1.369,0.248-2.046
		c2.334-1.672,4.639-3.388,6.941-5.102c0.561-2.116,2.225-3.84,4.186-4.876c1.943-1.024,4.125-1.648,6.34-1.833
		c1.518-1.262,3.068-2.479,4.695-3.585c0.67,0.135,1.334,0.301,1.986,0.496c-0.412,0.247-0.824,0.495-1.234,0.749
		c-1.313,0.747-2.623,1.508-3.922,2.282c0.689,0.006,1.375,0.056,2.057,0.15c0.914-0.606,1.838-1.198,2.771-1.772
		c0.568-0.318,1.135-0.635,1.701-0.951c0.234,0.087,0.467,0.176,0.699,0.271c-1.418,0.875-2.844,1.737-4.268,2.603
		c0.846,0.168,1.674,0.411,2.471,0.725c1.219-0.818,2.434-1.636,3.633-2.479c0.563,0.294,1.113,0.613,1.646,0.956
		c-0.197,0.142-0.395,0.285-0.592,0.427c-0.965,0.665-1.947,1.305-2.941,1.933c0.836,0.478,1.625,1.049,2.344,1.722
		c1.035-0.778,2.076-1.548,3.119-2.313c0.086-0.062,0.143-0.135,0.18-0.213c0.328,0.279,0.646,0.568,0.957,0.867
		c-0.139-0.061-0.299-0.071-0.449,0.005c-1.184,0.6-2.359,1.242-3.529,1.918c0.172,0.172,0.342,0.348,0.51,0.532
		c0.207,0.233,0.406,0.482,0.602,0.742c1.02-0.787,2.035-1.58,3.045-2.38c0.184-0.145,0.209-0.333,0.141-0.497
		c0.324,0.331,0.635,0.672,0.934,1.027c-0.473,0.227-1.207,0.643-2.219,1.244c-0.547,0.325-1.084,0.664-1.623,1.003
		c0.258,0.379,0.494,0.78,0.709,1.198c0.51-0.468,1.023-0.932,1.541-1.389c0.885-0.781,1.504-1.355,1.855-1.729
		c0.264,0.333,0.516,0.675,0.756,1.027c-0.045,0.014-0.09,0.033-0.135,0.063c-0.402,0.266-0.791,0.546-1.176,0.832
		c-0.852,0.604-1.693,1.22-2.537,1.834c0.18,0.399,0.344,0.81,0.48,1.229c0.838-0.773,1.703-1.516,2.617-2.2
		c0.379-0.268,0.756-0.537,1.137-0.802c0.057-0.041,0.102-0.087,0.137-0.136c0.137,0.231,0.268,0.466,0.395,0.705
		c-0.77,0.497-1.695,1.14-2.604,1.814c-0.508,0.375-1.018,0.748-1.523,1.122c0.168,0.591,0.299,1.194,0.383,1.798
		c0.605-0.684,1.057-1.52,1.768-2.108c0.916-0.759,1.635-1.373,2.197-1.87c0.037,0.227,0.105,0.447,0.203,0.659
		c-0.068,0.025-0.137,0.068-0.199,0.135c-1.158,1.205-2.32,2.396-3.492,3.571c-0.133,0.118-0.27,0.231-0.4,0.347
		c0.037,0.517,0.037,1.032,0.002,1.538c0.455-0.454,0.912-0.909,1.363-1.368c1.152-1.043,2.248-2.151,3.258-3.357
		c0.008-0.01,0.014-0.021,0.023-0.032c0.076,0.225,0.146,0.452,0.215,0.681c0.061,0.198,0.133,0.38,0.219,0.544
		c-0.408,0.267-0.924,0.655-1.533,1.18c-1.213,1.039-2.422,2.083-3.635,3.12c-0.375,2.393-1.689,4.493-4.314,5.526
		c-0.289,0.114-0.584,0.21-0.881,0.296c-1.318,1.184-2.707,2.284-4.168,3.326c-0.342,0.242-0.688,0.484-1.035,0.727
		c-0.137,0.221-0.355,0.402-0.684,0.488c-0.01,0.004-0.02,0.006-0.029,0.008c-3.576,2.486-7.297,5.096-9.303,9.028
		c-0.213,0.421,0.254,1.035,0.709,0.708c0.289-0.211,0.574-0.432,0.861-0.647c-0.393,0.485-0.754,0.99-1.082,1.513
		C317.085-184.884,316.38-185.241,315.7-185.64z M313.796-186.896c0.262-0.219,0.529-0.432,0.789-0.653
		c-0.17,0.289-0.322,0.585-0.469,0.887C314.011-186.739,313.903-186.817,313.796-186.896z M315.267-186.611
		c1.014-1.816,2.598-3.317,4.152-4.673c1.104-0.961,2.268-1.848,3.451-2.707c-0.898,0.712-1.783,1.443-2.645,2.201
		C318.454-190.234,316.978-188.253,315.267-186.611z M310.772-189.61c1.012-0.593,1.967-1.27,2.881-1.999
		c-0.836,0.796-1.652,1.614-2.451,2.452C311.058-189.307,310.913-189.458,310.772-189.61z M307.937-193.472
		c0.045,0,0.092,0,0.139-0.014c0.447-0.117,0.883-0.27,1.309-0.445c-0.352,0.377-0.689,0.764-1.031,1.148
		C308.208-193.011,308.069-193.239,307.937-193.472z M310.265-195.576c2.141-2.113,4.33-4.177,6.563-6.192
		c-0.715,0.793-1.426,1.586-2.164,2.35C313.358-198.067,311.917-196.603,310.265-195.576z M306.833-197.032
		c0.641-0.585,1.291-1.16,1.949-1.727c0.479-0.158,0.941-0.373,1.389-0.624C309.118-198.498,308.019-197.694,306.833-197.032z
		 M305.214-203.809c0.588-0.223,1.148-0.49,1.691-0.793c-0.559,0.526-1.115,1.056-1.67,1.585
		C305.226-203.281,305.214-203.545,305.214-203.809z M307.349-206.12c1.426-1.356,2.91-2.648,4.418-3.91
		c-0.084,0.082-0.168,0.163-0.25,0.244C310.22-208.52,308.87-207.174,307.349-206.12z M307.386-213.478
		c3.084-1.055,5.652-3.37,8.447-4.993c1.658-0.964,3.289-1.977,4.934-2.962c-2.068,1.646-4.115,3.318-6.215,4.926
		c-2.893,2.215-5.922,4.271-8.559,6.783C306.343-211.015,306.812-212.271,307.386-213.478z M325.909-223.279
		c-2.252,1.369-4.445,2.827-6.604,4.338c1.861-1.497,3.723-2.999,5.635-4.433C325.265-223.35,325.589-223.317,325.909-223.279z
		 M322.034-223.394c-1.428,0.82-2.834,1.68-4.24,2.537c0.885-0.822,1.764-1.653,2.711-2.383
		C321.011-223.31,321.522-223.362,322.034-223.394z M336.151-219.339c0.135,0.098,0.271,0.199,0.404,0.3
		c-1.236,0.672-2.465,1.358-3.686,2.057c0.801-0.577,1.598-1.156,2.396-1.735C335.563-218.922,335.858-219.129,336.151-219.339z
		 M344.151-207.35c0.078,0.359,0.146,0.721,0.205,1.083c0.006,0.036,0.008,0.072,0.016,0.107c-0.375,0.25-0.914,0.676-1.627,1.293
		c-1.043,0.906-2.094,1.802-3.146,2.691C341.212-203.832,342.733-205.561,344.151-207.35z M327.729-193.477
		c-0.148,0.104-0.297,0.21-0.443,0.315c4.49-4.107,8.857-8.367,13.709-12.035C337.06-200.796,332.509-196.887,327.729-193.477z
		 M343.743-208.829c0.043,0.12,0.078,0.242,0.117,0.363c-0.047,0.016-0.096,0.036-0.148,0.07c-1.631,1.082-3.197,2.245-4.723,3.458
		c1-1.027,2.025-2.035,3.109-2.99c0.559-0.492,0.988-0.917,1.299-1.265c0.096,0.09,0.201,0.168,0.309,0.238
		C343.72-208.912,343.733-208.866,343.743-208.829z M320.505-183.606c-0.174-0.049-0.348-0.1-0.52-0.152
		c0.686-0.719,1.342-1.471,2.01-2.185c-0.068-0.037-0.139-0.072-0.207-0.112c-0.234-0.144-0.434-0.299-0.604-0.465
		c-0.734,0.813-1.473,1.644-2.248,2.408c-0.057-0.021-0.115-0.042-0.172-0.063c0.604-0.949,1.326-1.834,2.139-2.663
		c-0.408-0.542-0.539-1.16-0.449-1.761c-0.215,0.174-0.428,0.352-0.645,0.521c0.229-0.285,0.465-0.563,0.711-0.834
		c0.275-0.979,1.131-1.863,2.324-2.225c0.014-0.003,0.021-0.006,0.037-0.01c1.201-1,2.484-1.92,3.771-2.812
		c-0.961,0.88-1.934,1.749-2.916,2.606c1.209-0.234,2.48-0.246,3.689-0.121c0.533,0.055,1.215,0.084,1.832,0.227
		c4.842-4.185,10.141-7.95,14.217-12.891c0.414-0.502,0.742-0.921,0.984-1.26c0.037,0.431,0.055,0.867,0.051,1.306
		c-4.096,3.507-8.135,7.097-12.178,10.661c-0.867,0.764-1.719,1.549-2.561,2.343c0.141,0.056,0.273,0.116,0.393,0.192
		c0.211,0.094,0.367,0.249,0.477,0.432c0.502-0.477,1.008-0.951,1.518-1.42c3.555-3.269,7.225-6.456,10.898-9.608
		c-3.213,4.527-7.908,7.713-12.363,11.141c0.063,0.128,0.105,0.264,0.121,0.404c0.203,0.337,0.324,0.675,0.379,1.006
		c0.072-0.064,0.143-0.133,0.211-0.196c2.203-1.958,4.486-3.841,6.838-5.628c-2.275,2.034-4.707,3.908-7.043,5.879
		c0.082,0.576-0.045,1.13-0.352,1.617c0.723-0.634,1.459-1.253,2.205-1.864c-0.785,0.692-1.568,1.385-2.355,2.076
		c-0.242,0.319-0.566,0.602-0.959,0.838c-0.262,0.229-0.52,0.459-0.785,0.685c0.211-0.201,0.426-0.398,0.639-0.597
		c-0.232,0.128-0.484,0.24-0.758,0.333c-1.471,0.5-3.439,0.751-5.152,0.428c-0.424,0.373-0.854,0.742-1.283,1.105
		c0.311-0.399,0.635-0.787,0.963-1.172c-0.369-0.088-0.721-0.205-1.053-0.354c-0.594,0.711-1.158,1.447-1.697,2.209
		C320.577-183.589,320.54-183.598,320.505-183.606z M342.298-194.406c-1.238,0.948-2.406,1.982-3.543,3.058
		c1.234-1.365,2.479-2.715,3.896-3.887C342.538-194.956,342.421-194.681,342.298-194.406z M343.313-197.048
		c-1.447,0.875-2.828,1.834-4.166,2.848c1.416-1.268,2.768-2.602,3.984-4.072c0.313-0.381,0.57-0.699,0.779-0.967
		C343.743-198.499,343.546-197.768,343.313-197.048z M338.017-192.017c-0.789,0.869-1.582,1.742-2.424,2.576
		c-2.166,2.143-4.484,4.121-6.648,6.255c-0.473,0.081-0.947,0.144-1.424,0.188C331.087-185.923,334.431-189.126,338.017-192.017z
		 M330.868-183.627c0.947-0.899,1.912-1.783,2.875-2.667c-0.748,0.828-1.504,1.68-2.293,2.489
		C331.259-183.742,331.063-183.683,330.868-183.627z M333.685-184.705c0.33-0.362,0.66-0.724,0.986-1.077
		c1.369-1.485,2.783-2.988,4.271-4.412c-1.633,1.711-3.238,3.446-4.773,5.244C334.011-184.866,333.847-184.784,333.685-184.705z
		 M344.187-200.622c-0.031,0.182-0.064,0.361-0.098,0.543c-0.324,0.166-0.842,0.495-1.584,0.993
		c-0.021,0.015-0.041,0.03-0.063,0.044c0.672-0.775,1.299-1.596,1.875-2.46C344.278-201.205,344.233-200.91,344.187-200.622z
		 M318.47-222.844c-0.771,0.691-1.518,1.416-2.275,2.114c-2.283,2.103-5.066,3.741-7.783,5.328c0.182-0.3,0.365-0.597,0.563-0.889
		C311.308-219.767,314.704-221.893,318.47-222.844z"/>
	<path d="M326.03-197.507c0.965-0.242,1.563,0.637,1.461,1.396c0.006-0.004,0.012-0.008,0.02-0.013
		c1.625-1.116,3.199-2.3,4.748-3.521c-1.354,0.353-2.738,0.455-4.129,0.551C327.442-198.552,326.739-198.025,326.03-197.507z"/>
	<path d="M327.302-199.034c-1.104,0.383-2.18,0.805-3.131,1.434c0.037-0.007,0.074-0.012,0.111-0.018
		c0.467-0.085,0.836,0.042,1.094,0.273c0.076-0.02,0.154-0.04,0.232-0.06c0.641-0.555,1.285-1.102,1.93-1.647
		C327.458-199.046,327.382-199.041,327.302-199.034z"/>
	<path d="M326.989-201.391c0.021-0.018,0.045-0.036,0.066-0.054c1.688-1.291,3.393-2.561,5.1-3.823
		c0.01-0.063,0.018-0.125,0.021-0.19c0.035-0.603,0.021-1.233-0.08-1.842c-1.842,1.792-3.74,3.482-5.75,5.106
		c-0.455,0.348-0.904,0.703-1.355,1.053c0.619-0.083,1.24-0.146,1.867-0.203C326.901-201.36,326.946-201.376,326.989-201.391z"/>
	<path d="M318.405-206.604c0.105,0.185,0.148,0.398,0.146,0.611c2.02-1.855,4.223-3.536,6.529-5.096
		c-0.963,0.132-1.895,0.372-2.711,0.659C321.19-210.016,317.354-208.452,318.405-206.604z"/>
</g>
<path fill="#004D54" d="M282.877,24.015C281.878,10.563,269.571,3.73,257.51,9.368c-33.749,15.763-62.506,39.851-92.59,61.415
	c-12.766,9.136-25.33,18.587-38.16,27.596c-6.905,4.828-14.408,9.892-22.468,13.025c4.221-30.612,5.647-61.506,5.695-92.418
	c0.026-9.524-7.528-16.434-16.72-16.962C73.532,0.891,54.275,6.501,34.54,5.375c-7.045-0.401-15.05,5.326-16.378,12.398
	c-15.812,83.7-1.075,168.655,2.754,252.733c0.407,8.773,7.209,17.419,16.72,16.961c21.73-1.03,48.778,2.898,62.587-18.176
	c13.898-21.242,7.405-46.536,6.917-70.606c48.917,29.514,91.642,68.952,143.757,93.238c9.614,4.47,21.775,1.087,24.662-10.14
	c10.146-39.286,6.004-79.931,7.18-119.999C284.091,115.6,286.315,70.225,282.877,24.015z M221.479,236.488
	c5.417-4.563,11.151-8.773,16.829-13.058c-4.279,5.208-8.642,10.374-12.684,15.768C224.22,238.307,222.852,237.392,221.479,236.488z
	 M204.902,225.305c2.57-2.803,4.969-5.74,7.313-8.742c7.916-7.604,16.194-14.825,24.681-21.808
	c-9.688,10.88-19.061,21.999-26.297,34.454C208.706,227.912,206.812,226.621,204.902,225.305z M159.948,193.269
	c15.982-13.485,31.11-27.944,46.414-42.204c13.854-12.921,26.34-29.043,42.158-39.88c-8.165,16.178-25.311,29.854-37.168,42.295
	c-14.453,15.162-29.559,29.641-42.326,46.235C166.007,197.554,162.976,195.41,159.948,193.269z M139.093,179.077
	c21.719-20.669,45.613-38.978,66.224-60.806c16.328-17.284,27.022-40.857,45.879-55.622c0.037,1.472,0.082,2.951,0.1,4.421
	c-9.575,23.573-30.772,42.891-46.481,61.831c-16.933,20.398-39.312,36.035-54.843,57.451
	C146.367,183.891,142.744,181.468,139.093,179.077z M116.306,165.046c14.02-13.021,29.603-24.51,44.34-36.679
	c19.773-16.32,35.935-36.524,55.187-53.333c0.069-0.043,0.126-0.089,0.196-0.13c-24.639,35.88-61.092,62.476-85.1,98.923
	C126.124,170.799,121.248,167.874,116.306,165.046z M76.139,36.085c-0.038,2.287-0.064,4.564-0.115,6.854
	c-0.546-1.529-2.391-2.555-4.146-2.315c-9.192,1.246-17.527,6.435-25.17,12.7c0.069-0.657,0.146-1.318,0.222-1.978
	c3.991-4.548,8.238-8.917,11.997-13.437C64.663,37.277,70.396,36.562,76.139,36.085z M75.845,225.406
	c0.006,3.179-0.089,6.35-0.361,9.506c-6.499,6.587-14.648,12.423-21.872,18.005c-0.266-4.266-0.56-8.533-0.877-12.805
	C60.313,234.975,67.834,229.686,75.845,225.406z M74.326,189.921c0,1.502,0.02,2.998,0.058,4.492
	c-5.583,3.605-11.081,7.363-16.554,11.15c0.642-0.705,1.271-1.431,1.938-2.136c3.375-3.701,7.026-7.146,10.782-10.479
	C71.777,191.921,73.048,190.916,74.326,189.921z M175.41,104.439c0.877-0.605,1.747-1.221,2.624-1.833
	c-7.165,7.243-14.413,14.375-22.143,21.002c-12.474,10.683-25.546,20.543-37.823,31.199c5.842-7.585,11.896-15.014,18.113-22.299
	C149.852,123.887,162.63,113.203,175.41,104.439z M120.249,141.178c-4.838,5.985-9.537,12.076-14.096,18.272
	c-1.48-0.772-2.925-1.585-4.4-2.339c5.157-4.801,10.248-9.676,15.33-14.584C118.139,142.098,119.2,141.646,120.249,141.178z
	 M94.188,155.021c-7.636-0.429-15.073,3.915-17.289,12.128c-0.331,1.264-0.577,2.529-0.858,3.797
	c-5.893,4.901-11.94,9.631-18.189,14.12c6.664-14.711,20.302-25.328,32.197-36.9c4.431-0.026,8.735-0.491,12.913-1.33
	C100.063,149.585,97.131,152.313,94.188,155.021z M46.854,167.722c0.363,0.025,0.737,0,1.113-0.152
	c10.224-3.955,19.538-9.355,28.514-15.313c-11.902,11.153-23.676,22.342-27.795,38.606
	C48.049,183.151,47.426,175.441,46.854,167.722z M45.023,138.581c7.833-8.434,16.964-15.741,24.656-24.224
	c-0.191,1.102-0.228,2.246-0.075,3.41c0.215,1.774,0.438,3.547,0.66,5.319c-8.277,5.64-16.581,11.246-25.203,16.313
	C45.043,139.124,45.036,138.854,45.023,138.581z M75.356,61.113c-10.625,1.344-19.703,7.773-28.064,15.345
	c9.645-10.118,20.967-19.12,28.376-30.889c0.152-0.219,0.204-0.435,0.287-0.651C75.82,50.315,75.617,55.716,75.356,61.113z
	 M72.241,68.488c-5.55,13.857-17.337,23.508-28.14,33.925c0.019-4.712,0.089-9.421,0.222-14.128
	C52.734,79.825,61.858,71.219,72.241,68.488z M44.147,110.867c9.923-10.689,22.257-19.687,30.097-31.903
	c-0.387,4.933-0.864,9.854-1.418,14.764c-10.44,5.746-19.359,13.689-28.616,21.174C44.184,113.555,44.158,112.212,44.147,110.867z
	 M70.023,103.292c-7.001,9.905-16.602,17.786-25.394,26.336c-0.077-2.12-0.159-4.241-0.216-6.363
	C52.944,116.58,61.006,109.242,70.023,103.292z M72.178,135.479c0.985,3.288,2.626,6.179,4.914,8.37
	c-7.515,5.176-15.195,10.043-23.41,13.978C58.312,149.447,65.126,142.347,72.178,135.479z M45.759,62.989
	c5.684-5.188,11.788-10.044,18.426-13.051c-5.761,7.015-12.532,13.189-18.934,19.614C45.398,67.363,45.569,65.174,45.759,62.989z
	 M61.196,137.261c-5.926,6.274-11.31,12.932-15.035,20.669c-0.26-3.676-0.482-7.344-0.694-11.021
	C50.815,143.87,56.06,140.634,61.196,137.261z M49.104,195.761c0.973,1.163,2.569,1.723,4.102,0.698
	c7.051-4.692,13.816-9.727,20.414-14.962c-1.539,1.356-3.039,2.857-4.33,3.837c-7.197,5.519-13.461,12.091-19.475,18.907
	C49.588,201.419,49.333,198.59,49.104,195.761z M51.012,218.451c7.896-5.442,15.717-10.954,23.729-16.221
	c0.127,2.317,0.278,4.63,0.432,6.943c-6.587,7.789-15.005,14.688-23.195,21.122C51.673,226.354,51.362,222.398,51.012,218.451z
	 M73.106,248.733c-0.159,0.565-0.566,1.209-0.909,1.73c-0.598-0.217-1.296-0.228-2.099,0.075c-2.027,0.777-3.993,1.654-5.944,2.571
	c3.274-2.531,6.591-5.126,9.783-7.827C73.677,246.432,73.429,247.582,73.106,248.733z M249.479,153.414
	c-16.544,13.863-31.02,30.081-46.482,45.167c15.379-16.656,31.796-32.412,46.748-49.444
	C249.671,150.566,249.579,151.988,249.479,153.414z M251.539,101.395c-18.527,10.265-31.528,27.938-46.902,42.091
	c-15.101,13.902-29.875,28.152-45.389,41.556c15.83-20.206,37.371-36.469,54.002-55.724c12.602-14.61,28.014-30.1,38.313-47.658
	C251.628,88.236,251.628,94.818,251.539,101.395z M250.896,127.22c-4.583,2.611-8.965,5.486-13.205,8.577
	c4.902-5.033,9.626-10.258,13.453-15.982C251.075,122.286,250.985,124.752,250.896,127.22z M175.97,204.673
	c24.476-23.182,45.7-52.03,74.558-69.602c-0.045,1.037-0.082,2.074-0.132,3.109c-20.893,25.168-45.601,47.025-66.581,72.139
	C181.196,208.438,178.583,206.557,175.97,204.673z M245.873,165.318c-6.77,7.483-13.752,14.776-20.491,22.317
	c-7.247,8.131-13.072,17.229-19.594,25.762c-2.474,2.414-4.909,4.882-7.313,7.386c-1.855-1.309-3.713-2.62-5.567-3.939
	C211.496,200.705,227.635,181.806,245.873,165.318z M248.742,221.152c-0.013,0.211,0,0.421-0.013,0.636
	c-0.521,0.419-1.03,0.847-1.539,1.279C247.697,222.432,248.233,221.788,248.742,221.152z M248.69,206.251
	c-9.925,9.218-21.438,16.619-31.811,25.328c8.539-14.516,20.175-27.174,31.619-39.813
	C248.55,196.601,248.628,201.425,248.69,206.251z M248.55,230.799c-0.248,7.102-0.729,14.185-1.594,21.254
	c-3.91-2.2-7.802-4.457-11.643-6.791C239.63,240.303,243.845,235.229,248.55,230.799z M248.481,176.891
	c-5.521,4.331-10.993,8.699-16.411,13.147c5.238-6.435,10.859-12.498,16.498-18.538
	C248.526,173.298,248.499,175.099,248.481,176.891z M250.916,54.521c-20.219,13.904-32.298,37.545-47.677,56.057
	c-16.321,19.648-36.793,35.611-56.218,52.459c26.594-33.716,62.147-60.345,83.268-98.363c6.701-4.667,13.505-9.162,20.485-13.398
	C250.814,52.358,250.879,53.443,250.916,54.521z"/>
<path d="M265.776-215.943c-0.063-1.767-0.189-3.538-0.295-5.304c-0.09-1.472-0.127-3.286-1.594-4.097
	c-0.754-0.416-1.767-0.459-2.541-0.042c-0.449-0.021-0.933,0.096-1.422,0.403c-8.084,5.058-16.945,8.74-25.141,13.619
	c-2.188,1.302-4.355,2.636-6.564,3.905c-1.757,1.009-4.064,2.055-4.205,4.367c-0.125,2.045,1.635,3.791,3.157,4.89
	c1.97,1.421,4.214,2.507,6.279,3.784c4.731,2.925,9.522,5.748,14.394,8.43c2,1.103,4.047,2.119,6.047,3.22
	c1.78,0.979,3.549,1.884,5.604,2.041c4.275,0.329,5.293-4.818,5.613-7.97c0.408-3.99,0.611-8.113,0.722-12.118
	C265.967-205.843,265.958-210.918,265.776-215.943z M260.073-188.981c-0.844,0.448-1.652,0.959-2.445,1.496
	c0.801-1.119,1.671-2.189,2.52-3.273C260.142-190.163,260.122-189.567,260.073-188.981z M254.763-188.175
	c1.717-1.055,3.338-2.268,4.866-3.586c-1.129,1.459-2.315,2.877-3.349,4.405C255.776-187.632,255.272-187.905,254.763-188.175z
	 M251.028-190.153c2.957-2.756,6.018-5.565,9.443-7.748c-2.688,2.787-5.441,5.518-7.619,8.718
	C252.243-189.505,251.635-189.827,251.028-190.153z M240.926-195.935c3.233-2.705,7.007-4.598,10.651-6.676
	c0.102-0.058,0.197-0.122,0.299-0.181c-3.24,2.476-6.461,4.97-9.422,7.772C241.944-195.321,241.437-195.63,240.926-195.935z
	 M260.589-199.192c-0.104,0.062-0.209,0.123-0.311,0.187c0.105-0.117,0.211-0.233,0.316-0.351
	C260.592-199.302,260.59-199.247,260.589-199.192z M260.584-214.129c0.019,0.354,0.032,0.708,0.046,1.062
	c-0.922,0.239-1.797,0.596-2.631,1.045C258.872-212.71,259.733-213.412,260.584-214.129z M260.681-210.791
	c0,0.22,0,0.44,0.002,0.659c-0.75,0.479-1.486,0.982-2.211,1.498c0.786-0.776,1.524-1.606,2.207-2.501
	C260.679-211.021,260.681-210.905,260.681-210.791z M260.694-207.022c-3.02,1.706-5.631,4.149-8.48,6.102
	c-1.92,1.316-3.89,2.559-5.855,3.809c4.66-3.923,9.711-7.386,14.33-11.366C260.692-207.994,260.692-207.508,260.694-207.022z
	 M260.696-205.235c0,0.38,0,0.76-0.004,1.14c-1.041,0.371-2.059,0.804-3.057,1.291C258.685-203.583,259.71-204.386,260.696-205.235z
	 M260.676-202.203c-1.101,0.804-2.204,1.603-3.312,2.399c1.141-0.892,2.254-1.81,3.316-2.787
	C260.681-202.462,260.679-202.332,260.676-202.203z M260.506-215.769c-0.931,0.538-1.792,1.17-2.614,1.855
	c0.941-1.036,1.797-2.163,2.545-3.404C260.454-216.802,260.479-216.285,260.506-215.769z M253.335-209.765
	c-2.025,1.5-4.074,2.977-6.098,4.479c-1.875,1.338-3.744,2.678-5.65,3.964c3.799-3.354,8.369-5.863,12.355-8.982
	C253.741-210.123,253.54-209.942,253.335-209.765z M239.151-197.409c0.869-0.803,1.762-1.58,2.668-2.34
	c2.785-2.104,5.941-3.677,8.873-5.605c3.033-1.997,5.699-5.054,9.143-6.376c-5.066,6.707-13.666,9.643-19.811,15.204
	c-0.012,0.01-0.021,0.022-0.03,0.033c-0.437-0.261-0.872-0.521-1.304-0.785C238.839-197.243,239.005-197.273,239.151-197.409z
	 M248.135-197.03c-1.214,1.025-2.364,2.122-3.425,3.324c-0.302-0.176-0.607-0.352-0.911-0.529
	C245.233-195.183,246.685-196.106,248.135-197.03z M258.576-202.113c-3.862,3.271-8.209,5.979-11.702,9.653
	c-0.374-0.213-0.75-0.426-1.123-0.64C249.626-196.499,253.862-199.923,258.576-202.113z M260.464-200.776
	c-3.094,3.705-6.941,6.744-10.404,10.1c-0.07-0.038-0.143-0.074-0.211-0.113c-0.576-0.317-1.146-0.645-1.722-0.967
	C252.176-194.851,256.345-197.78,260.464-200.776z M260.245-194.308c-0.021,0.209-0.037,0.424-0.051,0.643
	c-1.938,1.811-4.041,3.443-6.313,4.805c1.9-2.734,4.229-5.123,6.549-7.516C260.378-195.687,260.317-194.997,260.245-194.308z
	 M260.39-219.218c0,0.026,0.002,0.052,0.002,0.077c0,0.239,0.008,0.478,0.012,0.717c-0.133-0.059-0.295-0.065-0.446,0.025
	c-4.377,2.576-8.128,6.032-12.19,9.047c-2.127,1.579-4.306,3.105-6.396,4.732c4.791-4.405,10.896-7.521,15.197-12.473
	c0.809-0.429,1.609-0.862,2.41-1.308C259.449-218.667,259.919-218.942,260.39-219.218z M246.083-209.835
	c0.996-0.908,1.993-1.817,2.992-2.722c0.232-0.211,0.181-0.511,0.004-0.701c0.824-0.418,1.648-0.834,2.473-1.251
	C249.751-212.926,247.95-211.337,246.083-209.835z M243.013-210.058c-0.705,0.62-1.394,1.256-2.09,1.854
	c-1.593,1.367-3.34,2.52-5.063,3.707c1.027-1.089,2.063-2.167,3.086-3.257C240.296-208.534,241.649-209.304,243.013-210.058z
	 M231.632-202.526c-0.105,0.349,0.178,0.623,0.482,0.641c-0.145,0.167-0.283,0.336-0.424,0.505c-0.596-0.353-1.17-0.729-1.699-1.146
	c0.697-0.415,1.408-0.812,2.113-1.215C231.923-203.352,231.76-202.95,231.632-202.526z M240.812-206.792
	c1.709-1.28,3.211-2.933,4.965-4.16c-2.371,2.163-4.74,4.328-7.153,6.441c-1.813,1.255-3.569,2.575-5.14,4.136
	c-0.26-0.141-0.521-0.282-0.778-0.425C235.215-203.047,238.119-204.774,240.812-206.792z M234.595-199.763
	c1.18-0.957,2.342-1.931,3.489-2.92c-0.739,0.872-1.427,1.799-2.038,2.803c-0.309,0.502,0.404,1.053,0.811,0.627
	c3.392-3.545,7.479-6.333,11.433-9.206c3.455-2.511,6.635-5.383,10.176-7.77c-5.423,7.305-14.987,10.307-20.729,17.397
	c-0.344,0.422,0.07,1.101,0.59,0.83c-0.1,0.194-0.047,0.401,0.078,0.547c-0.979-0.596-1.955-1.191-2.93-1.795
	C235.187-199.425,234.894-199.595,234.595-199.763z M259.319-185.983c-0.1-0.011-0.305-0.039-0.662-0.156
	c-0.246-0.082-0.49-0.189-0.73-0.309c0.643-0.445,1.297-0.875,1.971-1.268C259.776-187.104,259.592-186.522,259.319-185.983z"/>
<path d="M422.511-208.19c-1.971-1.421-4.213-2.506-6.281-3.784c-4.729-2.924-9.52-5.748-14.391-8.429
	c-2.002-1.101-4.047-2.119-6.047-3.22c-1.781-0.979-3.549-1.882-5.604-2.041c-4.275-0.329-5.295,4.819-5.615,7.97
	c-0.408,3.991-0.609,8.114-0.719,12.118c-0.139,5.026-0.129,10.101,0.053,15.126c0.063,1.768,0.189,3.539,0.295,5.305
	c0.09,1.473,0.123,3.287,1.594,4.098c0.715,0.395,1.664,0.456,2.422,0.106c0.09-0.021,0.184-0.041,0.275-0.062
	c0.289-0.008,0.59-0.077,0.898-0.214c0.371-0.12,0.672-0.302,0.91-0.524c7.938-4.887,16.584-8.518,24.598-13.287
	c2.188-1.303,4.355-2.635,6.564-3.905c1.754-1.009,4.063-2.054,4.201-4.368C425.794-205.345,424.034-207.09,422.511-208.19z
	 M407.302-211.331c-6.074,2.714-11.33,6.805-16.857,10.457c5.08-3.903,10.77-7.018,15.695-11.135
	C406.526-211.783,406.913-211.559,407.302-211.331z M412.401-208.253c-2.725,1.338-5.346,2.909-7.865,4.624
	c2.266-1.686,4.449-3.48,6.467-5.479C411.472-208.825,411.937-208.538,412.401-208.253z M417.302-205.414
	c-5.256,2.961-9.758,7.109-14.799,10.405c-2.32,1.518-4.678,2.975-7.012,4.469c-1.313,0.676-2.621,1.362-3.916,2.071
	c7.428-6.686,17.014-10.794,24.277-17.738C416.335-205.944,416.819-205.682,417.302-205.414z M389.081-192.642
	c3.813-3.059,7.945-5.706,11.965-8.489c-0.492,0.368-0.98,0.738-1.465,1.114c-3.332,2.574-6.67,5.55-10.496,7.449
	C389.083-192.592,389.083-192.617,389.081-192.642z M389.284-187.72c-0.008-0.438-0.021-0.875-0.037-1.313
	c4.18-2.289,7.988-5.226,11.893-7.94c3.607-2.508,7.252-5,10.982-7.343C404.796-198.411,395.948-194.376,389.284-187.72z
	 M389.138-191.452c0.557-0.265,1.102-0.551,1.637-0.855c-0.543,0.391-1.082,0.787-1.621,1.185
	C389.149-191.233,389.144-191.343,389.138-191.452z M399.028-198.286c3.189-2.508,6.523-4.924,10.041-6.998
	c-3.93,3.028-8.031,5.824-12.117,8.64C397.647-197.193,398.339-197.745,399.028-198.286z M388.993-202.696
	c5.16-3.149,9.982-6.905,15.521-9.318c-4.953,3.954-10.568,7.034-15.527,10.971C388.987-201.594,388.989-202.145,388.993-202.696z
	 M389.024-204.958c0.004-0.131,0.006-0.263,0.01-0.395c3.666-2.122,7.145-4.574,10.814-6.686c-2.064,1.588-4.203,3.09-6.412,4.423
	C391.976-206.734,390.464-205.895,389.024-204.958z M388.989-198.706c4.725-2.965,9.162-6.395,13.965-9.208
	c-2.646,2.034-5.275,4.095-8.025,5.972c-1.947,1.327-4.008,2.559-5.934,3.952C388.993-198.229,388.991-198.468,388.989-198.706z
	 M409.511-210.007c-1.977,0.796-3.879,1.73-5.729,2.763c1.52-1.17,3.047-2.329,4.613-3.431
	C408.767-210.453,409.138-210.23,409.511-210.007z M400.192-210.989c1.102-0.846,2.18-1.716,3.236-2.596
	c0.305,0.174,0.605,0.354,0.91,0.53C402.915-212.443,401.54-211.745,400.192-210.989z M402.011-214.382
	c-4.197,2.113-8.041,4.843-12.055,7.278c3.672-2.618,7.658-4.826,11.004-7.867C401.312-214.775,401.659-214.579,402.011-214.382z
	 M389.118-207.76c0.008-0.188,0.02-0.374,0.027-0.56c1.34-0.681,2.662-1.397,3.969-2.142
	C391.769-209.578,390.423-208.695,389.118-207.76z M399.683-215.685c-2.033,1.311-4.088,2.592-6.178,3.81
	c1.852-1.309,3.631-2.708,5.24-4.317C399.058-216.023,399.37-215.855,399.683-215.685z M389.563-216.663
	c0.678-0.228,1.34-0.514,1.988-0.835c-0.678,0.527-1.35,1.062-2.016,1.604C389.542-216.15,389.552-216.407,389.563-216.663z
	 M395.054-218.146c-1.273,0.749-2.529,1.538-3.836,2.22c1.078-0.857,2.168-1.695,3.266-2.527
	C394.677-218.35,394.864-218.247,395.054-218.146z M392.86-219.339c-0.961,0.555-1.932,1.083-2.939,1.479
	c0.834-0.625,1.678-1.243,2.588-1.682C392.624-219.474,392.743-219.407,392.86-219.339z M389.526-214.021
	c2.309-0.907,4.361-2.317,6.516-3.537c-2.004,1.666-4.277,2.985-6.531,4.33C389.519-213.488,389.522-213.753,389.526-214.021z
	 M389.394-211.558c2.688-1.483,5.26-3.177,7.93-4.703c-2.441,2.286-5.229,4.15-8.047,5.977
	C389.31-210.708,389.351-211.133,389.394-211.558z M409.118-208.732c-6.117,5.66-13.529,9.686-20.084,14.813
	c-0.018-0.561-0.031-1.121-0.031-1.684c0-0.088-0.002-0.176-0.002-0.264C395.435-200.581,401.774-205.622,409.118-208.732z
	 M412.763-201.245c0.828-0.592,1.666-1.17,2.514-1.726c-0.029,0.026-0.055,0.051-0.084,0.077
	C414.392-202.334,413.581-201.786,412.763-201.245z M414.489-206.98c-4.746,2.84-9.322,5.983-13.873,9.116
	c-3.057,2.106-6.043,4.362-9.188,6.342c7.377-5.338,15.137-10.151,22.105-16.036c0.227,0.139,0.451,0.274,0.676,0.414
	C414.302-207.088,414.396-207.034,414.489-206.98z M390.362-220.409c0.1,0.012,0.303,0.038,0.664,0.156
	c0.125,0.042,0.25,0.092,0.375,0.145c-0.521,0.307-1.023,0.657-1.521,1.019C389.997-219.552,390.153-219.994,390.362-220.409z
	 M414.233-200.685c0.541-0.449,1.068-0.914,1.574-1.396c0.762-0.528,1.518-1.066,2.262-1.618c0.143,0.146,0.355,0.198,0.572,0.039
	c0.279-0.204,0.492-0.345,0.625-0.527c0.145,0.104,0.287,0.21,0.426,0.319c-1.01,0.598-2.041,1.16-3.051,1.758
	C415.839-201.634,415.036-201.159,414.233-200.685z"/>
<path d="M500.308-222.036c-0.063-1.347-1.105-2.676-2.568-2.606c-3.336,0.159-7.492-0.444-9.611,2.793
	c-2.137,3.263-1.137,7.147-1.063,10.845c-7.514-4.534-14.076-10.591-22.082-14.321c-1.473-0.688-3.342-0.167-3.789,1.557
	c-1.559,6.035-0.922,12.277-1.1,18.433c-0.209,7.092-0.549,14.063-0.023,21.161c0.154,2.066,2.045,3.115,3.898,2.25
	c5.184-2.422,9.6-6.121,14.223-9.433c1.957-1.404,3.887-2.856,5.861-4.239c1.057-0.742,2.211-1.521,3.447-2.001
	c-0.646,4.702-0.865,9.448-0.873,14.196c-0.006,1.462,1.154,2.523,2.566,2.604c3.033,0.174,5.992-0.688,9.023-0.515
	c1.08,0.061,2.309-0.818,2.514-1.904C503.161-196.073,500.899-209.122,500.308-222.036z M468.483-190.655
	c3.898-3.92,7.684-7.954,11.523-11.932c-2.111,2.682-4.449,5.206-6.26,8.08C471.995-193.222,470.261-191.905,468.483-190.655z
	 M468.397-217.519c-0.967,0.682-1.994,1.304-3.061,1.845c0.016-0.579,0.045-1.156,0.084-1.733c0.414-0.39,0.834-0.775,1.252-1.165
	C467.253-218.23,467.831-217.879,468.397-217.519z M480.114-209.362c-5.672,4.718-10.037,10.729-15.236,15.924
	c0-0.23-0.006-0.461-0.006-0.69c3.855-5.913,10.693-9.723,14.258-15.921C479.456-209.82,479.784-209.59,480.114-209.362z
	 M483.194-207.32c-5.379,5.396-10.525,11.02-15.914,16.407c4.246-6.209,11.322-10.416,13.902-17.722
	C481.847-208.188,482.517-207.75,483.194-207.32z M465.36-208.5c0-0.181,0-0.361,0-0.542c1.043-0.694,2.094-1.378,3.143-2.063
	C467.433-210.263,466.364-209.415,465.36-208.5z M464.921-197.943c3.898-4.276,8.082-8.349,12.771-11.734
	c-3.396,5.271-9.039,8.858-12.811,13.813C464.892-196.558,464.901-197.251,464.921-197.943z M465.001-200.364
	c0.02-0.456,0.037-0.914,0.063-1.37c3.637-2.058,6.629-5.129,9.701-8.018C471.847-206.339,468.021-203.696,465.001-200.364z
	 M465.13-202.949c0.02-0.294,0.039-0.588,0.057-0.882c2.963-3.351,6.805-5.918,10.146-8.929c0.225,0.161,0.447,0.322,0.674,0.483
	C472.454-209.145,469.188-205.39,465.13-202.949z M465.284-205.436c0.006-0.112,0.016-0.224,0.018-0.336
	c0.232-0.113,0.459-0.237,0.682-0.359C465.749-205.902,465.515-205.671,465.284-205.436z M465.333-211.443
	c0.225-0.139,0.445-0.281,0.666-0.426c-0.223,0.202-0.443,0.405-0.664,0.61C465.335-211.321,465.335-211.382,465.333-211.443z
	 M465.315-213.327c-0.004-0.396-0.004-0.792,0-1.186c1.01-0.486,1.992-1.043,2.93-1.657
	C467.36-215.148,466.353-214.213,465.315-213.327z M464.892-192.001c5.148-4.988,9.412-10.846,14.773-15.616
	c-3.262,7.252-11.08,11.456-14.693,18.56C464.935-190.038,464.905-191.02,464.892-192.001z M477.776-211.006
	c-0.553,0.386-1.096,0.785-1.633,1.19c0.398-0.498,0.777-1.013,1.131-1.548C477.44-211.246,477.608-211.126,477.776-211.006z
	 M465.345-206.944c0-0.054,0-0.106,0.004-0.159c2.539-2.519,5.643-4.437,8.217-6.922c0.209,0.149,0.418,0.3,0.629,0.45
	C471.364-211.202,468.581-208.641,465.345-206.944z M466.646-211.121c1.602-1.46,3.297-2.823,4.791-4.392
	c0.289,0.199,0.58,0.396,0.867,0.598C470.458-213.591,468.552-212.36,466.646-211.121z M470.228-216.334
	c-0.52,0.416-1.039,0.831-1.563,1.241c0.434-0.47,0.846-0.957,1.221-1.465C469.999-216.483,470.112-216.409,470.228-216.334z
	 M465.558-218.947c0.012-0.084,0.021-0.169,0.031-0.254c0.053,0.029,0.104,0.056,0.154,0.084
	C465.683-219.06,465.62-219.003,465.558-218.947z M476.577-196.528c-0.145,0.1-0.287,0.201-0.432,0.303
	c2.631-3.515,5.848-6.655,7.934-10.544c0,0,0.002,0,0.002-0.001c0.619,0.38,1.244,0.75,1.879,1.109
	c-2.344,2.031-4.297,4.452-6.264,6.853C478.644-198.026,477.61-197.235,476.577-196.528z M491.825-186.028
	c0.006-0.363,0.012-0.725,0.021-1.087c0.688-0.435,1.371-0.876,2.043-1.327c-0.652,0.771-1.279,1.566-1.859,2.396
	C491.962-186.04,491.896-186.035,491.825-186.028z M491.886-188.364c0.002-0.063,0.002-0.131,0.006-0.195
	c1.672-1.815,3.41-3.585,4.826-5.586c-0.025,0.809-0.061,1.617-0.109,2.424C495.116-190.491,493.517-189.406,491.886-188.364z
	 M487.392-204.886c-0.057,0.045-0.109,0.09-0.164,0.136c0.033-0.058,0.061-0.118,0.092-0.175
	C487.343-204.912,487.366-204.898,487.392-204.886z M492.04-208.118c0.039-0.439,0.063-0.88,0.066-1.322
	c0.561-0.348,1.129-0.681,1.707-1.001C493.151-209.731,492.556-208.965,492.04-208.118z M491.501-204.949
	c0.977-1.036,2.072-1.96,3.252-2.776c-1.172,1.601-2.16,3.332-3.221,5.015c-0.342-0.275-0.764-0.459-1.271-0.515
	C490.681-203.796,491.097-204.367,491.501-204.949z M492.288-194.46c0.361-0.291,0.729-0.578,1.098-0.863
	c-0.383,0.412-0.762,0.826-1.137,1.244C492.261-194.206,492.274-194.333,492.288-194.46z M496.704-199.19
	c-1.205,0.986-2.459,1.916-3.697,2.863c1.236-1.671,2.479-3.337,3.617-5.073C496.657-200.663,496.687-199.927,496.704-199.19z
	 M496.53-203.19c-1.17,1.92-2.492,3.738-3.83,5.546c0-0.002,0.002-0.003,0.002-0.006c0.115-0.288,0.17-0.6,0.129-0.926
	c-0.055-0.438-0.109-0.876-0.164-1.313c1.123-1.334,2.432-2.604,3.855-3.432C496.524-203.276,496.528-203.233,496.53-203.19z
	 M492.347-201.555c-0.002-0.007-0.002-0.014-0.008-0.021c0.041-0.044,0.082-0.088,0.123-0.132
	C492.423-201.657,492.386-201.606,492.347-201.555z M496.233-207.459c-0.656,0.809-1.338,1.591-2.035,2.36
	c0.619-0.974,1.271-1.924,2-2.818C496.21-207.765,496.222-207.612,496.233-207.459z M496.048-209.753
	c-1.029,0.582-2.016,1.233-2.939,1.955c-0.006-0.019-0.014-0.034-0.02-0.053c0.789-1.222,1.77-2.255,2.848-3.21
	C495.974-210.626,496.011-210.189,496.048-209.753z M496.743-197.382c0,0.209,0,0.418,0,0.627c-1.301,1.26-2.646,2.477-4.008,3.672
	C494.028-194.55,495.401-195.954,496.743-197.382z M495.231-203.71c0.404-0.576,0.793-1.164,1.15-1.77
	c0.021,0.342,0.047,0.684,0.068,1.026C496.032-204.237,495.628-203.988,495.231-203.71z M495.802-212.652
	c-0.201,0.102-0.4,0.205-0.602,0.308c0.199-0.16,0.395-0.323,0.584-0.487C495.79-212.771,495.796-212.712,495.802-212.652z
	 M495.536-215.863c-0.852,0.48-1.709,0.949-2.57,1.405c0.84-0.835,1.672-1.676,2.484-2.538
	C495.479-216.618,495.509-216.24,495.536-215.863z M492.397-217.853c0.459-0.471,0.977-1.038,1.545-1.537
	c0.445-0.028,0.891-0.037,1.338-0.042c0.002,0.014,0.002,0.029,0.002,0.043c-1.068,0.733-2.158,1.436-3.273,2.091
	c0.006-0.057,0.016-0.112,0.025-0.168C492.155-217.593,492.274-217.726,492.397-217.853z M494.813-217.829
	c-0.957,1.022-1.945,2.013-2.941,3c-0.008-0.403,0-0.803,0.02-1.203C492.888-216.594,493.858-217.199,494.813-217.829z
	 M491.964-212.783c1.238-0.618,2.457-1.271,3.664-1.945c0.018,0.213,0.035,0.426,0.053,0.638c-1.129,1.039-2.387,1.961-3.619,2.908
	C492.034-211.716,491.999-212.25,491.964-212.783z M485.28-203.62c-0.666,0.872-1.426,1.685-2.201,2.487
	c-0.09,0.054-0.18,0.107-0.27,0.163C483.601-201.884,484.421-202.773,485.28-203.62z M488.44-204.403
	c0.379,0.108,0.77,0.133,1.145,0.083c-0.283,0.363-0.555,0.738-0.811,1.123c-0.789,0.076-1.551,0.241-2.289,0.477
	C487.116-203.304,487.769-203.866,488.44-204.403z M492.013-191.089c1.131-0.973,2.254-1.957,3.355-2.961
	c-1.041,1.377-2.223,2.656-3.408,3.932C491.976-190.442,491.993-190.766,492.013-191.089z M496.206-187.521
	c-0.439,0.404-0.895,0.795-1.357,1.17c-0.479,0.05-0.959,0.105-1.438,0.16c0.938-1.252,1.977-2.426,3.047-3.576
	C496.39-189.017,496.306-188.268,496.206-187.521z"/>
</svg>
